<svg width="190" height="54" fill="none" xmlns="http://www.w3.org/2000/svg"><rect x=".5" y=".5" width="189" height="53" rx="3.5" stroke="#3B3B69"/><path d="M80.5 36.91v5.7c-1.433 1.033-3.1 1.55-5 1.55-1.167 0-2.223-.18-3.17-.54-.94-.367-1.743-.873-2.41-1.52a6.708 6.708 0 0 1-1.54-2.33c-.36-.9-.54-1.89-.54-2.97 0-1.087.173-2.08.52-2.98a6.563 6.563 0 0 1 1.49-2.33 6.59 6.59 0 0 1 2.34-1.51c.913-.36 1.94-.54 3.08-.54.58 0 1.117.047 1.61.14.5.087.963.21 1.39.37a6.47 6.47 0 0 1 2.17 1.34l-.67 1.07a.666.666 0 0 1-.41.31c-.167.04-.347 0-.54-.12l-.62-.36a4.791 4.791 0 0 0-.74-.35 4.958 4.958 0 0 0-.97-.27c-.367-.073-.8-.11-1.3-.11-.76 0-1.447.127-2.06.38a4.32 4.32 0 0 0-1.56 1.07 4.696 4.696 0 0 0-1 1.68c-.233.66-.35 1.397-.35 2.21 0 .86.123 1.63.37 2.31a4.875 4.875 0 0 0 1.05 1.72c.453.467 1 .823 1.64 1.07.647.247 1.367.37 2.16.37.593 0 1.12-.063 1.58-.19a7.177 7.177 0 0 0 1.37-.53v-2.86h-2.01a.51.51 0 0 1-.36-.12.447.447 0 0 1-.13-.33v-1.33h4.61zm6.654-3.27c.753 0 1.433.123 2.04.37a4.328 4.328 0 0 1 1.56 1.05 4.622 4.622 0 0 1 1 1.65c.233.647.35 1.373.35 2.18 0 .807-.117 1.533-.35 2.18a4.725 4.725 0 0 1-1 1.66 4.328 4.328 0 0 1-1.56 1.05c-.607.247-1.287.37-2.04.37-.76 0-1.447-.123-2.06-.37a4.444 4.444 0 0 1-1.56-1.05 4.725 4.725 0 0 1-1-1.66c-.234-.647-.35-1.373-.35-2.18 0-.807.116-1.533.35-2.18a4.622 4.622 0 0 1 1-1.65 4.444 4.444 0 0 1 1.56-1.05c.613-.247 1.3-.37 2.06-.37zm0 8.83c.92 0 1.603-.307 2.05-.92.453-.62.68-1.503.68-2.65s-.227-2.03-.68-2.65c-.447-.627-1.13-.94-2.05-.94-.934 0-1.627.313-2.08.94-.454.62-.68 1.503-.68 2.65s.226 2.03.68 2.65c.453.613 1.146.92 2.08.92zm11.426-8.83c.753 0 1.433.123 2.039.37a4.316 4.316 0 0 1 1.56 1.05 4.608 4.608 0 0 1 1 1.65c.234.647.35 1.373.35 2.18 0 .807-.116 1.533-.35 2.18a4.71 4.71 0 0 1-1 1.66 4.316 4.316 0 0 1-1.56 1.05c-.606.247-1.286.37-2.04.37-.76 0-1.446-.123-2.06-.37a4.444 4.444 0 0 1-1.56-1.05 4.724 4.724 0 0 1-1-1.66c-.233-.647-.35-1.373-.35-2.18 0-.807.117-1.533.35-2.18a4.62 4.62 0 0 1 1-1.65 4.444 4.444 0 0 1 1.56-1.05c.614-.247 1.3-.37 2.06-.37zm0 8.83c.92 0 1.603-.307 2.049-.92.454-.62.68-1.503.68-2.65s-.226-2.03-.68-2.65c-.446-.627-1.13-.94-2.05-.94-.933 0-1.626.313-2.08.94-.453.62-.68 1.503-.68 2.65s.227 2.03.68 2.65c.454.613 1.147.92 2.08.92zm10.577-3.66c.667 0 1.167-.17 1.5-.51.333-.34.5-.783.5-1.33 0-.56-.167-1.003-.5-1.33-.333-.327-.833-.49-1.5-.49-.66 0-1.16.163-1.5.49-.333.327-.5.77-.5 1.33 0 .267.043.513.13.74.087.227.213.423.38.59.167.16.373.287.62.38.253.087.543.13.87.13zm2.99 5.69c0-.227-.067-.407-.2-.54-.127-.14-.3-.247-.52-.32a3.38 3.38 0 0 0-.77-.17 9.887 9.887 0 0 0-.94-.08c-.327-.02-.663-.037-1.01-.05-.34-.02-.67-.053-.99-.1-.32.167-.583.367-.79.6-.2.233-.3.503-.3.81 0 .2.05.387.15.56.107.173.267.323.48.45.22.127.497.227.83.3.34.073.747.11 1.22.11.947 0 1.657-.147 2.13-.44.473-.293.71-.67.71-1.13zm2.16-10.33v.8c0 .267-.16.43-.48.49l-1.02.17c.173.387.26.817.26 1.29 0 .5-.1.953-.3 1.36a3.003 3.003 0 0 1-.81 1.04 3.68 3.68 0 0 1-1.24.66c-.48.153-1 .23-1.56.23-.213 0-.423-.01-.63-.03a8.36 8.36 0 0 1-.59-.1 1.41 1.41 0 0 0-.43.36.653.653 0 0 0-.14.39c0 .22.097.383.29.49.193.107.447.183.76.23.32.047.683.077 1.09.09.407.013.82.037 1.24.07.42.033.833.09 1.24.17.407.073.767.2 1.08.38.32.173.577.41.77.71.193.3.29.69.29 1.17 0 .44-.11.87-.33 1.29-.22.42-.54.793-.96 1.12-.413.327-.92.587-1.52.78-.6.2-1.283.3-2.05.3-.76 0-1.423-.073-1.99-.22-.56-.147-1.03-.347-1.41-.6-.373-.247-.653-.533-.84-.86a2.086 2.086 0 0 1-.27-1.02c0-.48.15-.89.45-1.23.307-.34.72-.607 1.24-.8a1.785 1.785 0 0 1-.68-.55c-.167-.233-.25-.54-.25-.92 0-.3.11-.613.33-.94.22-.327.55-.603.99-.83a3.262 3.262 0 0 1-1.2-1.11c-.293-.467-.44-1.01-.44-1.63 0-.507.097-.963.29-1.37.2-.407.477-.753.83-1.04.353-.287.77-.507 1.25-.66a5.271 5.271 0 0 1 1.59-.23c.88 0 1.647.183 2.3.55h2.85zm3.888-4.97V44h-2.15V29.2h2.15zm9.344 8.55c0-.36-.053-.693-.16-1-.1-.313-.25-.583-.45-.81-.2-.233-.45-.413-.75-.54a2.441 2.441 0 0 0-1.02-.2c-.78 0-1.393.223-1.84.67-.447.447-.73 1.073-.85 1.88h5.07zm-5.13 1.32c.027.58.117 1.083.27 1.51.153.42.357.77.61 1.05.26.28.567.49.92.63.36.133.76.2 1.2.2.42 0 .783-.047 1.09-.14.307-.1.573-.207.8-.32.227-.12.42-.227.58-.32.16-.1.307-.15.44-.15a.46.46 0 0 1 .4.2l.61.79c-.253.3-.54.553-.86.76-.32.207-.66.377-1.02.51-.36.127-.73.217-1.11.27-.38.06-.75.09-1.11.09a5.442 5.442 0 0 1-1.97-.35c-.6-.24-1.123-.59-1.57-1.05-.44-.46-.787-1.03-1.04-1.71-.247-.68-.37-1.463-.37-2.35 0-.707.11-1.367.33-1.98a4.843 4.843 0 0 1 .96-1.6c.42-.453.927-.81 1.52-1.07.6-.267 1.277-.4 2.03-.4.627 0 1.207.103 1.74.31.533.2.993.497 1.38.89.387.393.687.877.9 1.45.22.567.33 1.213.33 1.94 0 .333-.037.557-.11.67-.073.113-.207.17-.4.17h-6.55zm18.926-2.13c.52 0 .976-.067 1.37-.2.4-.133.73-.32.99-.56.266-.247.466-.543.6-.89.133-.347.2-.733.2-1.16 0-.42-.067-.797-.2-1.13a2.155 2.155 0 0 0-.58-.85c-.26-.233-.59-.41-.99-.53-.394-.127-.857-.19-1.39-.19h-2.14v5.51h2.14zm0-7.34c.94 0 1.753.11 2.44.33.693.22 1.263.53 1.71.93.453.393.79.87 1.01 1.43.22.553.33 1.167.33 1.84 0 .687-.117 1.317-.35 1.89a4.009 4.009 0 0 1-1.04 1.47c-.46.407-1.034.727-1.72.96-.68.227-1.474.34-2.38.34h-2.14V44h-2.34V29.6h4.48zm9.458-.4V44h-2.15V29.2h2.15zm8.104 10.34c-.767.027-1.414.09-1.94.19-.527.093-.954.217-1.28.37-.327.147-.564.323-.71.53-.14.207-.21.433-.21.68 0 .24.036.447.11.62.08.167.186.307.32.42.14.107.3.187.48.24.186.047.39.07.61.07.56 0 1.04-.103 1.44-.31.406-.213.8-.52 1.18-.92v-1.89zm-5.7-4.32c1.153-1.073 2.526-1.61 4.12-1.61.586 0 1.106.097 1.56.29.46.187.843.453 1.15.8.313.347.55.76.71 1.24.166.473.25 1 .25 1.58V44h-.96c-.207 0-.364-.03-.47-.09-.107-.067-.197-.197-.27-.39l-.21-.83c-.26.233-.517.443-.77.63-.254.18-.517.333-.79.46-.267.127-.557.22-.87.28-.307.067-.647.1-1.02.1-.414 0-.8-.057-1.16-.17a2.574 2.574 0 0 1-.92-.51 2.539 2.539 0 0 1-.62-.86c-.147-.34-.22-.74-.22-1.2 0-.393.103-.777.31-1.15.213-.373.56-.707 1.04-1 .486-.3 1.123-.547 1.91-.74.793-.193 1.77-.303 2.93-.33v-.68c0-.733-.157-1.28-.47-1.64-.314-.36-.774-.54-1.38-.54-.414 0-.76.053-1.04.16-.28.1-.524.21-.73.33-.207.12-.39.233-.55.34-.16.1-.33.15-.51.15a.652.652 0 0 1-.38-.11c-.1-.08-.184-.177-.25-.29l-.39-.7zm19.085-1.42l-5.62 13.1a1.015 1.015 0 0 1-.27.36c-.1.087-.257.13-.47.13h-1.59l1.88-4.08-4.16-9.51h1.87c.18 0 .317.043.41.13.1.08.173.177.22.29l2.43 5.79c.06.167.113.333.16.5.053.16.103.327.15.5a48.2 48.2 0 0 1 .16-.51c.053-.167.113-.333.18-.5l2.33-5.78a.675.675 0 0 1 .23-.3.628.628 0 0 1 .37-.12h1.72zM76.429 16.177v3.85a5.681 5.681 0 0 1-1.617.819 6.285 6.285 0 0 1-1.876.266c-.807 0-1.535-.124-2.184-.371a4.92 4.92 0 0 1-1.666-1.05 4.64 4.64 0 0 1-1.057-1.624 5.643 5.643 0 0 1-.371-2.079c0-.765.119-1.463.357-2.093a4.636 4.636 0 0 1 1.029-1.617 4.531 4.531 0 0 1 1.617-1.05c.635-.247 1.344-.371 2.128-.371.397 0 .765.03 1.106.091a4.743 4.743 0 0 1 1.75.651c.247.154.478.329.693.525l-.385.616a.415.415 0 0 1-.238.182c-.093.023-.198 0-.315-.07-.112-.065-.24-.145-.385-.238a3.135 3.135 0 0 0-.532-.266 3.934 3.934 0 0 0-.735-.224 4.785 4.785 0 0 0-1.001-.091c-.565 0-1.076.093-1.533.28a3.185 3.185 0 0 0-1.169.791c-.322.34-.57.756-.742 1.246a4.864 4.864 0 0 0-.259 1.638c0 .63.089 1.195.266 1.694.182.495.439.917.77 1.267a3.34 3.34 0 0 0 1.218.791 4.46 4.46 0 0 0 1.603.273c.467 0 .88-.051 1.239-.154a5.507 5.507 0 0 0 1.064-.441v-2.205h-1.561a.309.309 0 0 1-.217-.077.257.257 0 0 1-.077-.189v-.77h3.08zm8.267 3.717L84.689 21h-6.181V10.969h6.18v1.106h-4.822v3.332h3.906v1.064h-3.906v3.423h4.83zm8.674-7.784h-3.247V21h-1.351v-8.89h-3.255v-1.141h7.854v1.141zM99.375 21h-1.358V10.969h1.358V21zm9.349-8.89h-3.248V21h-1.351v-8.89h-3.255v-1.141h7.854v1.141zm13.915 3.878a5.82 5.82 0 0 1-.357 2.072 4.745 4.745 0 0 1-1.008 1.617 4.54 4.54 0 0 1-1.568 1.057 5.296 5.296 0 0 1-2.016.371 5.296 5.296 0 0 1-2.016-.371 4.55 4.55 0 0 1-1.561-1.057 4.745 4.745 0 0 1-1.008-1.617 5.819 5.819 0 0 1-.357-2.072c0-.751.119-1.44.357-2.065a4.73 4.73 0 0 1 1.008-1.624 4.504 4.504 0 0 1 1.561-1.064 5.21 5.21 0 0 1 2.016-.378 5.21 5.21 0 0 1 2.016.378 4.495 4.495 0 0 1 1.568 1.064c.434.453.77.994 1.008 1.624.238.625.357 1.314.357 2.065zm-1.393 0c0-.616-.084-1.169-.252-1.659a3.473 3.473 0 0 0-.714-1.239 3.075 3.075 0 0 0-1.12-.784 3.804 3.804 0 0 0-1.47-.273c-.537 0-1.024.091-1.463.273a3.144 3.144 0 0 0-1.127.784 3.473 3.473 0 0 0-.714 1.239 5.098 5.098 0 0 0-.252 1.659c0 .616.084 1.169.252 1.659.168.485.406.898.714 1.239.313.336.688.595 1.127.777.439.177.926.266 1.463.266a3.9 3.9 0 0 0 1.47-.266 3.116 3.116 0 0 0 1.12-.777c.308-.34.546-.754.714-1.239.168-.49.252-1.043.252-1.659zm11.463-5.019V21h-.679a.602.602 0 0 1-.273-.056.698.698 0 0 1-.21-.189l-5.803-7.56a10.623 10.623 0 0 1 .028.658V21h-1.19V10.969h.7a.75.75 0 0 1 .154.014.289.289 0 0 1 .112.035.331.331 0 0 1 .098.07.928.928 0 0 1 .105.112l5.803 7.553-.028-.35a7.671 7.671 0 0 1-.007-.329v-7.105h1.19zM21.279 6.51a3.41 3.41 0 0 0-3.3-.16l17.793 17.998 5.818-5.9L21.279 6.51zm-4.934 1.507A3.688 3.688 0 0 0 16 9.579v32.92c0 .552.122 1.078.348 1.548L34.133 26.01 16.345 8.017zm19.43 19.652L18.01 45.684c.471.22.973.317 1.474.317.618 0 1.235-.15 1.794-.489l20.314-11.956-5.819-5.887zm13.55-4.673a.315.315 0 0 0-.022-.014l-5.64-3.315-6.25 6.34 6.255 6.328 5.657-3.33A3.497 3.497 0 0 0 51 26a3.493 3.493 0 0 0-1.675-3.004z" fill="#3B3B69"/></svg>