<svg width="190" height="54" fill="none" xmlns="http://www.w3.org/2000/svg"><rect x=".5" y=".5" width="189" height="53" rx="3.5" stroke="#3B3B69"/><path d="M74.33 38.6l-1.98-5.26a14.57 14.57 0 0 1-.49-1.55 10.72 10.72 0 0 1-.24.87c-.087.26-.167.49-.24.69L69.4 38.6h4.93zm4.43 5.4h-1.81c-.207 0-.373-.05-.5-.15a1.05 1.05 0 0 1-.29-.39l-1.2-3.18h-6.2l-1.2 3.18a.958.958 0 0 1-.28.37.745.745 0 0 1-.5.17h-1.81l5.71-14.4h2.37L78.76 44zm3.391-2.56c.3.387.627.66.98.82.36.153.757.23 1.19.23.84 0 1.494-.307 1.96-.92.474-.613.71-1.527.71-2.74 0-.627-.053-1.16-.16-1.6-.106-.447-.26-.81-.46-1.09s-.443-.483-.73-.61a2.376 2.376 0 0 0-.97-.19c-.546 0-1.02.12-1.42.36-.393.233-.76.57-1.1 1.01v4.73zm-.11-6.16c.427-.5.91-.903 1.45-1.21.547-.307 1.18-.46 1.9-.46a3.44 3.44 0 0 1 1.56.35c.467.227.867.56 1.2 1 .334.44.59.987.77 1.64.187.647.28 1.39.28 2.23a6.95 6.95 0 0 1-.31 2.11c-.2.647-.49 1.21-.87 1.69a4.16 4.16 0 0 1-1.38 1.12c-.54.267-1.15.4-1.83.4-.6 0-1.11-.097-1.53-.29a3.972 3.972 0 0 1-1.13-.8v4.33h-2.15V33.8h1.3c.294 0 .48.137.56.41l.18 1.07zm11.399 6.16c.3.387.627.66.98.82.36.153.757.23 1.19.23.84 0 1.494-.307 1.96-.92.474-.613.71-1.527.71-2.74 0-.627-.053-1.16-.16-1.6-.106-.447-.26-.81-.46-1.09s-.443-.483-.73-.61a2.376 2.376 0 0 0-.97-.19c-.546 0-1.02.12-1.42.36-.393.233-.76.57-1.1 1.01v4.73zm-.11-6.16c.427-.5.91-.903 1.45-1.21.547-.307 1.18-.46 1.9-.46a3.44 3.44 0 0 1 1.56.35c.467.227.867.56 1.2 1 .334.44.59.987.77 1.64.187.647.28 1.39.28 2.23a6.95 6.95 0 0 1-.31 2.11c-.2.647-.49 1.21-.87 1.69a4.16 4.16 0 0 1-1.38 1.12c-.54.267-1.15.4-1.83.4-.6 0-1.11-.097-1.53-.29a3.97 3.97 0 0 1-1.13-.8v4.33h-2.15V33.8h1.3c.294 0 .48.137.56.41l.18 1.07zm22.16-3.22a.95.95 0 0 1-.23.27.53.53 0 0 1-.3.08c-.127 0-.27-.053-.43-.16a6.275 6.275 0 0 0-.58-.35 4.418 4.418 0 0 0-.81-.36c-.313-.113-.687-.17-1.12-.17-.4 0-.753.05-1.06.15-.3.1-.553.24-.76.42a1.77 1.77 0 0 0-.47.64c-.1.24-.15.503-.15.79 0 .367.097.673.29.92.193.24.447.447.76.62.32.173.683.327 1.09.46.407.127.82.263 1.24.41.427.147.843.313 1.25.5.407.187.767.423 1.08.71.32.287.577.637.77 1.05.193.413.29.917.29 1.51 0 .64-.11 1.24-.33 1.8-.22.56-.54 1.05-.96 1.47-.413.413-.927.74-1.54.98-.607.24-1.3.36-2.08.36-.46 0-.91-.047-1.35-.14a7.126 7.126 0 0 1-1.25-.37 6.61 6.61 0 0 1-1.11-.6 5.567 5.567 0 0 1-.93-.78l.68-1.12a.663.663 0 0 1 .23-.22.614.614 0 0 1 .31-.08c.153 0 .323.073.51.22.187.14.41.297.67.47.267.167.587.323.96.47.373.14.82.21 1.34.21.847 0 1.5-.207 1.96-.62.467-.413.7-.983.7-1.71 0-.407-.097-.737-.29-.99a2.31 2.31 0 0 0-.77-.65 5.35 5.35 0 0 0-1.08-.44c-.407-.12-.82-.247-1.24-.38-.42-.14-.833-.3-1.24-.48a4.18 4.18 0 0 1-1.09-.72 3.446 3.446 0 0 1-.76-1.1c-.193-.44-.29-.987-.29-1.64 0-.52.1-1.023.3-1.51.207-.487.503-.917.89-1.29a4.37 4.37 0 0 1 1.45-.91c.573-.227 1.227-.34 1.96-.34.827 0 1.583.13 2.27.39.693.26 1.29.63 1.79 1.11l-.57 1.12zm5.809 12.1c-.847 0-1.5-.237-1.96-.71-.454-.48-.68-1.153-.68-2.02v-5.94h-1.12a.463.463 0 0 1-.31-.11c-.087-.08-.13-.197-.13-.35v-.87l1.65-.24.47-2.95a.537.537 0 0 1 .17-.27.454.454 0 0 1 .32-.11h1.1v3.35h2.83v1.55h-2.83v5.79c0 .367.09.647.27.84.18.193.42.29.72.29.166 0 .31-.02.43-.06a2.83 2.83 0 0 0 .31-.14c.086-.053.16-.1.22-.14a.333.333 0 0 1 .19-.07c.12 0 .216.067.29.2l.64 1.05c-.334.293-.727.52-1.18.68-.454.153-.92.23-1.4.23zm8.366-10.52c.754 0 1.434.123 2.04.37a4.316 4.316 0 0 1 1.56 1.05 4.608 4.608 0 0 1 1 1.65c.234.647.35 1.373.35 2.18 0 .807-.116 1.533-.35 2.18a4.71 4.71 0 0 1-1 1.66 4.316 4.316 0 0 1-1.56 1.05c-.606.247-1.286.37-2.04.37-.76 0-1.446-.123-2.06-.37a4.457 4.457 0 0 1-1.56-1.05 4.74 4.74 0 0 1-1-1.66c-.233-.647-.35-1.373-.35-2.18 0-.807.117-1.533.35-2.18a4.637 4.637 0 0 1 1-1.65 4.457 4.457 0 0 1 1.56-1.05c.614-.247 1.3-.37 2.06-.37zm0 8.83c.92 0 1.604-.307 2.05-.92.454-.62.68-1.503.68-2.65s-.226-2.03-.68-2.65c-.446-.627-1.13-.94-2.05-.94-.933 0-1.626.313-2.08.94-.453.62-.68 1.503-.68 2.65s.227 2.03.68 2.65c.454.613 1.147.92 2.08.92zm9.046-6.78c.32-.647.707-1.153 1.16-1.52.453-.373.997-.56 1.63-.56.22 0 .427.027.62.08.193.047.367.12.52.22l-.15 1.62c-.027.113-.07.193-.13.24a.36.36 0 0 1-.22.06c-.1 0-.243-.017-.43-.05a2.81 2.81 0 0 0-.59-.06c-.3 0-.567.043-.8.13a1.995 1.995 0 0 0-.62.38c-.18.167-.34.37-.48.61-.14.24-.27.513-.39.82V44h-2.15V33.8h1.25c.227 0 .383.043.47.13.087.08.147.223.18.43l.13 1.33zm11.691 2.06c0-.36-.053-.693-.16-1-.1-.313-.25-.583-.45-.81-.2-.233-.45-.413-.75-.54a2.441 2.441 0 0 0-1.02-.2c-.78 0-1.393.223-1.84.67-.446.447-.73 1.073-.85 1.88h5.07zm-5.13 1.32c.027.58.117 1.083.27 1.51.154.42.357.77.61 1.05.26.28.567.49.92.63.36.133.76.2 1.2.2.42 0 .784-.047 1.09-.14.307-.1.574-.207.8-.32.227-.12.42-.227.58-.32.16-.1.307-.15.44-.15.174 0 .307.067.4.2l.61.79c-.253.3-.54.553-.86.76-.32.207-.66.377-1.02.51-.36.127-.73.217-1.11.27-.38.06-.75.09-1.11.09a5.446 5.446 0 0 1-1.97-.35c-.6-.24-1.123-.59-1.57-1.05-.44-.46-.786-1.03-1.04-1.71-.246-.68-.37-1.463-.37-2.35 0-.707.11-1.367.33-1.98a4.843 4.843 0 0 1 .96-1.6c.42-.453.927-.81 1.52-1.07.6-.267 1.277-.4 2.03-.4.627 0 1.207.103 1.74.31.534.2.994.497 1.38.89.387.393.687.877.9 1.45.22.567.33 1.213.33 1.94 0 .333-.036.557-.11.67-.073.113-.206.17-.4.17h-6.55zM74.975 15.988c0 .751-.119 1.435-.357 2.051a4.549 4.549 0 0 1-1.008 1.582 4.51 4.51 0 0 1-1.568 1.022 5.477 5.477 0 0 1-2.016.357h-3.745V10.969h3.745c.737 0 1.41.121 2.016.364a4.394 4.394 0 0 1 1.568 1.022c.434.439.77.966 1.008 1.582.238.616.357 1.3.357 2.051zm-1.393 0c0-.616-.084-1.167-.252-1.652a3.482 3.482 0 0 0-.714-1.232 3.044 3.044 0 0 0-1.12-.77 3.891 3.891 0 0 0-1.47-.266h-2.387v7.833h2.387a3.9 3.9 0 0 0 1.47-.266 3.085 3.085 0 0 0 1.12-.763c.308-.336.546-.747.714-1.232.168-.485.252-1.036.252-1.652zm5.948-2.191c.519 0 .985.086 1.4.259.416.173.77.418 1.065.735.294.317.518.702.672 1.155.158.448.238.95.238 1.505 0 .56-.08 1.064-.238 1.512a3.19 3.19 0 0 1-.672 1.148 3.001 3.001 0 0 1-1.064.735 3.704 3.704 0 0 1-1.4.252c-.523 0-.994-.084-1.414-.252a3.001 3.001 0 0 1-1.064-.735c-.294-.317-.52-.7-.68-1.148a4.634 4.634 0 0 1-.23-1.512c0-.555.077-1.057.23-1.505.16-.453.386-.838.68-1.155a3.001 3.001 0 0 1 1.064-.735 3.68 3.68 0 0 1 1.414-.259zm0 6.328c.7 0 1.223-.233 1.569-.7.345-.471.518-1.127.518-1.967 0-.845-.173-1.503-.518-1.974-.346-.471-.868-.707-1.568-.707-.355 0-.665.06-.931.182a1.744 1.744 0 0 0-.658.525 2.41 2.41 0 0 0-.392.847 4.598 4.598 0 0 0-.126 1.127c0 .84.172 1.496.518 1.967.35.467.88.7 1.589.7zm14.625-6.216L91.859 21h-.987c-.122 0-.206-.08-.252-.238l-1.568-4.809a2.753 2.753 0 0 1-.091-.322 42.838 42.838 0 0 0-.07-.329 35.05 35.05 0 0 0-.07.329 3.2 3.2 0 0 1-.091.329l-1.596 4.802c-.042.159-.136.238-.28.238h-.938l-2.296-7.091h.98c.098 0 .18.026.245.077.07.051.116.112.14.182l1.358 4.564c.079.336.142.653.189.952l.126-.469c.046-.159.095-.32.147-.483l1.498-4.592a.38.38 0 0 1 .119-.175.345.345 0 0 1 .217-.07h.546a.362.362 0 0 1 .357.245l1.463 4.592c.051.163.098.324.14.483.042.159.081.315.119.469a7.949 7.949 0 0 1 .203-.952l1.386-4.564a.345.345 0 0 1 .133-.182.363.363 0 0 1 .23-.077h.939zm2.389 1.029c.154-.173.317-.329.49-.469a3.13 3.13 0 0 1 .546-.357 2.85 2.85 0 0 1 1.323-.315c.387 0 .728.065 1.022.196.299.126.546.308.742.546.201.233.352.516.455.847.103.331.154.698.154 1.099V21h-1.253v-4.515c0-.537-.124-.952-.371-1.246-.243-.299-.614-.448-1.113-.448-.369 0-.714.089-1.036.266a3.423 3.423 0 0 0-.882.721V21h-1.253v-7.091h.749c.177 0 .287.086.329.259l.098.77zm7.919-4.249V21h-1.247V10.689h1.247zm5.009 3.108c.518 0 .985.086 1.4.259.415.173.77.418 1.064.735.294.317.518.702.672 1.155.159.448.238.95.238 1.505a4.5 4.5 0 0 1-.238 1.512 3.19 3.19 0 0 1-.672 1.148 3.004 3.004 0 0 1-1.064.735 3.703 3.703 0 0 1-1.4.252c-.523 0-.994-.084-1.414-.252a3.004 3.004 0 0 1-1.064-.735c-.294-.317-.52-.7-.679-1.148a4.634 4.634 0 0 1-.231-1.512c0-.555.077-1.057.231-1.505.159-.453.385-.838.679-1.155a3.004 3.004 0 0 1 1.064-.735 3.68 3.68 0 0 1 1.414-.259zm0 6.328c.7 0 1.223-.233 1.568-.7.345-.471.518-1.127.518-1.967 0-.845-.173-1.503-.518-1.974-.345-.471-.868-.707-1.568-.707-.355 0-.665.06-.931.182a1.758 1.758 0 0 0-.658.525 2.41 2.41 0 0 0-.392.847 4.598 4.598 0 0 0-.126 1.127c0 .84.173 1.496.518 1.967.35.467.88.7 1.589.7zm8.797-2.317c-.574.019-1.064.065-1.47.14-.401.07-.73.163-.987.28-.252.117-.436.254-.553.413a.901.901 0 0 0-.168.532c0 .187.031.348.091.483a.962.962 0 0 0 .245.336c.108.084.231.147.371.189.145.037.299.056.462.056.22 0 .42-.021.602-.063a2.652 2.652 0 0 0 .973-.497c.15-.117.294-.25.434-.399v-1.47zm-4.025-2.898c.392-.378.815-.66 1.267-.847a3.91 3.91 0 0 1 1.505-.28c.397 0 .749.065 1.057.196.308.13.567.313.777.546.21.233.369.516.476.847.108.331.161.695.161 1.092V21h-.553a.574.574 0 0 1-.28-.056c-.065-.042-.116-.121-.154-.238l-.14-.672a7.29 7.29 0 0 1-.546.462c-.177.13-.364.243-.56.336a3.016 3.016 0 0 1-.63.203 3.23 3.23 0 0 1-.735.077 2.63 2.63 0 0 1-.777-.112 1.883 1.883 0 0 1-.637-.35 1.708 1.708 0 0 1-.427-.581 2.12 2.12 0 0 1-.154-.84c0-.28.077-.548.231-.805.154-.261.404-.492.749-.693.346-.2.796-.364 1.351-.49.556-.13 1.237-.205 2.044-.224v-.553c0-.55-.119-.966-.357-1.246-.238-.285-.585-.427-1.043-.427-.308 0-.567.04-.777.119a2.769 2.769 0 0 0-.539.259c-.149.093-.28.18-.392.259a.558.558 0 0 1-.322.112.372.372 0 0 1-.217-.063.675.675 0 0 1-.154-.168l-.224-.399zm11.761.686c-.233-.313-.485-.53-.756-.651a2.129 2.129 0 0 0-.91-.189c-.658 0-1.164.236-1.519.707-.354.471-.532 1.143-.532 2.016 0 .462.04.859.119 1.19.08.327.196.597.35.812.154.21.343.364.567.462.224.098.479.147.763.147.411 0 .768-.093 1.071-.28.308-.187.591-.45.847-.791v-3.423zm1.246-4.907V21h-.742c-.177 0-.289-.086-.336-.259l-.112-.861a3.846 3.846 0 0 1-1.036.882c-.387.224-.835.336-1.344.336-.406 0-.774-.077-1.106-.231a2.335 2.335 0 0 1-.847-.693 3.29 3.29 0 0 1-.539-1.134 5.838 5.838 0 0 1-.189-1.561c0-.523.07-1.008.21-1.456a3.59 3.59 0 0 1 .602-1.176 2.78 2.78 0 0 1 .959-.777 2.841 2.841 0 0 1 1.288-.287c.434 0 .805.075 1.113.224.313.145.591.348.833.609v-3.927h1.246zm8.539 3.108c.518 0 .985.086 1.4.259.416.173.77.418 1.064.735.294.317.518.702.672 1.155.159.448.238.95.238 1.505a4.5 4.5 0 0 1-.238 1.512 3.19 3.19 0 0 1-.672 1.148 2.995 2.995 0 0 1-1.064.735 3.703 3.703 0 0 1-1.4.252 3.78 3.78 0 0 1-1.414-.252 3.004 3.004 0 0 1-1.064-.735c-.294-.317-.52-.7-.679-1.148a4.634 4.634 0 0 1-.231-1.512c0-.555.077-1.057.231-1.505.159-.453.385-.838.679-1.155a3.004 3.004 0 0 1 1.064-.735 3.69 3.69 0 0 1 1.414-.259zm0 6.328c.7 0 1.223-.233 1.568-.7.346-.471.518-1.127.518-1.967 0-.845-.172-1.503-.518-1.974-.345-.471-.868-.707-1.568-.707-.354 0-.665.06-.931.182a1.76 1.76 0 0 0-.658.525 2.428 2.428 0 0 0-.392.847 4.598 4.598 0 0 0-.126 1.127c0 .84.173 1.496.518 1.967.35.467.88.7 1.589.7zm6.131-5.187c.154-.173.317-.329.49-.469.172-.14.354-.259.546-.357a2.849 2.849 0 0 1 1.323-.315c.387 0 .728.065 1.022.196.298.126.546.308.742.546.2.233.352.516.455.847.102.331.154.698.154 1.099V21H145.4v-4.515c0-.537-.124-.952-.371-1.246-.243-.299-.614-.448-1.113-.448-.369 0-.714.089-1.036.266a3.403 3.403 0 0 0-.882.721V21h-1.253v-7.091h.749c.177 0 .287.086.329.259l.098.77zm12.389 6.174c-.56 0-.991-.156-1.295-.469-.298-.313-.448-.763-.448-1.351v-4.34h-.854a.291.291 0 0 1-.189-.063c-.051-.047-.077-.117-.077-.21v-.497l1.162-.147.287-2.191a.3.3 0 0 1 .091-.168.282.282 0 0 1 .196-.07h.63v2.443h2.051v.903h-2.051v4.256c0 .299.073.52.217.665a.76.76 0 0 0 .56.217 1.017 1.017 0 0 0 .588-.168c.07-.042.129-.08.175-.112.052-.037.096-.056.133-.056.066 0 .124.04.175.119l.364.595c-.214.2-.473.36-.777.476a2.686 2.686 0 0 1-.938.168zm4.094-6.258a3.752 3.752 0 0 1 1.008-.77 2.727 2.727 0 0 1 1.274-.287c.387 0 .728.065 1.022.196.299.126.546.308.742.546.201.233.352.516.455.847.103.331.154.698.154 1.099V21h-1.253v-4.515c0-.537-.124-.952-.371-1.246-.243-.299-.614-.448-1.113-.448-.369 0-.714.089-1.036.266a3.436 3.436 0 0 0-.882.721V21h-1.253V10.689h1.253v4.165zm11.3 1.827c0-.29-.042-.553-.126-.791a1.695 1.695 0 0 0-.357-.623 1.507 1.507 0 0 0-.567-.406 1.888 1.888 0 0 0-.763-.147c-.598 0-1.071.175-1.421.525-.346.345-.56.826-.644 1.442h3.878zm1.008 3.325a2.44 2.44 0 0 1-.553.49 3.548 3.548 0 0 1-.693.336 4.098 4.098 0 0 1-.756.196c-.262.047-.521.07-.777.07-.49 0-.943-.082-1.358-.245a3.07 3.07 0 0 1-1.071-.728 3.4 3.4 0 0 1-.7-1.19c-.168-.471-.252-1.013-.252-1.624 0-.495.074-.957.224-1.386.154-.43.373-.8.658-1.113a2.944 2.944 0 0 1 1.043-.742c.41-.182.872-.273 1.386-.273.424 0 .816.072 1.176.217.364.14.676.345.938.616.266.266.473.597.623.994.149.392.224.84.224 1.344 0 .196-.021.327-.063.392-.042.065-.122.098-.238.098h-4.739c.014.448.074.838.182 1.169.112.331.266.609.462.833.196.22.429.385.7.497.27.107.574.161.91.161.312 0 .581-.035.805-.105a4.099 4.099 0 0 0 .994-.469.547.547 0 0 1 .287-.112c.102 0 .182.04.238.119l.35.455zM17.703 21.704c-3.414 5.868-1.244 14.774 2.532 20.174C22.119 44.578 24.027 47 26.64 47l.15-.003c1.227-.049 2.114-.423 2.972-.785.963-.407 1.959-.827 3.521-.827 1.486 0 2.435.407 3.352.8.904.387 1.835.788 3.211.762 2.944-.054 4.75-2.669 6.345-4.976a21.97 21.97 0 0 0 2.78-5.64l.012-.036a.327.327 0 0 0-.2-.412c-.519-.21-5.065-2.208-5.113-7.654-.044-4.425 3.41-6.768 4.104-7.192l.032-.02a.327.327 0 0 0 .094-.46c-2.385-3.458-6.04-3.98-7.512-4.042a6.694 6.694 0 0 0-.655-.032c-1.729 0-3.385.647-4.715 1.167-.919.358-1.712.668-2.259.668-.614 0-1.412-.313-2.336-.677-1.235-.485-2.635-1.035-4.117-1.035H26.2c-3.446.05-6.703 2.004-8.498 5.097z" fill="#3B3B69"/><path d="M40.391 7c-2.087.085-4.59 1.357-6.087 3.094-1.272 1.459-2.514 3.892-2.187 6.344a.33.33 0 0 0 .303.284c.14.011.285.017.428.017 2.04 0 4.242-1.119 5.745-2.92 1.582-1.9 2.382-4.34 2.14-6.526A.332.332 0 0 0 40.392 7z" fill="#3B3B69"/></svg>