<svg width="40" height="40" fill="none" xmlns="http://www.w3.org/2000/svg"><path d="M20 40c11.046 0 20-8.954 20-20S31.046 0 20 0 0 8.954 0 20s8.954 20 20 20z" fill="#DC4E41"/><path d="M11.925 20.895c-.162-4.252 3.563-8.181 7.819-8.232 2.17-.185 4.28.657 5.922 2.031a37.458 37.458 0 0 1-2.09 2.158c-1.446-.878-3.186-1.548-4.875-.953-2.725.775-4.375 3.992-3.367 6.658.835 2.783 4.221 4.311 6.875 3.142 1.374-.492 2.28-1.76 2.677-3.122-1.575-.032-3.15-.012-4.724-.056-.004-.937-.008-1.87-.004-2.807 2.626-.004 5.256-.012 7.886.012.161 2.296-.177 4.752-1.67 6.595-2.043 2.63-5.819 3.402-8.89 2.37-3.26-1.07-5.63-4.354-5.56-7.796z" fill="#fff"/></svg>