<svg width="85" height="85" fill="none" xmlns="http://www.w3.org/2000/svg"><path opacity=".247" d="M42.5 85C65.972 85 85 65.972 85 42.5S65.972 0 42.5 0 0 19.028 0 42.5 19.028 85 42.5 85z" fill="#7BF4BB"/><path fill-rule="evenodd" clip-rule="evenodd" d="M29.89 55.271c-2.282 0-4.132-1.775-4.132-3.965v-6.343c0-2.19 1.85-3.965 4.132-3.965 2.282 0 4.132 1.775 4.132 3.965v6.343c0 2.19-1.85 3.965-4.132 3.965zm18.405-3.756V40.998c0-2.075-1.85-3.757-4.132-3.757-2.281 0-4.131 1.682-4.131 3.757v10.517c0 2.075 1.85 3.756 4.132 3.756 2.282 0 4.131-1.681 4.131-3.756zm13.523-.104V31.335c0-2.132-1.85-3.86-4.132-3.86-2.282 0-4.132 1.728-4.132 3.86v20.076c0 2.132 1.85 3.86 4.132 3.86 2.282 0 4.132-1.728 4.132-3.86z" fill="#98F5D2"/></svg>