<svg width="85" height="85" fill="none" xmlns="http://www.w3.org/2000/svg"><path opacity=".247" d="M42.5 85C65.972 85 85 65.972 85 42.5S65.972 0 42.5 0 0 19.028 0 42.5 19.028 85 42.5 85z" fill="#FBE288"/><path fill-rule="evenodd" clip-rule="evenodd" d="M42.1 57a12.108 12.108 0 0 1-12.038-10.892 12.109 12.109 0 0 1 9.616-13.08 1.394 1.394 0 0 1 .557 2.733A9.323 9.323 0 1 0 51.24 46.766a1.394 1.394 0 1 1 2.733.558A12.14 12.14 0 0 1 42.1 57zM44 33.15v8.743c0 .611.495 1.107 1.106 1.107h8.78a1.105 1.105 0 0 0 1.106-1.24 11.063 11.063 0 0 0-9.742-9.75A1.105 1.105 0 0 0 44 33.104v.044z" fill="#FFE084"/></svg>