<svg width="85" height="86" fill="none" xmlns="http://www.w3.org/2000/svg"><path opacity=".247" d="M42.5 85.13c23.472 0 42.5-19.028 42.5-42.5S65.972.13 42.5.13 0 19.158 0 42.63s19.028 42.5 42.5 42.5z" fill="#D39DF0"/><path opacity=".345" fill-rule="evenodd" clip-rule="evenodd" d="M44.157 50.268l2.909 2.652a2.98 2.98 0 0 1-.59 4.834 3.063 3.063 0 0 1-3.527-.417l-4.37-3.972a2.836 2.836 0 0 0-3.204-.375 2.84 2.84 0 0 1-2.138.241 2.804 2.804 0 0 1-1.684-1.324l-2.024-3.611a4.124 4.124 0 0 1-.366-3.17 4.176 4.176 0 0 1 2.01-2.497l9.26-5.056a4.19 4.19 0 0 0 1.659-1.666l4.904-8.709a2.112 2.112 0 0 1 1.84-1.068c.764 0 1.469.409 1.841 1.068l10.061 17.986a2.062 2.062 0 0 1-.11 2.187 2.118 2.118 0 0 1-2.026.883l-10.286-1.389a4.257 4.257 0 0 0-2.627.486l-1.265.694a1.38 1.38 0 0 0-.267 2.222z" fill="#C763FD"/></svg>