<svg width="280" height="243" fill="none" xmlns="http://www.w3.org/2000/svg"><g opacity=".267" fill-rule="evenodd" clip-rule="evenodd" fill="#E8EFF6"><path d="M231.456 110.127c-7.038-2.063-14.076-3.11-20.922-3.11-10.572 0-19.393 2.46-26.233 5.473 6.594-24.583 22.435-67 53.992-71.776 2.923-.443 5.318-2.595 6.115-5.491l6.897-25.12a7.748 7.748 0 0 0-.953-6.242 7.486 7.486 0 0 0-5.246-3.373A51.46 51.46 0 0 0 238.05 0c-37.878 0-75.39 40.259-91.22 97.903-9.292 33.819-12.016 84.663 10.872 116.666 12.808 17.907 31.494 27.47 55.539 28.425.099.003.195.006.294.006 29.668 0 55.976-20.346 63.979-49.474 4.781-17.412 2.62-35.674-6.09-51.433-8.618-15.581-22.811-26.939-39.968-31.966z"/><path d="M131.423 142.095c-8.618-15.585-22.811-26.942-39.968-31.969-7.038-2.063-14.076-3.11-20.92-3.11-10.572 0-19.396 2.46-26.236 5.472 6.594-24.582 22.436-66.998 53.996-71.775 2.922-.442 5.314-2.594 6.115-5.49l6.897-25.12a7.748 7.748 0 0 0-.954-6.242 7.472 7.472 0 0 0-5.245-3.373A51.396 51.396 0 0 0 98.052 0C60.173 0 22.66 40.258 6.828 97.902c-9.29 33.818-12.014 84.662 10.877 116.67 12.806 17.904 31.495 27.47 55.537 28.422.099.003.195.006.297.006 29.666 0 55.977-20.346 63.98-49.473 4.775-17.413 2.611-35.677-6.096-51.432z"/></g></svg>