<svg width="32" height="32" fill="none" xmlns="http://www.w3.org/2000/svg"><path d="M16.675 14.283v8.16h-1.72v-8.16h1.72zm.288-2.464c0 .154-.032.301-.096.44a1.146 1.146 0 0 1-.248.368 1.315 1.315 0 0 1-.376.248 1.137 1.137 0 0 1-.448.088c-.155 0-.302-.03-.44-.088a1.272 1.272 0 0 1-.352-.248 1.352 1.352 0 0 1-.248-.368 1.118 1.118 0 0 1-.088-.44c0-.16.029-.31.088-.448a1.239 1.239 0 0 1 .6-.608c.138-.064.285-.096.44-.096.16 0 .309.032.448.096.144.058.269.141.376.248.106.101.189.221.248.36.064.138.096.288.096.448z" fill="#fff"/><path fill-rule="evenodd" clip-rule="evenodd" d="M16 28c6.627 0 12-5.373 12-12S22.627 4 16 4 4 9.373 4 16s5.373 12 12 12zm0 1.333c-7.364 0-13.333-5.97-13.333-13.333C2.667 8.636 8.637 2.667 16 2.667c7.364 0 13.333 5.97 13.333 13.333 0 7.364-5.97 13.333-13.333 13.333z" fill="#fff"/></svg>