<svg width="16" height="16" fill="none" xmlns="http://www.w3.org/2000/svg"><path fill-rule="evenodd" clip-rule="evenodd" d="M13.947 0H2.054A2.06 2.06 0 0 0 0 2.054v11.892a2.06 2.06 0 0 0 2.054 2.053h11.893c1.13 0 2.053-.924 2.053-2.053V2.054A2.06 2.06 0 0 0 13.947 0zm-3.011 2.497c0-.397.323-.722.72-.722h1.808c.396 0 .72.325.72.722V4.22c0 .397-.324.72-.72.72h-1.808a.722.722 0 0 1-.72-.72V2.497zm3.255 4.269h-1.408c.134.436.206.895.206 1.373 0 2.66-2.227 4.819-4.974 4.819-2.746 0-4.973-2.158-4.973-4.819a4.7 4.7 0 0 1 .205-1.373H1.78v6.759c0 .35.285.634.635.634h11.142c.35 0 .635-.284.635-.634v-6.76zm-9.389 1.2c0-1.72 1.44-3.114 3.213-3.114 1.775 0 3.214 1.393 3.214 3.114 0 1.718-1.44 3.113-3.214 3.113S4.802 9.684 4.802 7.966z" fill="#fff"/></svg>