<svg width="89" height="124" fill="none" xmlns="http://www.w3.org/2000/svg"><g clip-path="url(#clip0)" fill="#fff"><path d="M44.92 0C22.246 0 3.864 18.565 3.864 41.471c0 22.907 18.382 41.47 41.056 41.47 22.674 0 41.056-18.564 41.056-41.47C85.976 18.566 67.596 0 44.92 0zm-.41 3.863c17.935 0 32.904 12.82 36.412 29.885a.628.628 0 0 1-.335.687.61.61 0 0 1-.742-.162c-3.608-4.402-8.967-9.959-15.657-14.04l.018.012a42.104 42.104 0 0 0-6.403-3.22.028.028 0 0 0-.015 0 34.874 34.874 0 0 0-3.404-1.158l-.1-.029a33.706 33.706 0 0 0-2.269-.553c-.032-.006-.067-.015-.099-.02-.37-.077-.74-.144-1.113-.206l-.165-.028a25.256 25.256 0 0 0-2.286-.28c-.094-.012-.189-.015-.283-.032a3.84 3.84 0 0 0-.804-.059h-.417a31.92 31.92 0 0 0-1.16-.024h-.182c-.15 0-.301 0-.45.006-.21 0-.417.014-.625.022-13.9.669-24.962 12.4-24.962 26.774a27.102 27.102 0 0 0 2.433 11.288 26.849 26.849 0 0 0 6.9 9.214.113.113 0 0 1-.056.193.11.11 0 0 1-.079-.015 26.884 26.884 0 0 1-7.663-7.912 27.176 27.176 0 0 1-3.877-10.352 27.275 27.275 0 0 1 .559-11.054 27.116 27.116 0 0 1 4.901-9.9c.39-.496-.222-1.16-.736-.796-5.363 3.795-9.716 8.381-12.797 12.135-.363.444-1.068.096-.953-.47C11.6 16.694 26.57 3.864 44.51 3.864zm13.93 31.69h-4.362a.339.339 0 0 0-.241.1.345.345 0 0 0-.1.243v10.22a.346.346 0 0 1-.1.243.339.339 0 0 1-.24.1h-.808a.339.339 0 0 1-.24-.1.345.345 0 0 1-.1-.243V42.31a.346.346 0 0 0-.1-.243.339.339 0 0 0-.24-.101h-.98a.34.34 0 0 1-.24-.101.346.346 0 0 1-.1-.243V39.01a.347.347 0 0 0-.116-.259l-2.292-2.015a.341.341 0 0 0-.447 0l-2.292 2.015a.344.344 0 0 0-.117.259v2.612a.348.348 0 0 1-.21.318.337.337 0 0 1-.13.026h-.974a.339.339 0 0 0-.24.1.346.346 0 0 0-.1.244v6.276a.345.345 0 0 1-.1.243.339.339 0 0 1-.24.1h-.837a.337.337 0 0 1-.315-.212.345.345 0 0 1-.026-.131v-9.98a.347.347 0 0 0-.1-.243.34.34 0 0 0-.241-.1h-1.954a.334.334 0 0 1-.24-.101.342.342 0 0 1-.1-.244v-7.004a.345.345 0 0 0-.168-.297.338.338 0 0 0-.339-.003L34.428 33.2a.342.342 0 0 0-.175.3v9.536a.346.346 0 0 1-.1.244.338.338 0 0 1-.24.1h-1.04a.34.34 0 0 1-.34-.344v-3.791a.346.346 0 0 0-.1-.243.339.339 0 0 0-.241-.1h-1.19a.339.339 0 0 1-.24-.102.345.345 0 0 1-.1-.243v-1.05a.346.346 0 0 0-.1-.243.339.339 0 0 0-.24-.101h-2.534c1.882-7.515 8.62-13.076 16.641-13.076 3.533 0 6.98 1.1 9.872 3.151a17.331 17.331 0 0 1 6.286 8.31 17.465 17.465 0 0 1 .991 6.808c-.444 8.588-7.203 15.64-15.686 16.352a16.976 16.976 0 0 1-10.851-2.77.142.142 0 0 1-.05-.186.14.14 0 0 1 .18-.065 16.899 16.899 0 0 0 6.595 1.338c9.482 0 17.172-7.768 17.172-17.346a17.487 17.487 0 0 0-.498-4.126zM44.51 79C26.525 79 11.523 66.106 8.067 48.968a.562.562 0 0 1 .296-.617.546.546 0 0 1 .664.14c6.581 7.942 18.918 19.742 34.145 19.742.421 0 .84-.011 1.257-.031.418.02.836.031 1.258.031 15.454 0 27.934-12.157 34.437-20.095a.517.517 0 0 1 .905.44C77.724 65.908 62.632 79 44.51 79zm-24.852 32.096a.836.836 0 0 1-.254.279.654.654 0 0 1-.343.082 1.084 1.084 0 0 1-.53-.165 10.725 10.725 0 0 0-.7-.361 6.751 6.751 0 0 0-.962-.362 4.576 4.576 0 0 0-1.311-.165 3.86 3.86 0 0 0-1.14.157c-.315.091-.61.239-.872.437a1.95 1.95 0 0 0-.552.662 1.81 1.81 0 0 0-.19.822c-.011.348.109.687.336.948.25.27.549.49.88.648a8.6 8.6 0 0 0 1.237.489c.462.145.935.298 1.418.459.484.161.957.344 1.419.549.446.195.862.453 1.237.764.363.307.662.683.88 1.107.224.432.336.959.336 1.581a5.096 5.096 0 0 1-.379 1.981 4.32 4.32 0 0 1-1.118 1.573 5.272 5.272 0 0 1-1.841 1.043 7.599 7.599 0 0 1-2.49.376 7.773 7.773 0 0 1-2.891-.527 7.234 7.234 0 0 1-2.222-1.337l.686-1.13a.796.796 0 0 1 .774-.437c.211.008.415.081.582.211.199.141.437.293.716.459.321.185.661.337 1.013.452.483.148.987.216 1.492.203a4.05 4.05 0 0 0 1.297-.191c.336-.108.647-.282.916-.512.235-.204.42-.458.545-.745a2.24 2.24 0 0 0 .178-.889 1.505 1.505 0 0 0-.335-1.001 2.89 2.89 0 0 0-.88-.685 7.077 7.077 0 0 0-1.245-.497c-.467-.14-.944-.291-1.43-.451a14.711 14.711 0 0 1-1.432-.558 4.871 4.871 0 0 1-1.24-.801 3.693 3.693 0 0 1-.88-1.174c-.224-.462-.336-1.024-.336-1.687a4.098 4.098 0 0 1 .365-1.701 4.225 4.225 0 0 1 1.059-1.432 5.204 5.204 0 0 1 1.714-.978 6.861 6.861 0 0 1 2.333-.369 7.31 7.31 0 0 1 2.72.478 6.218 6.218 0 0 1 2.08 1.325l-.64 1.07zm13.922.226a1.603 1.603 0 0 1-.26.263.59.59 0 0 1-.365.096.866.866 0 0 1-.5-.192 6.528 6.528 0 0 0-.655-.406 5.735 5.735 0 0 0-.954-.406 4.916 4.916 0 0 0-3.273.202 3.654 3.654 0 0 0-1.364 1.115 5.124 5.124 0 0 0-.827 1.762 8.856 8.856 0 0 0-.284 2.333 8.73 8.73 0 0 0 .298 2.388c.17.637.459 1.235.851 1.762.354.465.815.837 1.342 1.084a4.105 4.105 0 0 0 1.759.369c.626 0 1.143-.078 1.55-.233a5.05 5.05 0 0 0 1.014-.505c.234-.154.458-.323.671-.505a.839.839 0 0 1 .552-.233.639.639 0 0 1 .551.271l.835 1.084a5.63 5.63 0 0 1-1.17 1.1c-.43.299-.893.547-1.38.738a7.845 7.845 0 0 1-1.524.426 9.525 9.525 0 0 1-1.617.135 6.637 6.637 0 0 1-2.648-.527 5.986 5.986 0 0 1-2.131-1.536 7.355 7.355 0 0 1-1.424-2.476c-.348-.979-.522-2.091-.522-3.336a10.12 10.12 0 0 1 .473-3.152 7.033 7.033 0 0 1 1.386-2.492 6.412 6.412 0 0 1 2.258-1.641c.894-.396 1.918-.594 3.07-.594 1.084 0 2.038.175 2.863.527.823.35 1.572.855 2.207 1.49l-.781 1.089zm15.102 10.259a5.754 5.754 0 0 1-1.238 1.091 7.092 7.092 0 0 1-1.49.746 9.106 9.106 0 0 1-1.633.422c-.55.089-1.105.134-1.662.135a7.713 7.713 0 0 1-2.899-.535 6.422 6.422 0 0 1-2.31-1.566 7.125 7.125 0 0 1-1.521-2.56c-.363-1.018-.545-2.19-.545-3.515a8.78 8.78 0 0 1 .493-2.974 7.16 7.16 0 0 1 1.408-2.401 6.515 6.515 0 0 1 2.243-1.613 7.308 7.308 0 0 1 2.982-.586 6.94 6.94 0 0 1 2.553.459 5.675 5.675 0 0 1 2.025 1.328 6.164 6.164 0 0 1 1.335 2.153c.322.854.484 1.827.484 2.921 0 .452-.05.756-.15.911-.099.156-.282.233-.55.233h-9.929c.013.811.143 1.616.388 2.388.198.624.52 1.201.946 1.694a3.75 3.75 0 0 0 1.438 1.009 5.01 5.01 0 0 0 1.863.331 5.536 5.536 0 0 0 1.678-.226c.42-.129.829-.293 1.222-.489.343-.176.63-.339.865-.489.18-.132.395-.211.618-.226a.64.64 0 0 1 .552.271l.834 1.088zm-2.4-7.163a5.052 5.052 0 0 0-.246-1.611 3.658 3.658 0 0 0-.723-1.279 3.297 3.297 0 0 0-1.163-.844 3.895 3.895 0 0 0-1.58-.301c-1.222 0-2.184.356-2.885 1.068-.7.713-1.145 1.698-1.334 2.957l7.93.01zm7.766-3.834c.321-.344.665-.666 1.029-.964a6.44 6.44 0 0 1 1.14-.745 6.025 6.025 0 0 1 2.78-.655c.835 0 1.568.141 2.2.421a4.377 4.377 0 0 1 1.587 1.183c.443.537.773 1.159.97 1.829.225.767.336 1.564.327 2.364v9.741h-2.923v-9.741c0-1.094-.248-1.944-.745-2.552-.496-.608-1.256-.912-2.28-.911a4.29 4.29 0 0 0-2.095.534c-.68.379-1.292.87-1.811 1.453v11.218H51.32v-15.298h1.744c.407 0 .66.196.756.587l.228 1.536zm25.671 10.997c-.36.42-.777.786-1.24 1.087a7.181 7.181 0 0 1-1.49.746 9.14 9.14 0 0 1-1.63.421 10.41 10.41 0 0 1-1.663.134 7.753 7.753 0 0 1-2.9-.535 6.425 6.425 0 0 1-2.31-1.567 7.148 7.148 0 0 1-1.52-2.559c-.364-1.019-.545-2.191-.544-3.516a8.774 8.774 0 0 1 .491-2.974 7.162 7.162 0 0 1 1.409-2.401 6.493 6.493 0 0 1 2.244-1.612 7.309 7.309 0 0 1 2.981-.587 6.922 6.922 0 0 1 2.553.46c.76.293 1.449.747 2.02 1.332a6.18 6.18 0 0 1 1.334 2.153c.323.854.485 1.828.484 2.921 0 .452-.05.756-.148.912-.1.155-.284.233-.553.233H69.31c.013.81.143 1.615.388 2.387.198.624.52 1.2.945 1.695.395.446.888.791 1.44 1.008a5.02 5.02 0 0 0 1.862.332 5.537 5.537 0 0 0 1.678-.227c.42-.129.828-.293 1.222-.489.343-.176.631-.339.864-.489a1.18 1.18 0 0 1 .62-.226.639.639 0 0 1 .551.271l.84 1.09zm-2.4-7.163a5.043 5.043 0 0 0-.247-1.61 3.654 3.654 0 0 0-.722-1.28 3.297 3.297 0 0 0-1.163-.844 3.895 3.895 0 0 0-1.58-.301c-1.223 0-2.185.356-2.885 1.068-.7.713-1.145 1.702-1.334 2.967h7.93zM4.021 95.965v3.126H2.866v-3.126L0 91.187h1.02a.376.376 0 0 1 .244.075.572.572 0 0 1 .152.191l1.702 2.956a5.793 5.793 0 0 1 .339.739 5.548 5.548 0 0 1 .321-.739l1.695-2.956c.04-.07.09-.132.15-.184a.353.353 0 0 1 .242-.085h1.022l-2.866 4.78zm10.575-.825a4.57 4.57 0 0 1-.283 1.623c-.177.476-.446.91-.794 1.277a3.556 3.556 0 0 1-1.229.834 4.374 4.374 0 0 1-3.168 0 3.533 3.533 0 0 1-1.23-.834 3.815 3.815 0 0 1-.792-1.277 4.796 4.796 0 0 1 0-3.247 3.81 3.81 0 0 1 .792-1.279 3.567 3.567 0 0 1 1.23-.837c1.019-.4 2.15-.4 3.168 0 .463.19.882.475 1.23.837.347.368.617.803.793 1.279.191.52.288 1.07.283 1.624zm-1.187 0a3.935 3.935 0 0 0-.19-1.267 2.711 2.711 0 0 0-.542-.955 2.358 2.358 0 0 0-.851-.6 3.073 3.073 0 0 0-2.229 0 2.38 2.38 0 0 0-.85.6 2.687 2.687 0 0 0-.546.955 4.318 4.318 0 0 0 0 2.534c.114.351.3.675.545.95.236.26.527.465.851.597.718.275 1.51.275 2.229 0 .325-.131.616-.336.85-.598a2.7 2.7 0 0 0 .544-.95c.132-.408.196-.836.189-1.266zm5.584 3.009c.288.005.574-.05.84-.16.239-.1.453-.253.627-.447.174-.201.307-.435.391-.689.094-.285.14-.583.136-.883v-4.782h1.156v4.781a3.66 3.66 0 0 1-.219 1.283c-.137.38-.35.726-.626 1.018-.28.291-.618.519-.992.669a3.677 3.677 0 0 1-2.626 0 2.87 2.87 0 0 1-.991-.669 2.944 2.944 0 0 1-.627-1.018 3.68 3.68 0 0 1-.218-1.282v-4.782h1.16v4.775c-.003.3.042.6.134.886.082.255.214.49.39.69.173.196.387.35.626.451.266.11.552.165.84.159zm10.744.941h-1.034a.483.483 0 0 1-.453-.247l-1.934-2.74a.598.598 0 0 0-.201-.197.73.73 0 0 0-.327-.057h-.757v3.242h-1.16v-7.903h2.254a4.8 4.8 0 0 1 1.305.156c.328.086.636.238.905.446.23.184.412.423.528.696.118.29.176.6.172.913a2.36 2.36 0 0 1-.125.777c-.082.238-.207.46-.368.652a2.335 2.335 0 0 1-.592.498 2.886 2.886 0 0 1-.79.319c.152.094.281.22.379.37l2.198 3.076zm-3.65-4.094c.267.005.532-.033.787-.11a1.62 1.62 0 0 0 .567-.31c.15-.13.268-.294.344-.478a1.61 1.61 0 0 0 .115-.614c0-.455-.148-.798-.444-1.03-.297-.23-.74-.346-1.333-.346H25.03v2.89l1.057-.002zm12.652 2.399a.22.22 0 0 1 .168.078l.458.506c-.319.38-.718.683-1.169.885-.525.222-1.09.33-1.658.315a3.852 3.852 0 0 1-1.54-.297 3.402 3.402 0 0 1-1.177-.831 3.738 3.738 0 0 1-.756-1.277 4.808 4.808 0 0 1-.267-1.634 4.607 4.607 0 0 1 .284-1.636c.175-.474.442-.909.787-1.276.342-.358.755-.64 1.21-.828a3.988 3.988 0 0 1 1.562-.297 3.76 3.76 0 0 1 1.481.276c.417.173.8.42 1.128.731l-.378.546a.326.326 0 0 1-.094.095.263.263 0 0 1-.15.04.428.428 0 0 1-.243-.106 3.753 3.753 0 0 0-.365-.233 2.647 2.647 0 0 0-1.387-.339 2.698 2.698 0 0 0-1.068.206 2.354 2.354 0 0 0-.835.595 2.707 2.707 0 0 0-.546.955 3.927 3.927 0 0 0-.189 1.275c-.007.436.061.87.201 1.282.121.353.31.677.556.955.232.257.516.46.833.594.33.138.684.207 1.04.204.204.001.407-.012.608-.041a2.63 2.63 0 0 0 .496-.124c.15-.055.293-.126.427-.212.142-.092.275-.196.398-.311a.416.416 0 0 1 .095-.063.232.232 0 0 1 .09-.032zm2.854 1.695h-1.166v-7.903h1.166v7.904zm7.154-6.925h-2.484v6.923h-1.155v-6.923h-2.496v-.978h6.135v.978zm4.064 3.8v3.126h-1.155v-3.126l-2.866-4.776h1.02a.376.376 0 0 1 .244.075.565.565 0 0 1 .153.19l1.702 2.957c.068.135.132.263.19.382.057.118.106.24.15.357a4.75 4.75 0 0 1 .139-.357 6.27 6.27 0 0 1 .182-.382l1.695-2.956a.7.7 0 0 1 .149-.184.354.354 0 0 1 .243-.085h1.024l-2.87 4.779zM55.9 99.09a.655.655 0 0 1-.62-.437.827.827 0 0 1-.049-.286.62.62 0 0 1 .187-.456.67.67 0 0 1 .216-.141.772.772 0 0 1 .585.01.62.62 0 0 1 .224.176.785.785 0 0 1 .134.262c.029.103.043.21.043.319a2.097 2.097 0 0 1-.07.523c-.05.189-.12.371-.208.545a3.037 3.037 0 0 1-.338.523c-.136.171-.29.328-.457.468l-.18-.171a.231.231 0 0 1-.082-.171.155.155 0 0 1 .025-.079.357.357 0 0 1 .062-.08l.142-.16a2.123 2.123 0 0 0 .33-.515c.05-.105.085-.217.106-.332l-.05.003zm7.383-3.125v3.126h-1.155v-3.126l-2.866-4.776h1.02a.376.376 0 0 1 .244.075.571.571 0 0 1 .153.19l1.702 2.957c.068.135.132.263.19.382.057.118.106.24.15.357a4.75 4.75 0 0 1 .139-.357 6.27 6.27 0 0 1 .182-.382l1.695-2.956a.71.71 0 0 1 .149-.184.352.352 0 0 1 .243-.085h1.024l-2.87 4.779zm10.576-.825a4.547 4.547 0 0 1-.284 1.623c-.175.476-.445.91-.792 1.277a3.57 3.57 0 0 1-1.23.834 4.374 4.374 0 0 1-3.168 0 3.52 3.52 0 0 1-1.229-.834 3.816 3.816 0 0 1-.793-1.277 4.811 4.811 0 0 1 0-3.247c.177-.476.447-.91.793-1.279a3.553 3.553 0 0 1 1.23-.837c1.018-.4 2.149-.4 3.168 0 .462.19.881.475 1.229.837.347.368.617.803.792 1.279a4.56 4.56 0 0 1 .284 1.624zm-1.188 0a3.93 3.93 0 0 0-.189-1.267 2.724 2.724 0 0 0-.541-.955 2.364 2.364 0 0 0-.852-.6 3.073 3.073 0 0 0-2.228 0c-.324.135-.615.34-.851.6a2.669 2.669 0 0 0-.545.955 4.296 4.296 0 0 0 0 2.534c.114.351.3.675.545.95.236.26.526.465.85.597a3.117 3.117 0 0 0 2.23 0c.324-.132.615-.336.85-.598a2.71 2.71 0 0 0 .542-.95c.132-.408.196-.836.19-1.266zm5.585 3.01c.287.004.573-.05.839-.16.239-.101.453-.254.627-.448.175-.201.308-.435.392-.689.094-.285.14-.583.136-.883v-4.782h1.155v4.782c.004.437-.07.871-.218 1.282a2.834 2.834 0 0 1-1.619 1.687 3.674 3.674 0 0 1-2.626 0 2.864 2.864 0 0 1-.991-.669 2.93 2.93 0 0 1-.626-1.018 3.661 3.661 0 0 1-.219-1.282v-4.782h1.16v4.775c-.003.3.043.6.135.886.081.255.214.49.39.69.172.195.386.348.625.449.266.11.552.166.84.161zM89 99.09h-1.04a.48.48 0 0 1-.452-.246l-1.935-2.742a.582.582 0 0 0-.201-.195.724.724 0 0 0-.327-.058h-.757v3.242h-1.156v-7.903h2.255c.44-.008.88.044 1.306.156.328.086.635.238.904.446.23.184.413.423.528.696.118.29.177.6.172.913.002.265-.04.527-.125.777a2.06 2.06 0 0 1-.368.652 2.333 2.333 0 0 1-.591.498 2.892 2.892 0 0 1-.79.319c.151.093.28.22.378.37L89 99.09zm-3.65-4.094a2.56 2.56 0 0 0 .787-.11c.208-.064.4-.17.567-.31.15-.13.267-.294.343-.478.079-.195.118-.403.115-.614 0-.455-.148-.798-.445-1.03-.296-.23-.74-.346-1.332-.346h-1.093v2.89l1.057-.002z"/></g><defs><clipPath id="clip0"><path fill="#fff" d="M0 0h89v124H0z"/></clipPath></defs></svg>