<svg width="36" height="36" fill="none" xmlns="http://www.w3.org/2000/svg"><g clip-path="url(#clip0)"><circle cx="18" cy="18" r="17.5" stroke="#fff"/><path d="M17.918 26.75h-.3c-5.869-.2-10.3-6.233-11.533-8.1a.479.479 0 0 1 0-.546c1.228-1.843 5.642-7.894 11.533-8.1 4.163-.115 8.1 2.593 11.83 8.075a.516.516 0 0 1 0 .57c-3.636 5.37-7.503 8.1-11.53 8.1zM7.135 18.378c1.365 2 5.391 7.189 10.532 7.37 3.685.16 7.3-2.366 10.76-7.37-3.458-5-7.075-7.53-10.76-7.37-5.14.182-9.166 5.369-10.53 7.37h-.002z" fill="#fff"/><path d="M17.786 22.745a4.368 4.368 0 1 1-.132-8.735 4.368 4.368 0 0 1 .132 8.736zm0-7.734a3.367 3.367 0 1 0 0 6.736 3.367 3.367 0 0 0 0-6.736z" fill="#fff"/><path d="M17.918 26.75h-.3c-5.869-.2-10.3-6.233-11.533-8.1a.479.479 0 0 1 0-.546c1.228-1.843 5.642-7.894 11.533-8.1 4.163-.115 8.1 2.593 11.83 8.075a.516.516 0 0 1 0 .57c-3.636 5.37-7.503 8.1-11.53 8.1zM7.135 18.378c1.365 2 5.391 7.189 10.532 7.37 3.685.16 7.3-2.366 10.76-7.37-3.458-5-7.075-7.53-10.76-7.37-5.14.182-9.166 5.369-10.53 7.37h-.002z" stroke="#fff"/><path d="M17.786 22.745a4.368 4.368 0 1 1-.132-8.735 4.368 4.368 0 0 1 .132 8.736zm0-7.734a3.367 3.367 0 1 0 0 6.736 3.367 3.367 0 0 0 0-6.736z" stroke="#fff"/></g><defs><clipPath id="clip0"><path fill="#fff" d="M0 0h36v36H0z"/></clipPath></defs></svg>