<svg width="36" height="36" fill="none" xmlns="http://www.w3.org/2000/svg"><g clip-path="url(#clip0)"><circle cx="18" cy="18" r="17.5" stroke="#fff"/><path d="M18.215 13.564a4.651 4.651 0 1 0 4.666 4.651 4.657 4.657 0 0 0-4.666-4.651zm0 8.346a3.688 3.688 0 1 1 .024-7.376 3.688 3.688 0 0 1-.024 7.376z" fill="#fff"/><path d="M18.216 10.275a7.941 7.941 0 1 0 7.959 7.941 7.953 7.953 0 0 0-7.959-7.941zm0 14.925a6.977 6.977 0 1 1 .014-13.954 6.977 6.977 0 0 1-.014 13.954z" fill="#fff"/><path d="M18.216 7C12.019 7.004 6.999 12.029 7 18.225c.001 6.197 5.024 11.22 11.22 11.221 6.197.001 11.222-5.02 11.226-11.216-.006-6.2-5.03-11.224-11.23-11.23zm0 21.489c-5.67.004-10.27-4.59-10.273-10.259-.004-5.67 4.59-10.27 10.259-10.273 5.67-.004 10.27 4.59 10.273 10.259.002 5.67-4.59 10.267-10.259 10.273z" fill="#fff"/><path d="M18.215 13.564a4.651 4.651 0 1 0 4.666 4.651 4.657 4.657 0 0 0-4.666-4.651zm0 8.346a3.688 3.688 0 1 1 .024-7.376 3.688 3.688 0 0 1-.024 7.376z" stroke="#fff" stroke-width=".5"/><path d="M18.216 10.275a7.941 7.941 0 1 0 7.959 7.941 7.953 7.953 0 0 0-7.959-7.941zm0 14.925a6.977 6.977 0 1 1 .014-13.954 6.977 6.977 0 0 1-.014 13.954z" stroke="#fff" stroke-width=".5"/><path d="M18.216 7C12.019 7.004 6.999 12.029 7 18.225c.001 6.197 5.024 11.22 11.22 11.221 6.197.001 11.222-5.02 11.226-11.216-.006-6.2-5.03-11.224-11.23-11.23zm0 21.489c-5.67.004-10.27-4.59-10.273-10.259-.004-5.67 4.59-10.27 10.259-10.273 5.67-.004 10.27 4.59 10.273 10.259.002 5.67-4.59 10.267-10.259 10.273z" stroke="#fff" stroke-width=".5"/></g><defs><clipPath id="clip0"><path fill="#fff" d="M0 0h36v36H0z"/></clipPath></defs></svg>