<svg width="16" height="19" fill="none" xmlns="http://www.w3.org/2000/svg"><path d="M8 19a.694.694 0 0 1-.493-.202s-2.304-2.262-3.924-3.868C1.17 12.544 0 10.247 0 7.907 0 3.54 3.582 0 8 0s8 3.54 8 7.907c0 2.338-1.17 4.637-3.585 7.029-1.65 1.632-3.924 3.864-3.924 3.864A.679.679 0 0 1 8 19zM8 1.384c-3.647 0-6.603 2.922-6.603 6.527 0 1.948 1.04 3.93 3.176 6.047 1.155 1.142 2.661 2.623 3.428 3.377.763-.749 2.252-2.215 3.428-3.377C13.566 11.84 14.6 9.867 14.6 7.911c-.004-3.602-2.956-6.52-6.6-6.527zm0 10.453c-2.193 0-3.97-1.757-3.97-3.924 0-2.168 1.777-3.925 3.97-3.925 2.193 0 3.97 1.757 3.97 3.925-.002 2.166-1.778 3.922-3.97 3.924zm0-6.47c-1.42 0-2.57 1.137-2.57 2.54s1.15 2.54 2.57 2.54 2.57-1.137 2.57-2.54C10.568 6.505 9.418 5.369 8 5.367z" fill="#3B3B69"/></svg>