<svg width="45" height="61" fill="none" xmlns="http://www.w3.org/2000/svg"><ellipse cx="22.277" cy="23.001" rx="11.963" ry="12" fill="#F36"/><path d="M22.276.998c-12.091 0-21.93 9.87-21.93 22 0 3.165.646 6.186 1.918 8.98C7.747 44.016 18.26 56.722 21.352 60.33a1.22 1.22 0 0 0 1.85 0c3.09-3.607 13.604-16.314 19.089-28.351 1.273-2.795 1.918-5.816 1.918-8.98C44.208 10.866 34.369.997 22.276.997zm0 33.427c-6.28 0-11.392-5.126-11.392-11.427 0-6.302 5.111-11.429 11.392-11.429 6.282 0 11.393 5.127 11.393 11.429 0 6.3-5.11 11.427-11.392 11.427z" fill="#F36" opacity=".6"/></svg>