<svg width="45" height="61" fill="none" xmlns="http://www.w3.org/2000/svg"><ellipse cx="22.681" cy="23.001" rx="11.963" ry="12" fill="#3C3C69"/><path d="M22.681.999c-12.092 0-21.93 9.869-21.93 22 0 3.164.645 6.185 1.918 8.98C8.152 44.015 18.665 56.723 21.757 60.33a1.22 1.22 0 0 0 1.85 0c3.09-3.607 13.604-16.314 19.089-28.351 1.273-2.795 1.918-5.816 1.918-8.98-.002-12.131-9.84-22-21.933-22zm0 33.427c-6.281 0-11.392-5.127-11.392-11.428 0-6.301 5.111-11.428 11.392-11.428 6.282 0 11.392 5.127 11.392 11.428 0 6.301-5.11 11.428-11.392 11.428z" fill="#3C3C69" opacity=".6"/></svg>