<svg width="45" height="60" fill="none" xmlns="http://www.w3.org/2000/svg"><ellipse cx="22.352" cy="21.999" rx="11.963" ry="12" fill="#FAA740"/><path d="M22.351 0C10.26 0 .421 9.87.421 22c0 3.165.645 6.186 1.918 8.98 5.483 12.037 15.996 24.744 19.088 28.352a1.22 1.22 0 0 0 1.85 0c3.09-3.607 13.603-16.314 19.089-28.352 1.273-2.794 1.918-5.816 1.918-8.98-.002-12.13-9.84-22-21.933-22zm0 33.427C16.07 33.427 10.96 28.301 10.96 22c0-6.302 5.11-11.429 11.392-11.429 6.282 0 11.392 5.127 11.392 11.429 0 6.3-5.11 11.427-11.392 11.427z" fill="#FAA740" opacity=".6"/></svg>