<svg width="24" height="24" fill="none" xmlns="http://www.w3.org/2000/svg"><path d="M22.6 9.4l-7.8-2.2c.1-1.1.1-1.9.1-1.9A3.165 3.165 0 0 0 12.2 2c-1.5 0-2.7 1.5-2.7 3.4 0 .601.033 1.202.1 1.8L1.8 9.4c-.462.114-.79.524-.8 1v1.3c.035.537.463.965 1 1h7.9c.1 1.5.2 2.8.3 3.9h-.1l-2.4 1.5c-.4.258-.598.735-.5 1.2l.2.8c.121.457.527.782 1 .8h.2l2.4-.5a1.63 1.63 0 0 0 1.3 1.1 1.482 1.482 0 0 0 1.3-1.1l2.4.5h.2c.476-.01.886-.338 1-.8l.2-.8c.098-.465-.1-.942-.5-1.2l-2.4-1.5h-.1c.1-1.1.2-2.4.3-3.9h7.9a1.071 1.071 0 0 0 1-1v-1.3a1.949 1.949 0 0 0-1-1zM9.8 11.7H2.1v-1.2l7.6-2.1v1.8c-.021.37.013.74.1 1.1v.4zm-1.4 8.1l-.1-.8 2-1.3v.1l.1.5a.9.9 0 0 0 .1.5c.024.168.057.335.1.5v.1l-2.2.4zm3.8.7c-.1 0-.2-.2-.3-.6 0-.1-.1-.2-.1-.3v-.1a.367.367 0 0 0-.1-.3c0-.1-.1-.3-.1-.4v-.1l-.1-.5-.1-.7c-.2-1.6-.4-3.6-.5-6.2a3.77 3.77 0 0 0-.1-1.1 8.868 8.868 0 0 0-.1-1.3V7.7c-.1-1.2-.1-2-.1-2.3 0-1.2.7-2.2 1.6-2.2.9 0 1.6 1 1.6 2.2 0 .1 0 1-.1 2.3v.8c0 .8-.1 1.8-.2 2.8-.2 2.7-.4 4.8-.6 6.4v.1l-.1.4c-.1.3-.1.7-.2.9a1.445 1.445 0 0 1-.2.7c.1.4-.1.7-.2.7zm3.9-1.4l-.2.7-2.2-.4v-.1l.1-.4.2-1 2.1 1.2zm6.3-7.4h-7.8v-.3c.1-1 .1-2.5.1-2.5v-.5l7.6 2.1.1 1.2z" fill="#3B3B69"/></svg>