<svg width="24" height="24" fill="none" xmlns="http://www.w3.org/2000/svg"><path d="M20 7.538c-.589.26-1.22.438-1.885.517a3.296 3.296 0 0 0 1.443-1.815 6.616 6.616 0 0 1-2.086.797 3.282 3.282 0 0 0-5.593 2.992A9.319 9.319 0 0 1 5.115 6.6a3.257 3.257 0 0 0-.444 1.65 3.28 3.28 0 0 0 1.46 2.732 3.28 3.28 0 0 1-1.487-.412v.041a3.285 3.285 0 0 0 2.632 3.219 3.324 3.324 0 0 1-.864.114 3.15 3.15 0 0 1-.618-.06 3.284 3.284 0 0 0 3.065 2.28 6.586 6.586 0 0 1-4.076 1.402c-.265 0-.526-.016-.783-.045a9.277 9.277 0 0 0 5.031 1.477c6.038 0 9.338-5.002 9.338-9.339l-.01-.425A6.555 6.555 0 0 0 20 7.538z" fill="#fff"/></svg>