<svg width="40" height="40" fill="none" xmlns="http://www.w3.org/2000/svg"><path d="M20 40c11.046 0 20-8.954 20-20S31.046 0 20 0 0 8.954 0 20s8.954 20 20 20z" fill="#55ACEE"/><path d="M32.25 14.373a9.537 9.537 0 0 1-2.745.752 4.793 4.793 0 0 0 2.102-2.644 9.57 9.57 0 0 1-3.036 1.16 4.776 4.776 0 0 0-3.49-1.51 4.781 4.781 0 0 0-4.656 5.87 13.57 13.57 0 0 1-9.854-4.995 4.78 4.78 0 0 0 1.48 6.383 4.747 4.747 0 0 1-2.166-.599v.06a4.783 4.783 0 0 0 3.835 4.688 4.764 4.764 0 0 1-2.159.083 4.785 4.785 0 0 0 4.466 3.32 9.592 9.592 0 0 1-5.938 2.046 9.62 9.62 0 0 1-1.14-.067 13.522 13.522 0 0 0 7.328 2.148c8.793 0 13.602-7.284 13.602-13.602 0-.207-.005-.414-.014-.618a9.694 9.694 0 0 0 2.386-2.475z" fill="#F1F2F2"/></svg>