<svg width="24" height="24" fill="none" xmlns="http://www.w3.org/2000/svg"><path fill-rule="evenodd" clip-rule="evenodd" d="M18.82 5.117c1.199.069 1.788.25 2.33 1.232.565.981.85 2.672.85 5.649v.01c0 2.963-.285 4.666-.849 5.637-.542.982-1.131 1.16-2.33 1.243-1.199.07-4.21.112-6.819.112-2.613 0-5.626-.042-6.823-.113-1.197-.083-1.785-.261-2.333-1.244C2.288 16.673 2 14.97 2 12.006v-.01c0-2.975.288-4.666.846-5.647.548-.984 1.138-1.163 2.334-1.233C6.376 5.034 9.389 5 12.002 5c2.61 0 5.62.034 6.818.117zM15.75 12L9.5 8.18v7.636l6.25-3.818z" fill="#fff"/></svg>