<svg width="190" height="54" viewBox="0 0 190 54" fill="none" xmlns="http://www.w3.org/2000/svg">
    <rect x="0.5" y="0.5" width="189" height="53" rx="3.5" stroke="#3B3B69"/>
    <path d="M74.33 38.6L72.35 33.34C72.19 32.9333 72.0267 32.4167 71.86 31.79C71.7867 32.1033 71.7067 32.3933 71.62 32.66C71.5333 32.92 71.4533 33.15 71.38 33.35L69.4 38.6H74.33ZM78.76 44H76.95C76.7433 44 76.5767 43.95 76.45 43.85C76.3233 43.7433 76.2267 43.6133 76.16 43.46L74.96 40.28H68.76L67.56 43.46C67.5067 43.5933 67.4133 43.7167 67.28 43.83C67.1467 43.9433 66.98 44 66.78 44H64.97L70.68 29.6H73.05L78.76 44Z" fill="#3B3B69"/>
    <path d="M82.1514 41.44C82.4514 41.8267 82.7781 42.1 83.1314 42.26C83.4914 42.4133 83.8881 42.49 84.3214 42.49C85.1614 42.49 85.8147 42.1833 86.2814 41.57C86.7547 40.9567 86.9914 40.0433 86.9914 38.83C86.9914 38.2033 86.9381 37.67 86.8314 37.23C86.7247 36.7833 86.5714 36.42 86.3714 36.14C86.1714 35.86 85.9281 35.6567 85.6414 35.53C85.3547 35.4033 85.0314 35.34 84.6714 35.34C84.1247 35.34 83.6514 35.46 83.2514 35.7C82.8581 35.9333 82.4914 36.27 82.1514 36.71V41.44ZM82.0414 35.28C82.4681 34.78 82.9514 34.3767 83.4914 34.07C84.0381 33.7633 84.6714 33.61 85.3914 33.61C85.9647 33.61 86.4847 33.7267 86.9514 33.96C87.4181 34.1867 87.8181 34.52 88.1514 34.96C88.4847 35.4 88.7414 35.9467 88.9214 36.6C89.1081 37.2467 89.2014 37.99 89.2014 38.83C89.2014 39.5833 89.0981 40.2867 88.8914 40.94C88.6914 41.5867 88.4014 42.15 88.0214 42.63C87.6414 43.1033 87.1814 43.4767 86.6414 43.75C86.1014 44.0167 85.4914 44.15 84.8114 44.15C84.2114 44.15 83.7014 44.0533 83.2814 43.86C82.8681 43.6667 82.4914 43.4 82.1514 43.06V47.39H80.0014V33.8H81.3014C81.5947 33.8 81.7814 33.9367 81.8614 34.21L82.0414 35.28Z" fill="#3B3B69"/>
    <path d="M93.4405 41.44C93.7405 41.8267 94.0671 42.1 94.4205 42.26C94.7805 42.4133 95.1771 42.49 95.6105 42.49C96.4505 42.49 97.1038 42.1833 97.5705 41.57C98.0438 40.9567 98.2805 40.0433 98.2805 38.83C98.2805 38.2033 98.2271 37.67 98.1205 37.23C98.0138 36.7833 97.8605 36.42 97.6605 36.14C97.4605 35.86 97.2171 35.6567 96.9305 35.53C96.6438 35.4033 96.3205 35.34 95.9605 35.34C95.4138 35.34 94.9405 35.46 94.5405 35.7C94.1471 35.9333 93.7805 36.27 93.4405 36.71V41.44ZM93.3305 35.28C93.7571 34.78 94.2405 34.3767 94.7805 34.07C95.3271 33.7633 95.9605 33.61 96.6805 33.61C97.2538 33.61 97.7738 33.7267 98.2405 33.96C98.7071 34.1867 99.1071 34.52 99.4405 34.96C99.7738 35.4 100.03 35.9467 100.21 36.6C100.397 37.2467 100.49 37.99 100.49 38.83C100.49 39.5833 100.387 40.2867 100.18 40.94C99.9805 41.5867 99.6905 42.15 99.3105 42.63C98.9305 43.1033 98.4705 43.4767 97.9305 43.75C97.3905 44.0167 96.7805 44.15 96.1005 44.15C95.5005 44.15 94.9905 44.0533 94.5705 43.86C94.1571 43.6667 93.7805 43.4 93.4405 43.06V47.39H91.2905V33.8H92.5905C92.8838 33.8 93.0705 33.9367 93.1505 34.21L93.3305 35.28Z" fill="#3B3B69"/>
    <path d="M115.49 32.06C115.417 32.18 115.34 32.27 115.26 32.33C115.18 32.3833 115.08 32.41 114.96 32.41C114.833 32.41 114.69 32.3567 114.53 32.25C114.377 32.1433 114.183 32.0267 113.95 31.9C113.723 31.7667 113.453 31.6467 113.14 31.54C112.827 31.4267 112.453 31.37 112.02 31.37C111.62 31.37 111.267 31.42 110.96 31.52C110.66 31.62 110.407 31.76 110.2 31.94C109.993 32.12 109.837 32.3333 109.73 32.58C109.63 32.82 109.58 33.0833 109.58 33.37C109.58 33.7367 109.677 34.0433 109.87 34.29C110.063 34.53 110.317 34.7367 110.63 34.91C110.95 35.0833 111.313 35.2367 111.72 35.37C112.127 35.4967 112.54 35.6333 112.96 35.78C113.387 35.9267 113.803 36.0933 114.21 36.28C114.617 36.4667 114.977 36.7033 115.29 36.99C115.61 37.2767 115.867 37.6267 116.06 38.04C116.253 38.4533 116.35 38.9567 116.35 39.55C116.35 40.19 116.24 40.79 116.02 41.35C115.8 41.91 115.48 42.4 115.06 42.82C114.647 43.2333 114.133 43.56 113.52 43.8C112.913 44.04 112.22 44.16 111.44 44.16C110.98 44.16 110.53 44.1133 110.09 44.02C109.657 43.9333 109.24 43.81 108.84 43.65C108.447 43.4833 108.077 43.2833 107.73 43.05C107.383 42.8167 107.073 42.5567 106.8 42.27L107.48 41.15C107.54 41.0567 107.617 40.9833 107.71 40.93C107.803 40.8767 107.907 40.85 108.02 40.85C108.173 40.85 108.343 40.9233 108.53 41.07C108.717 41.21 108.94 41.3667 109.2 41.54C109.467 41.7067 109.787 41.8633 110.16 42.01C110.533 42.15 110.98 42.22 111.5 42.22C112.347 42.22 113 42.0133 113.46 41.6C113.927 41.1867 114.16 40.6167 114.16 39.89C114.16 39.4833 114.063 39.1533 113.87 38.9C113.677 38.64 113.42 38.4233 113.1 38.25C112.787 38.0767 112.427 37.93 112.02 37.81C111.613 37.69 111.2 37.5633 110.78 37.43C110.36 37.29 109.947 37.13 109.54 36.95C109.133 36.7633 108.77 36.5233 108.45 36.23C108.137 35.93 107.883 35.5633 107.69 35.13C107.497 34.69 107.4 34.1433 107.4 33.49C107.4 32.97 107.5 32.4667 107.7 31.98C107.907 31.4933 108.203 31.0633 108.59 30.69C108.983 30.31 109.467 30.0067 110.04 29.78C110.613 29.5533 111.267 29.44 112 29.44C112.827 29.44 113.583 29.57 114.27 29.83C114.963 30.09 115.56 30.46 116.06 30.94L115.49 32.06Z" fill="#3B3B69"/>
    <path d="M121.299 44.16C120.452 44.16 119.799 43.9233 119.339 43.45C118.885 42.97 118.659 42.2967 118.659 41.43V35.49H117.539C117.419 35.49 117.315 35.4533 117.229 35.38C117.142 35.3 117.099 35.1833 117.099 35.03V34.16L118.749 33.92L119.219 30.97C119.252 30.8567 119.309 30.7667 119.389 30.7C119.469 30.6267 119.575 30.59 119.709 30.59H120.809V33.94H123.639V35.49H120.809V41.28C120.809 41.6467 120.899 41.9267 121.079 42.12C121.259 42.3133 121.499 42.41 121.799 42.41C121.965 42.41 122.109 42.39 122.229 42.35C122.349 42.3033 122.452 42.2567 122.539 42.21C122.625 42.1567 122.699 42.11 122.759 42.07C122.825 42.0233 122.889 42 122.949 42C123.069 42 123.165 42.0667 123.239 42.2L123.879 43.25C123.545 43.5433 123.152 43.77 122.699 43.93C122.245 44.0833 121.779 44.16 121.299 44.16Z" fill="#3B3B69"/>
    <path d="M129.665 33.64C130.419 33.64 131.099 33.7633 131.705 34.01C132.319 34.2567 132.839 34.6067 133.265 35.06C133.699 35.5133 134.032 36.0633 134.265 36.71C134.499 37.3567 134.615 38.0833 134.615 38.89C134.615 39.6967 134.499 40.4233 134.265 41.07C134.032 41.7167 133.699 42.27 133.265 42.73C132.839 43.1833 132.319 43.5333 131.705 43.78C131.099 44.0267 130.419 44.15 129.665 44.15C128.905 44.15 128.219 44.0267 127.605 43.78C126.999 43.5333 126.479 43.1833 126.045 42.73C125.612 42.27 125.279 41.7167 125.045 41.07C124.812 40.4233 124.695 39.6967 124.695 38.89C124.695 38.0833 124.812 37.3567 125.045 36.71C125.279 36.0633 125.612 35.5133 126.045 35.06C126.479 34.6067 126.999 34.2567 127.605 34.01C128.219 33.7633 128.905 33.64 129.665 33.64ZM129.665 42.47C130.585 42.47 131.269 42.1633 131.715 41.55C132.169 40.93 132.395 40.0467 132.395 38.9C132.395 37.7533 132.169 36.87 131.715 36.25C131.269 35.6233 130.585 35.31 129.665 35.31C128.732 35.31 128.039 35.6233 127.585 36.25C127.132 36.87 126.905 37.7533 126.905 38.9C126.905 40.0467 127.132 40.93 127.585 41.55C128.039 42.1633 128.732 42.47 129.665 42.47Z" fill="#3B3B69"/>
    <path d="M138.711 35.69C139.031 35.0433 139.418 34.5367 139.871 34.17C140.324 33.7967 140.868 33.61 141.501 33.61C141.721 33.61 141.928 33.6367 142.121 33.69C142.314 33.7367 142.488 33.81 142.641 33.91L142.491 35.53C142.464 35.6433 142.421 35.7233 142.361 35.77C142.308 35.81 142.234 35.83 142.141 35.83C142.041 35.83 141.898 35.8133 141.711 35.78C141.524 35.74 141.328 35.72 141.121 35.72C140.821 35.72 140.554 35.7633 140.321 35.85C140.094 35.9367 139.888 36.0633 139.701 36.23C139.521 36.3967 139.361 36.6 139.221 36.84C139.081 37.08 138.951 37.3533 138.831 37.66V44H136.681V33.8H137.931C138.158 33.8 138.314 33.8433 138.401 33.93C138.488 34.01 138.548 34.1533 138.581 34.36L138.711 35.69Z" fill="#3B3B69"/>
    <path d="M150.402 37.75C150.402 37.39 150.349 37.0567 150.242 36.75C150.142 36.4367 149.992 36.1667 149.792 35.94C149.592 35.7067 149.342 35.5267 149.042 35.4C148.749 35.2667 148.409 35.2 148.022 35.2C147.242 35.2 146.629 35.4233 146.182 35.87C145.736 36.3167 145.452 36.9433 145.332 37.75H150.402ZM145.272 39.07C145.299 39.65 145.389 40.1533 145.542 40.58C145.696 41 145.899 41.35 146.152 41.63C146.412 41.91 146.719 42.12 147.072 42.26C147.432 42.3933 147.832 42.46 148.272 42.46C148.692 42.46 149.056 42.4133 149.362 42.32C149.669 42.22 149.936 42.1133 150.162 42C150.389 41.88 150.582 41.7733 150.742 41.68C150.902 41.58 151.049 41.53 151.182 41.53C151.356 41.53 151.489 41.5967 151.582 41.73L152.192 42.52C151.939 42.82 151.652 43.0733 151.332 43.28C151.012 43.4867 150.672 43.6567 150.312 43.79C149.952 43.9167 149.582 44.0067 149.202 44.06C148.822 44.12 148.452 44.15 148.092 44.15C147.386 44.15 146.729 44.0333 146.122 43.8C145.522 43.56 144.999 43.21 144.552 42.75C144.112 42.29 143.766 41.72 143.512 41.04C143.266 40.36 143.142 39.5767 143.142 38.69C143.142 37.9833 143.252 37.3233 143.472 36.71C143.699 36.0967 144.019 35.5633 144.432 35.11C144.852 34.6567 145.359 34.3 145.952 34.04C146.552 33.7733 147.229 33.64 147.982 33.64C148.609 33.64 149.189 33.7433 149.722 33.95C150.256 34.15 150.716 34.4467 151.102 34.84C151.489 35.2333 151.789 35.7167 152.002 36.29C152.222 36.8567 152.332 37.5033 152.332 38.23C152.332 38.5633 152.296 38.7867 152.222 38.9C152.149 39.0133 152.016 39.07 151.822 39.07H145.272Z" fill="#3B3B69"/>
    <path d="M74.975 15.988C74.975 16.7393 74.856 17.423 74.618 18.039C74.38 18.655 74.044 19.1823 73.61 19.621C73.176 20.0597 72.6533 20.4003 72.042 20.643C71.4353 20.881 70.7633 21 70.026 21H66.281V10.969H70.026C70.7633 10.969 71.4353 11.0903 72.042 11.333C72.6533 11.571 73.176 11.9117 73.61 12.355C74.044 12.7937 74.38 13.321 74.618 13.937C74.856 14.553 74.975 15.2367 74.975 15.988ZM73.582 15.988C73.582 15.372 73.498 14.8213 73.33 14.336C73.162 13.8507 72.924 13.44 72.616 13.104C72.308 12.768 71.9347 12.5113 71.496 12.334C71.0573 12.1567 70.5673 12.068 70.026 12.068H67.639V19.901H70.026C70.5673 19.901 71.0573 19.8123 71.496 19.635C71.9347 19.4577 72.308 19.2033 72.616 18.872C72.924 18.536 73.162 18.1253 73.33 17.64C73.498 17.1547 73.582 16.604 73.582 15.988Z" fill="#3B3B69"/>
    <path d="M79.5307 13.797C80.0487 13.797 80.5154 13.8833 80.9307 14.056C81.346 14.2287 81.7007 14.4737 81.9947 14.791C82.2887 15.1083 82.5127 15.4933 82.6667 15.946C82.8254 16.394 82.9047 16.8957 82.9047 17.451C82.9047 18.011 82.8254 18.515 82.6667 18.963C82.5127 19.411 82.2887 19.7937 81.9947 20.111C81.7007 20.4283 81.346 20.6733 80.9307 20.846C80.5154 21.014 80.0487 21.098 79.5307 21.098C79.008 21.098 78.5367 21.014 78.1167 20.846C77.7014 20.6733 77.3467 20.4283 77.0527 20.111C76.7587 19.7937 76.5324 19.411 76.3737 18.963C76.2197 18.515 76.1427 18.011 76.1427 17.451C76.1427 16.8957 76.2197 16.394 76.3737 15.946C76.5324 15.4933 76.7587 15.1083 77.0527 14.791C77.3467 14.4737 77.7014 14.2287 78.1167 14.056C78.5367 13.8833 79.008 13.797 79.5307 13.797ZM79.5307 20.125C80.2307 20.125 80.7533 19.8917 81.0987 19.425C81.444 18.9537 81.6167 18.298 81.6167 17.458C81.6167 16.6133 81.444 15.9553 81.0987 15.484C80.7533 15.0127 80.2307 14.777 79.5307 14.777C79.176 14.777 78.8657 14.8377 78.5997 14.959C78.3384 15.0803 78.119 15.2553 77.9417 15.484C77.769 15.7127 77.6384 15.995 77.5497 16.331C77.4657 16.6623 77.4237 17.038 77.4237 17.458C77.4237 18.298 77.5964 18.9537 77.9417 19.425C78.2917 19.8917 78.8214 20.125 79.5307 20.125Z" fill="#3B3B69"/>
    <path d="M94.1547 13.909L91.8587 21H90.8717C90.7503 21 90.6663 20.9207 90.6197 20.762L89.0517 15.953C89.0143 15.8457 88.984 15.7383 88.9607 15.631C88.9373 15.519 88.914 15.4093 88.8907 15.302C88.8673 15.4093 88.844 15.519 88.8207 15.631C88.7973 15.7383 88.767 15.848 88.7297 15.96L87.1337 20.762C87.0917 20.9207 86.9983 21 86.8537 21H85.9157L83.6197 13.909H84.5997C84.6977 13.909 84.7793 13.9347 84.8447 13.986C84.9147 14.0373 84.9613 14.098 84.9847 14.168L86.3427 18.732C86.422 19.068 86.485 19.3853 86.5317 19.684C86.5737 19.53 86.6157 19.3737 86.6577 19.215C86.7043 19.0563 86.7533 18.8953 86.8047 18.732L88.3027 14.14C88.326 14.07 88.3657 14.0117 88.4217 13.965C88.4823 13.9183 88.5547 13.895 88.6387 13.895H89.1847C89.278 13.895 89.355 13.9183 89.4157 13.965C89.4763 14.0117 89.5183 14.07 89.5417 14.14L91.0047 18.732C91.056 18.8953 91.1027 19.0563 91.1447 19.215C91.1867 19.3737 91.2263 19.53 91.2637 19.684C91.287 19.53 91.315 19.376 91.3477 19.222C91.385 19.0633 91.4247 18.9 91.4667 18.732L92.8527 14.168C92.876 14.0933 92.9203 14.0327 92.9857 13.986C93.051 13.9347 93.128 13.909 93.2167 13.909H94.1547Z" fill="#3B3B69"/>
    <path d="M96.5439 14.938C96.6979 14.7653 96.8612 14.609 97.0339 14.469C97.2065 14.329 97.3885 14.21 97.5799 14.112C97.7759 14.0093 97.9812 13.9323 98.1959 13.881C98.4152 13.825 98.6509 13.797 98.9029 13.797C99.2902 13.797 99.6309 13.8623 99.9249 13.993C100.224 14.119 100.471 14.301 100.667 14.539C100.868 14.7723 101.019 15.0547 101.122 15.386C101.225 15.7173 101.276 16.0837 101.276 16.485V21H100.023V16.485C100.023 15.9483 99.8992 15.533 99.6519 15.239C99.4092 14.9403 99.0382 14.791 98.5389 14.791C98.1702 14.791 97.8249 14.8797 97.5029 15.057C97.1855 15.2343 96.8915 15.4747 96.6209 15.778V21H95.3679V13.909H96.1169C96.2942 13.909 96.4039 13.9953 96.4459 14.168L96.5439 14.938Z" fill="#3B3B69"/>
    <path d="M104.463 10.689V21H103.216V10.689H104.463Z" fill="#3B3B69"/>
    <path d="M109.472 13.797C109.99 13.797 110.457 13.8833 110.872 14.056C111.287 14.2287 111.642 14.4737 111.936 14.791C112.23 15.1083 112.454 15.4933 112.608 15.946C112.767 16.394 112.846 16.8957 112.846 17.451C112.846 18.011 112.767 18.515 112.608 18.963C112.454 19.411 112.23 19.7937 111.936 20.111C111.642 20.4283 111.287 20.6733 110.872 20.846C110.457 21.014 109.99 21.098 109.472 21.098C108.949 21.098 108.478 21.014 108.058 20.846C107.643 20.6733 107.288 20.4283 106.994 20.111C106.7 19.7937 106.474 19.411 106.315 18.963C106.161 18.515 106.084 18.011 106.084 17.451C106.084 16.8957 106.161 16.394 106.315 15.946C106.474 15.4933 106.7 15.1083 106.994 14.791C107.288 14.4737 107.643 14.2287 108.058 14.056C108.478 13.8833 108.949 13.797 109.472 13.797ZM109.472 20.125C110.172 20.125 110.695 19.8917 111.04 19.425C111.385 18.9537 111.558 18.298 111.558 17.458C111.558 16.6133 111.385 15.9553 111.04 15.484C110.695 15.0127 110.172 14.777 109.472 14.777C109.117 14.777 108.807 14.8377 108.541 14.959C108.28 15.0803 108.06 15.2553 107.883 15.484C107.71 15.7127 107.58 15.995 107.491 16.331C107.407 16.6623 107.365 17.038 107.365 17.458C107.365 18.298 107.538 18.9537 107.883 19.425C108.233 19.8917 108.763 20.125 109.472 20.125Z" fill="#3B3B69"/>
    <path d="M118.269 17.808C117.695 17.8267 117.205 17.8733 116.799 17.948C116.398 18.018 116.069 18.1113 115.812 18.228C115.56 18.3447 115.376 18.4823 115.259 18.641C115.147 18.7997 115.091 18.977 115.091 19.173C115.091 19.3597 115.122 19.5207 115.182 19.656C115.243 19.7913 115.325 19.9033 115.427 19.992C115.535 20.076 115.658 20.139 115.798 20.181C115.943 20.2183 116.097 20.237 116.26 20.237C116.48 20.237 116.68 20.216 116.862 20.174C117.044 20.1273 117.215 20.062 117.373 19.978C117.537 19.894 117.691 19.7937 117.835 19.677C117.985 19.5603 118.129 19.4273 118.269 19.278V17.808ZM114.244 14.91C114.636 14.532 115.059 14.2497 115.511 14.063C115.964 13.8763 116.466 13.783 117.016 13.783C117.413 13.783 117.765 13.8483 118.073 13.979C118.381 14.1097 118.64 14.2917 118.85 14.525C119.06 14.7583 119.219 15.0407 119.326 15.372C119.434 15.7033 119.487 16.0673 119.487 16.464V21H118.934C118.813 21 118.72 20.9813 118.654 20.944C118.589 20.902 118.538 20.8227 118.5 20.706L118.36 20.034C118.174 20.2067 117.992 20.3607 117.814 20.496C117.637 20.6267 117.45 20.7387 117.254 20.832C117.058 20.9207 116.848 20.9883 116.624 21.035C116.405 21.0863 116.16 21.112 115.889 21.112C115.614 21.112 115.355 21.0747 115.112 21C114.87 20.9207 114.657 20.804 114.475 20.65C114.298 20.496 114.156 20.3023 114.048 20.069C113.946 19.831 113.894 19.551 113.894 19.229C113.894 18.949 113.971 18.6807 114.125 18.424C114.279 18.1627 114.529 17.9317 114.874 17.731C115.22 17.5303 115.67 17.367 116.225 17.241C116.781 17.1103 117.462 17.0357 118.269 17.017V16.464C118.269 15.9133 118.15 15.498 117.912 15.218C117.674 14.9333 117.327 14.791 116.869 14.791C116.561 14.791 116.302 14.8307 116.092 14.91C115.887 14.9847 115.707 15.071 115.553 15.169C115.404 15.2623 115.273 15.3487 115.161 15.428C115.054 15.5027 114.947 15.54 114.839 15.54C114.755 15.54 114.683 15.519 114.622 15.477C114.562 15.4303 114.51 15.3743 114.468 15.309L114.244 14.91Z" fill="#3B3B69"/>
    <path d="M126.005 15.596C125.772 15.2833 125.52 15.0663 125.249 14.945C124.979 14.819 124.675 14.756 124.339 14.756C123.681 14.756 123.175 14.9917 122.82 15.463C122.466 15.9343 122.288 16.6063 122.288 17.479C122.288 17.941 122.328 18.3377 122.407 18.669C122.487 18.9957 122.603 19.2663 122.757 19.481C122.911 19.691 123.1 19.845 123.324 19.943C123.548 20.041 123.803 20.09 124.087 20.09C124.498 20.09 124.855 19.9967 125.158 19.81C125.466 19.6233 125.749 19.3597 126.005 19.019V15.596ZM127.251 10.689V21H126.509C126.332 21 126.22 20.9137 126.173 20.741L126.061 19.88C125.758 20.244 125.413 20.538 125.025 20.762C124.638 20.986 124.19 21.098 123.681 21.098C123.275 21.098 122.907 21.021 122.575 20.867C122.244 20.7083 121.962 20.4773 121.728 20.174C121.495 19.8707 121.315 19.4927 121.189 19.04C121.063 18.5873 121 18.067 121 17.479C121 16.9563 121.07 16.471 121.21 16.023C121.35 15.5703 121.551 15.1783 121.812 14.847C122.074 14.5157 122.393 14.2567 122.771 14.07C123.154 13.8787 123.583 13.783 124.059 13.783C124.493 13.783 124.864 13.8577 125.172 14.007C125.485 14.1517 125.763 14.3547 126.005 14.616V10.689H127.251Z" fill="#3B3B69"/>
    <path d="M135.79 13.797C136.308 13.797 136.775 13.8833 137.19 14.056C137.606 14.2287 137.96 14.4737 138.254 14.791C138.548 15.1083 138.772 15.4933 138.926 15.946C139.085 16.394 139.164 16.8957 139.164 17.451C139.164 18.011 139.085 18.515 138.926 18.963C138.772 19.411 138.548 19.7937 138.254 20.111C137.96 20.4283 137.606 20.6733 137.19 20.846C136.775 21.014 136.308 21.098 135.79 21.098C135.268 21.098 134.796 21.014 134.376 20.846C133.961 20.6733 133.606 20.4283 133.312 20.111C133.018 19.7937 132.792 19.411 132.633 18.963C132.479 18.515 132.402 18.011 132.402 17.451C132.402 16.8957 132.479 16.394 132.633 15.946C132.792 15.4933 133.018 15.1083 133.312 14.791C133.606 14.4737 133.961 14.2287 134.376 14.056C134.796 13.8833 135.268 13.797 135.79 13.797ZM135.79 20.125C136.49 20.125 137.013 19.8917 137.358 19.425C137.704 18.9537 137.876 18.298 137.876 17.458C137.876 16.6133 137.704 15.9553 137.358 15.484C137.013 15.0127 136.49 14.777 135.79 14.777C135.436 14.777 135.125 14.8377 134.859 14.959C134.598 15.0803 134.379 15.2553 134.201 15.484C134.029 15.7127 133.898 15.995 133.809 16.331C133.725 16.6623 133.683 17.038 133.683 17.458C133.683 18.298 133.856 18.9537 134.201 19.425C134.551 19.8917 135.081 20.125 135.79 20.125Z" fill="#3B3B69"/>
    <path d="M141.921 14.938C142.075 14.7653 142.238 14.609 142.411 14.469C142.583 14.329 142.765 14.21 142.957 14.112C143.153 14.0093 143.358 13.9323 143.573 13.881C143.792 13.825 144.028 13.797 144.28 13.797C144.667 13.797 145.008 13.8623 145.302 13.993C145.6 14.119 145.848 14.301 146.044 14.539C146.244 14.7723 146.396 15.0547 146.499 15.386C146.601 15.7173 146.653 16.0837 146.653 16.485V21H145.4V16.485C145.4 15.9483 145.276 15.533 145.029 15.239C144.786 14.9403 144.415 14.791 143.916 14.791C143.547 14.791 143.202 14.8797 142.88 15.057C142.562 15.2343 142.268 15.4747 141.998 15.778V21H140.745V13.909H141.494C141.671 13.909 141.781 13.9953 141.823 14.168L141.921 14.938Z" fill="#3B3B69"/>
    <path d="M154.31 21.112C153.75 21.112 153.319 20.9557 153.015 20.643C152.717 20.3303 152.567 19.88 152.567 19.292V14.952H151.713C151.639 14.952 151.576 14.931 151.524 14.889C151.473 14.8423 151.447 14.7723 151.447 14.679V14.182L152.609 14.035L152.896 11.844C152.91 11.774 152.941 11.718 152.987 11.676C153.039 11.6293 153.104 11.606 153.183 11.606H153.813V14.049H155.864V14.952H153.813V19.208C153.813 19.5067 153.886 19.7283 154.03 19.873C154.175 20.0177 154.362 20.09 154.59 20.09C154.721 20.09 154.833 20.0737 154.926 20.041C155.024 20.0037 155.108 19.964 155.178 19.922C155.248 19.88 155.307 19.8427 155.353 19.81C155.405 19.7727 155.449 19.754 155.486 19.754C155.552 19.754 155.61 19.7937 155.661 19.873L156.025 20.468C155.811 20.6687 155.552 20.8273 155.248 20.944C154.945 21.056 154.632 21.112 154.31 21.112Z" fill="#3B3B69"/>
    <path d="M158.404 14.854C158.707 14.532 159.043 14.2753 159.412 14.084C159.781 13.8927 160.205 13.797 160.686 13.797C161.073 13.797 161.414 13.8623 161.708 13.993C162.007 14.119 162.254 14.301 162.45 14.539C162.651 14.7723 162.802 15.0547 162.905 15.386C163.008 15.7173 163.059 16.0837 163.059 16.485V21H161.806V16.485C161.806 15.9483 161.682 15.533 161.435 15.239C161.192 14.9403 160.821 14.791 160.322 14.791C159.953 14.791 159.608 14.8797 159.286 15.057C158.969 15.2343 158.675 15.4747 158.404 15.778V21H157.151V10.689H158.404V14.854Z" fill="#3B3B69"/>
    <path d="M169.704 16.681C169.704 16.3917 169.662 16.128 169.578 15.89C169.498 15.6473 169.379 15.4397 169.221 15.267C169.067 15.0897 168.878 14.9543 168.654 14.861C168.43 14.763 168.175 14.714 167.891 14.714C167.293 14.714 166.82 14.889 166.47 15.239C166.124 15.5843 165.91 16.065 165.826 16.681H169.704ZM170.712 20.006C170.558 20.1927 170.373 20.356 170.159 20.496C169.944 20.6313 169.713 20.7433 169.466 20.832C169.223 20.9207 168.971 20.986 168.71 21.028C168.448 21.0747 168.189 21.098 167.933 21.098C167.443 21.098 166.99 21.0163 166.575 20.853C166.164 20.685 165.807 20.4423 165.504 20.125C165.205 19.803 164.972 19.4063 164.804 18.935C164.636 18.4637 164.552 17.9223 164.552 17.311C164.552 16.8163 164.626 16.3543 164.776 15.925C164.93 15.4957 165.149 15.1247 165.434 14.812C165.718 14.4947 166.066 14.2473 166.477 14.07C166.887 13.888 167.349 13.797 167.863 13.797C168.287 13.797 168.679 13.8693 169.039 14.014C169.403 14.154 169.715 14.3593 169.977 14.63C170.243 14.896 170.45 15.2273 170.6 15.624C170.749 16.016 170.824 16.464 170.824 16.968C170.824 17.164 170.803 17.2947 170.761 17.36C170.719 17.4253 170.639 17.458 170.523 17.458H165.784C165.798 17.906 165.858 18.2957 165.966 18.627C166.078 18.9583 166.232 19.236 166.428 19.46C166.624 19.6793 166.857 19.845 167.128 19.957C167.398 20.0643 167.702 20.118 168.038 20.118C168.35 20.118 168.619 20.083 168.843 20.013C169.071 19.9383 169.267 19.859 169.431 19.775C169.594 19.691 169.729 19.614 169.837 19.544C169.949 19.4693 170.044 19.432 170.124 19.432C170.226 19.432 170.306 19.4717 170.362 19.551L170.712 20.006Z" fill="#3B3B69"/>
    <path d="M17.703 21.704C14.2892 27.5723 16.4594 36.4779 20.2346 41.8776C22.119 44.5772 24.0268 47.0005 26.6399 47.0005C26.6892 47.0005 26.7386 46.9996 26.7891 46.9976C28.0169 46.9491 28.9041 46.5746 29.7619 46.2128C30.7249 45.8062 31.7209 45.3859 33.2832 45.3859C34.7695 45.3859 35.718 45.7926 36.6352 46.1858C37.5392 46.5732 38.4704 46.974 39.8463 46.9484C42.7897 46.8941 44.5969 44.2792 46.1914 41.9724C47.8552 39.5638 48.6898 37.2253 48.9715 36.3316L48.9828 36.2961C49.0365 36.1373 48.9607 35.9639 48.807 35.894C48.8028 35.892 48.7872 35.8856 48.7828 35.8838C48.2645 35.6738 43.7177 33.6757 43.6699 28.2298C43.6255 23.8053 47.0808 21.4623 47.7738 21.0376L47.8061 21.0177C47.8812 20.9698 47.9335 20.8939 47.9512 20.8071C47.9689 20.7204 47.9504 20.6301 47.9001 20.5572C45.5151 17.0998 41.8596 16.5788 40.3879 16.5161C40.1743 16.495 39.9539 16.4843 39.7325 16.4843C38.004 16.4843 36.3481 17.131 35.0177 17.6507C34.0994 18.0093 33.3062 18.3191 32.7592 18.3191C32.1445 18.3191 31.3468 18.0055 30.423 17.6425C29.1878 17.1569 27.7877 16.6066 26.3055 16.6066C26.2701 16.6066 26.2353 16.607 26.201 16.6076C22.7547 16.6578 19.4983 18.6109 17.703 21.704Z" fill="#3B3B69"/>
    <path d="M40.391 7.00074C38.304 7.08494 35.8005 8.35747 34.3042 10.0936C33.0325 11.5529 31.7902 13.9859 32.1175 16.4384C32.138 16.5919 32.2641 16.7103 32.4199 16.7222C32.5608 16.7331 32.7046 16.7386 32.8478 16.7387C34.8885 16.7387 37.0898 15.6204 38.5932 13.8198C40.1754 11.9184 40.9755 9.47826 40.7335 7.29254C40.7144 7.12127 40.5623 6.99405 40.391 7.00074Z" fill="#3B3B69"/>
</svg>
