<svg width="40" height="40" viewBox="0 0 40 40" fill="none" xmlns="http://www.w3.org/2000/svg">
<path d="M20 40C31.0457 40 40 31.0457 40 20C40 8.9543 31.0457 0 20 0C8.9543 0 0 8.9543 0 20C0 31.0457 8.9543 40 20 40Z" fill="#DC4E41"/>
<path d="M11.9245 20.8953C11.763 16.6431 15.4875 12.7136 19.744 12.6626C21.9134 12.4776 24.024 13.32 25.6658 14.6941C24.9923 15.4345 24.3071 16.1665 23.5752 16.8517C22.1298 15.9736 20.3897 15.3044 18.7005 15.8987C15.976 16.6745 14.326 19.8914 15.3342 22.5567C16.1692 25.3404 19.555 26.8681 22.2086 25.6987C23.5826 25.2067 24.4886 23.939 24.8861 22.5767C23.3113 22.5453 21.7362 22.5649 20.1615 22.5214C20.1576 21.5845 20.1536 20.6511 20.1576 19.7142C22.7837 19.7103 25.4137 19.7024 28.0438 19.726C28.2053 22.0216 27.8666 24.4784 26.3742 26.3209C24.3306 28.9509 20.5551 29.7228 17.4837 28.691C14.224 27.6204 11.8535 24.3365 11.9245 20.8953Z" fill="white"/>
</svg>
