<svg width="32" height="32" viewBox="0 0 32 32" fill="none" xmlns="http://www.w3.org/2000/svg">
    <path d="M16.6746 14.2826V22.4426H14.9546V14.2826H16.6746ZM16.9626 11.8186C16.9626 11.9733 16.9306 12.12 16.8666 12.2586C16.808 12.3973 16.7253 12.52 16.6186 12.6266C16.512 12.728 16.3866 12.8106 16.2426 12.8746C16.104 12.9333 15.9546 12.9626 15.7946 12.9626C15.64 12.9626 15.4933 12.9333 15.3546 12.8746C15.2213 12.8106 15.104 12.728 15.0026 12.6266C14.9013 12.52 14.8186 12.3973 14.7546 12.2586C14.696 12.12 14.6666 11.9733 14.6666 11.8186C14.6666 11.6586 14.696 11.5093 14.7546 11.3706C14.8186 11.232 14.9013 11.112 15.0026 11.0106C15.104 10.904 15.2213 10.8213 15.3546 10.7626C15.4933 10.6986 15.64 10.6666 15.7946 10.6666C15.9546 10.6666 16.104 10.6986 16.2426 10.7626C16.3866 10.8213 16.512 10.904 16.6186 11.0106C16.7253 11.112 16.808 11.232 16.8666 11.3706C16.9306 11.5093 16.9626 11.6586 16.9626 11.8186Z" fill="white"/>
    <path fill-rule="evenodd" clip-rule="evenodd" d="M16 28C22.6274 28 28 22.6274 28 16C28 9.37254 22.6274 3.99996 16 3.99996C9.37254 3.99996 3.99996 9.37254 3.99996 16C3.99996 22.6274 9.37254 28 16 28ZM16 29.3333C8.63616 29.3333 2.66663 23.3638 2.66663 16C2.66663 8.63616 8.63616 2.66663 16 2.66663C23.3638 2.66663 29.3333 8.63616 29.3333 16C29.3333 23.3638 23.3638 29.3333 16 29.3333Z" fill="white"/>
</svg>
