<svg width="36" height="36" viewBox="0 0 36 36" fill="none" xmlns="http://www.w3.org/2000/svg">
    <g clip-path="url(#clip0)">
        <circle cx="18" cy="18" r="17.5" stroke="white"/>
        <path d="M18.215 13.564C15.6483 13.5723 13.5735 15.6583 13.579 18.225C13.5845 20.7917 15.6683 22.8687 18.235 22.866C20.8017 22.8632 22.881 20.7817 22.881 18.215C22.8794 16.9794 22.3868 15.795 21.5117 14.9227C20.6366 14.0504 19.4506 13.5616 18.215 13.564ZM18.215 21.91C16.1788 21.9034 14.5333 20.2479 14.539 18.2117C14.5447 16.1755 16.1995 14.5293 18.2357 14.534C20.2718 14.5388 21.9189 16.1928 21.915 18.229C21.9129 19.2079 21.5218 20.1458 20.8278 20.8362C20.1338 21.5266 19.1939 21.9129 18.215 21.91Z" fill="white"/>
        <path d="M18.216 10.275C13.8327 10.2849 10.2864 13.8446 10.293 18.228C10.2996 22.6113 13.8566 26.1603 18.24 26.157C22.6233 26.1537 26.175 22.5993 26.175 18.216C26.1684 13.826 22.606 10.2717 18.216 10.275ZM18.216 25.2C14.3627 25.1961 11.2421 22.0693 11.246 18.216C11.2499 14.3627 14.3767 11.2421 18.23 11.246C22.0833 11.2499 25.2039 14.3767 25.2 18.23C25.1934 22.0821 22.0681 25.2011 18.216 25.2Z" fill="white"/>
        <path d="M18.216 7C12.0195 7.00387 6.99871 12.0289 7 18.2253C7.00129 24.4218 12.0242 29.4447 18.2207 29.446C24.4171 29.4473 29.4421 24.4265 29.446 18.23C29.4405 12.0301 24.4159 7.00551 18.216 7ZM18.216 28.489C12.5462 28.4929 7.94687 23.8998 7.943 18.23C7.93914 12.5602 12.5322 7.96087 18.202 7.957C23.8718 7.95314 28.4711 12.5462 28.475 18.216C28.4772 23.8851 23.8851 28.4835 18.216 28.489Z" fill="white"/>
        <path d="M18.215 13.564C15.6483 13.5723 13.5735 15.6583 13.579 18.225C13.5845 20.7917 15.6683 22.8687 18.235 22.866C20.8017 22.8632 22.881 20.7817 22.881 18.215C22.8794 16.9794 22.3868 15.795 21.5117 14.9227C20.6366 14.0504 19.4506 13.5616 18.215 13.564ZM18.215 21.91C16.1788 21.9034 14.5333 20.2479 14.539 18.2117C14.5447 16.1755 16.1995 14.5293 18.2357 14.534C20.2718 14.5388 21.9189 16.1928 21.915 18.229C21.9129 19.2079 21.5218 20.1458 20.8278 20.8362C20.1338 21.5266 19.1939 21.9129 18.215 21.91Z" stroke="white" stroke-width="0.5"/>
        <path d="M18.216 10.275C13.8327 10.2849 10.2864 13.8446 10.293 18.228C10.2996 22.6113 13.8566 26.1603 18.24 26.157C22.6233 26.1537 26.175 22.5993 26.175 18.216C26.1684 13.826 22.606 10.2717 18.216 10.275ZM18.216 25.2C14.3627 25.1961 11.2421 22.0693 11.246 18.216C11.2499 14.3627 14.3767 11.2421 18.23 11.246C22.0833 11.2499 25.2039 14.3767 25.2 18.23C25.1934 22.0821 22.0681 25.2011 18.216 25.2Z" stroke="white" stroke-width="0.5"/>
        <path d="M18.216 7C12.0195 7.00387 6.99871 12.0289 7 18.2253C7.00129 24.4218 12.0242 29.4447 18.2207 29.446C24.4171 29.4473 29.4421 24.4265 29.446 18.23C29.4405 12.0301 24.4159 7.00551 18.216 7ZM18.216 28.489C12.5462 28.4929 7.94687 23.8998 7.943 18.23C7.93914 12.5602 12.5322 7.96087 18.202 7.957C23.8718 7.95314 28.4711 12.5462 28.475 18.216C28.4772 23.8851 23.8851 28.4835 18.216 28.489Z" stroke="white" stroke-width="0.5"/>
    </g>
    <defs>
        <clipPath id="clip0">
            <rect width="36" height="36" fill="white"/>
        </clipPath>
    </defs>
</svg>
