<svg width="36" height="36" viewBox="0 0 36 36" fill="none" xmlns="http://www.w3.org/2000/svg">
    <g clip-path="url(#clip0)">
        <circle cx="18" cy="18" r="17.5" stroke="white"/>
        <path d="M17.9184 26.7495H17.6184C11.7494 26.5495 7.31841 20.5165 6.08541 18.6495C5.97153 18.4853 5.97153 18.2676 6.08541 18.1035C7.31341 16.2605 11.7274 10.2095 17.6184 10.0035C21.7814 9.88946 25.7184 12.5965 29.4474 18.0795C29.5614 18.252 29.5614 18.4759 29.4474 18.6485C25.8124 24.0185 21.9454 26.7495 17.9184 26.7495ZM7.13541 18.3785C8.50041 20.3785 12.5264 25.5665 17.6674 25.7485C21.3524 25.9075 24.9674 23.3825 28.4274 18.3785C24.9694 13.3785 21.3524 10.8485 17.6674 11.0085C12.5274 11.1895 8.50141 16.3765 7.13641 18.3785H7.13541Z" fill="white"/>
        <path d="M17.7864 22.7455C16.2103 22.7693 14.7436 21.9421 13.9486 20.581C13.1536 19.2199 13.1536 17.536 13.9486 16.1749C14.7436 14.8138 16.2103 13.9866 17.7864 14.0105C20.1727 14.0466 22.0883 15.9913 22.0883 18.378C22.0883 20.7646 20.1727 22.7093 17.7864 22.7455ZM17.7864 15.0115C15.9269 15.0115 14.4194 16.5189 14.4194 18.3785C14.4194 20.238 15.9269 21.7455 17.7864 21.7455C19.646 21.7455 21.1534 20.238 21.1534 18.3785C21.1501 16.5201 19.6447 15.0143 17.7864 15.0105V15.0115Z" fill="white"/>
        <path d="M17.9184 26.7495H17.6184C11.7494 26.5495 7.31841 20.5165 6.08541 18.6495C5.97153 18.4853 5.97153 18.2676 6.08541 18.1035C7.31341 16.2605 11.7274 10.2095 17.6184 10.0035C21.7814 9.88946 25.7184 12.5965 29.4474 18.0795C29.5614 18.252 29.5614 18.4759 29.4474 18.6485C25.8124 24.0185 21.9454 26.7495 17.9184 26.7495ZM7.13541 18.3785C8.50041 20.3785 12.5264 25.5665 17.6674 25.7485C21.3524 25.9075 24.9674 23.3825 28.4274 18.3785C24.9694 13.3785 21.3524 10.8485 17.6674 11.0085C12.5274 11.1895 8.50141 16.3765 7.13641 18.3785H7.13541Z" stroke="white"/>
        <path d="M17.7864 22.7455C16.2103 22.7693 14.7436 21.9421 13.9486 20.581C13.1536 19.2199 13.1536 17.536 13.9486 16.1749C14.7436 14.8138 16.2103 13.9866 17.7864 14.0105C20.1727 14.0466 22.0883 15.9913 22.0883 18.378C22.0883 20.7646 20.1727 22.7093 17.7864 22.7455ZM17.7864 15.0115C15.9269 15.0115 14.4194 16.5189 14.4194 18.3785C14.4194 20.238 15.9269 21.7455 17.7864 21.7455C19.646 21.7455 21.1534 20.238 21.1534 18.3785C21.1501 16.5201 19.6447 15.0143 17.7864 15.0105V15.0115Z" stroke="white"/>
    </g>
    <defs>
        <clipPath id="clip0">
            <rect width="36" height="36" fill="white"/>
        </clipPath>
    </defs>
</svg>
