<svg width="24" height="24" viewBox="0 0 24 24" fill="none" xmlns="http://www.w3.org/2000/svg">
    <path d="M12 21.9999C11.815 22.0007 11.6375 21.9281 11.5072 21.7983C11.5072 21.7983 9.20291 19.5364 7.5826 17.9301C5.17088 15.5445 4 13.2466 4 10.9068C4 6.54 7.58172 3 12 3C16.4183 3 20 6.54 20 10.9068C20 13.2447 18.8291 15.5445 16.4154 17.936C14.7646 19.5676 12.4908 21.8002 12.4908 21.8002C12.3617 21.9302 12.1843 22.0024 12 21.9999ZM12 4.3842C8.35303 4.3842 5.39658 7.30622 5.39658 10.9107C5.39658 12.8589 6.43637 14.8412 8.57312 16.958C9.72822 18.0996 11.2342 19.5812 12.001 20.3352C12.7638 19.5861 14.253 18.1201 15.4289 16.958C17.5656 14.8403 18.6005 12.8667 18.6005 10.9107C18.5961 7.30914 15.644 4.39011 12 4.3842ZM12 14.8373C9.80692 14.8373 8.02907 13.0802 8.02907 10.9127C8.02907 8.74513 9.80692 6.98799 12 6.98799C14.1931 6.98799 15.9709 8.74513 15.9709 10.9127C15.9682 13.0791 14.192 14.8347 12 14.8373ZM12 8.36635C10.5804 8.36635 9.42959 9.50376 9.42959 10.9068C9.42959 12.3099 10.5804 13.4473 12 13.4473C13.4196 13.4473 14.5704 12.3099 14.5704 10.9068C14.5677 9.50487 13.4185 8.36903 12 8.36635Z" fill="white"/>
</svg>
