<svg width="45" height="61" viewBox="0 0 45 61" fill="none" xmlns="http://www.w3.org/2000/svg">
    <ellipse cx="22.6814" cy="23.001" rx="11.9626" ry="12" fill="#3C3C69"/>
    <g opacity="0.6">
        <path d="M22.6813 0.998535C10.5894 0.998535 0.750732 10.8679 0.750732 22.9988C0.750732 26.1631 1.39636 29.1842 2.66871 31.979C8.15196 44.0151 18.6649 56.7228 21.757 60.3304C21.9887 60.6001 22.3265 60.7554 22.6819 60.7554C23.0373 60.7554 23.3751 60.6001 23.6067 60.3304C26.6977 56.7234 37.2106 44.0164 42.6957 31.979C43.9686 29.1842 44.6137 26.1631 44.6137 22.9988C44.6124 10.8679 34.7738 0.998535 22.6813 0.998535ZM22.6813 34.4259C16.4 34.4259 11.2892 29.2991 11.2892 22.9982C11.2892 16.6967 16.4 11.57 22.6813 11.57C28.9626 11.57 34.0733 16.6967 34.0733 22.9982C34.0739 29.2991 28.9632 34.4259 22.6813 34.4259Z" fill="#3C3C69"/>
    </g>
</svg>
