<svg width="45" height="61" viewBox="0 0 45 61" fill="none" xmlns="http://www.w3.org/2000/svg">
    <ellipse cx="22.2773" cy="23.001" rx="11.9626" ry="12" fill="#FF3366"/>
    <g opacity="0.6">
        <path d="M22.2765 0.998047C10.1846 0.998047 0.345947 10.8674 0.345947 22.9984C0.345947 26.1626 0.991572 29.1837 2.26392 31.9785C7.74717 44.0147 18.2601 56.7223 21.3523 60.3299C21.5839 60.5996 21.9217 60.7549 22.2771 60.7549C22.6325 60.7549 22.9703 60.5996 23.202 60.3299C26.2929 56.7229 36.8058 44.0159 42.2909 31.9785C43.5639 29.1837 44.2089 26.1626 44.2089 22.9984C44.2077 10.8674 34.369 0.998047 22.2765 0.998047ZM22.2765 34.4254C15.9952 34.4254 10.8845 29.2987 10.8845 22.9977C10.8845 16.6962 15.9952 11.5695 22.2765 11.5695C28.5578 11.5695 33.6685 16.6962 33.6685 22.9977C33.6691 29.2987 28.5584 34.4254 22.2765 34.4254Z" fill="#FF3366"/>
    </g>
</svg>
