<svg width="16" height="19" viewBox="0 0 16 19" fill="none" xmlns="http://www.w3.org/2000/svg">
    <path d="M8 18.9999C7.81503 19.0007 7.63748 18.9281 7.50721 18.7983C7.50721 18.7983 5.20291 16.5364 3.5826 14.9301C1.17088 12.5445 0 10.2466 0 7.90682C0 3.54 3.58172 0 8 0C12.4183 0 16 3.54 16 7.90682C16 10.2447 14.8291 12.5445 12.4154 14.936C10.7646 16.5676 8.49082 18.8002 8.49082 18.8002C8.36166 18.9302 8.18433 19.0024 8 18.9999ZM8 1.3842C4.35303 1.3842 1.39658 4.30622 1.39658 7.91072C1.39658 9.85893 2.43637 11.8412 4.57312 13.958C5.72822 15.0996 7.2342 16.5812 8.00099 17.3352C8.76383 16.5861 10.253 15.1201 11.4289 13.958C13.5656 11.8403 14.6005 9.86672 14.6005 7.91072C14.5961 4.30914 11.644 1.39011 8 1.3842ZM8 11.8373C5.80692 11.8373 4.02907 10.0802 4.02907 7.91266C4.02907 5.74513 5.80692 3.98799 8 3.98799C10.1931 3.98799 11.9709 5.74513 11.9709 7.91266C11.9682 10.0791 10.192 11.8347 8 11.8373ZM8 5.36635C6.5804 5.36635 5.42959 6.50376 5.42959 7.90682C5.42959 9.30988 6.5804 10.4473 8 10.4473C9.4196 10.4473 10.5704 9.30988 10.5704 7.90682C10.5677 6.50487 9.41847 5.36903 8 5.36635Z" fill="#FF3366"/>
</svg>
