<svg width="45" height="60" viewBox="0 0 45 60" fill="none" xmlns="http://www.w3.org/2000/svg">
    <ellipse cx="22.352" cy="21.999" rx="11.9626" ry="12" fill="#FAA740"/>
    <g opacity="0.6">
        <path d="M22.3512 0C10.2593 0 0.420654 9.86937 0.420654 22.0003C0.420654 25.1645 1.06628 28.1856 2.33863 30.9805C7.82188 43.0166 18.3348 55.7242 21.427 59.3318C21.6586 59.6015 21.9964 59.7569 22.3518 59.7569C22.7072 59.7569 23.045 59.6015 23.2767 59.3318C26.3676 55.7248 36.8805 43.0178 42.3656 30.9805C43.6386 28.1856 44.2836 25.1645 44.2836 22.0003C44.2824 9.86937 34.4437 0 22.3512 0ZM22.3512 33.4273C16.0699 33.4273 10.9592 28.3006 10.9592 21.9997C10.9592 15.6982 16.0699 10.5714 22.3512 10.5714C28.6325 10.5714 33.7432 15.6982 33.7432 21.9997C33.7439 28.3006 28.6331 33.4273 22.3512 33.4273Z" fill="#FAA740"/>
    </g>
</svg>
