<svg width="24" height="24" viewBox="0 0 24 24" fill="none" xmlns="http://www.w3.org/2000/svg">
    <path d="M22.6 9.4L14.8 7.2C14.9 6.1 14.9 5.3 14.9 5.3C14.9871 3.66785 13.8171 2.23781 12.2 2C10.7 2 9.5 3.5 9.5 5.4C9.49999 6.00139 9.53337 6.60231 9.6 7.2L1.8 9.4C1.33799 9.51424 1.01004 9.92418 1 10.4V11.7C1.03458 12.2373 1.46269 12.6654 2 12.7H9.9C10 14.2 10.1 15.5 10.2 16.6H10.1L7.7 18.1C7.30086 18.3578 7.10202 18.835 7.2 19.3L7.4 20.1C7.52137 20.5574 7.92711 20.882 8.4 20.9H8.6L11 20.4C11.1921 20.9819 11.6944 21.4068 12.3 21.5C12.9218 21.4438 13.4416 21.0039 13.6 20.4L16 20.9H16.2C16.6758 20.89 17.0858 20.562 17.2 20.1L17.4 19.3C17.498 18.835 17.2991 18.3578 16.9 18.1L14.5 16.6H14.4C14.5 15.5 14.6 14.2 14.7 12.7H22.6C23.1373 12.6654 23.5654 12.2373 23.6 11.7V10.4C23.4036 9.95322 23.0468 9.59638 22.6 9.4ZM9.8 11.7H2.1V10.5L9.7 8.4V10.2C9.67885 10.5696 9.71255 10.9403 9.8 11.3V11.7ZM8.4 19.8L8.3 19L10.3 17.7V17.8L10.4 18.3C10.3844 18.4728 10.4192 18.6465 10.5 18.8C10.5235 18.9685 10.5569 19.1354 10.6 19.3V19.4L8.4 19.8ZM12.2 20.5C12.1 20.5 12 20.3 11.9 19.9C11.9 19.8 11.8 19.7 11.8 19.6V19.5C11.8137 19.39 11.7769 19.2798 11.7 19.2C11.7 19.1 11.6 18.9 11.6 18.8V18.7L11.5 18.2L11.4 17.5C11.2 15.9 11 13.9 10.9 11.3C10.9211 10.9304 10.8874 10.5597 10.8 10.2C10.7986 9.7648 10.7652 9.33029 10.7 8.9V7.7C10.6 6.5 10.6 5.7 10.6 5.4C10.6 4.2 11.3 3.2 12.2 3.2C13.1 3.2 13.8 4.2 13.8 5.4C13.8 5.5 13.8 6.4 13.7 7.7V8.5C13.7 9.3 13.6 10.3 13.5 11.3C13.3 14 13.1 16.1 12.9 17.7V17.8L12.8 18.2C12.7 18.5 12.7 18.9 12.6 19.1C12.5942 19.3466 12.5253 19.5876 12.4 19.8C12.5 20.2 12.3 20.5 12.2 20.5ZM16.1 19.1L15.9 19.8L13.7 19.4V19.3L13.8 18.9L14 17.9L16.1 19.1ZM22.4 11.7H14.6V11.4C14.7 10.4 14.7 8.9 14.7 8.9V8.4L22.3 10.5L22.4 11.7Z" fill="#3B3B69"/>
</svg>
