<svg width="24" height="24" viewBox="0 0 24 24" fill="none" xmlns="http://www.w3.org/2000/svg">
    <path d="M20 7.5377C19.4111 7.79864 18.7792 7.97561 18.1153 8.05461C18.7932 7.64868 19.3121 7.00481 19.558 6.23995C18.9222 6.61587 18.2203 6.88884 17.4724 7.03681C16.8735 6.39793 16.0217 6 15.0769 6C13.2642 6 11.7945 7.46973 11.7945 9.28139C11.7945 9.53833 11.8235 9.78928 11.8795 10.0293C9.152 9.89226 6.73346 8.58552 5.11477 6.59987C4.83182 7.08379 4.67085 7.64766 4.67085 8.24957C4.67085 9.38837 5.25075 10.3932 6.13059 10.981C5.59268 10.9631 5.08677 10.8151 4.64387 10.5691V10.6101C4.64387 12.1998 5.77566 13.5266 7.27637 13.8285C7.00141 13.9025 6.71148 13.9435 6.41153 13.9435C6.19958 13.9435 5.99461 13.9225 5.79365 13.8825C6.21156 15.1873 7.42335 16.1361 8.85909 16.1621C7.73629 17.0419 6.32055 17.5648 4.78285 17.5648C4.51791 17.5648 4.25694 17.5488 4 17.5198C5.45273 18.4527 7.17741 18.9966 9.03106 18.9966C15.0689 18.9966 18.3693 13.9955 18.3693 9.65833L18.3583 9.23341C19.0032 8.77346 19.561 8.19558 20 7.5377Z" fill="white"/>
</svg>
