<svg width="24" height="24" viewBox="0 0 24 24" fill="none" xmlns="http://www.w3.org/2000/svg">
    <path fill-rule="evenodd" clip-rule="evenodd" d="M18.82 5.11709C20.0187 5.18582 20.6075 5.36655 21.15 6.34909C21.715 7.33036 22 9.02055 22 11.9975V12.0013V12.0076C22 14.9705 21.715 16.6735 21.1513 17.6445C20.6088 18.6271 20.02 18.8053 18.8213 18.888C17.6225 18.958 14.6112 19 12.0025 19C9.38875 19 6.37625 18.958 5.17875 18.8867C3.9825 18.804 3.39375 18.6258 2.84625 17.6433C2.2875 16.6722 2 14.9693 2 12.0064V12.0038V12V11.9962C2 9.02055 2.2875 7.33036 2.84625 6.34909C3.39375 5.36527 3.98375 5.18582 5.18 5.11582C6.37625 5.03436 9.38875 5 12.0025 5C14.6112 5 17.6225 5.03436 18.82 5.11709ZM15.75 11.9988L9.5 8.18066V15.817L15.75 11.9988Z" fill="white"/>
</svg>
