<svg width="190" height="54" viewBox="0 0 190 54" fill="none" xmlns="http://www.w3.org/2000/svg">
    <rect x="0.5" y="0.5" width="189" height="53" rx="3.5" stroke="white"/>
    <path d="M80.5 36.91V42.61C79.0667 43.6433 77.4 44.16 75.5 44.16C74.3333 44.16 73.2767 43.98 72.33 43.62C71.39 43.2533 70.5867 42.7467 69.92 42.1C69.2533 41.4467 68.74 40.67 68.38 39.77C68.02 38.87 67.84 37.88 67.84 36.8C67.84 35.7133 68.0133 34.72 68.36 33.82C68.7067 32.9133 69.2033 32.1367 69.85 31.49C70.4967 30.8367 71.2767 30.3333 72.19 29.98C73.1033 29.62 74.13 29.44 75.27 29.44C75.85 29.44 76.3867 29.4867 76.88 29.58C77.38 29.6667 77.8433 29.79 78.27 29.95C78.6967 30.11 79.09 30.3033 79.45 30.53C79.81 30.7567 80.14 31.01 80.44 31.29L79.77 32.36C79.6633 32.5267 79.5267 32.63 79.36 32.67C79.1933 32.71 79.0133 32.67 78.82 32.55C78.6267 32.4367 78.42 32.3167 78.2 32.19C77.9867 32.0633 77.74 31.9467 77.46 31.84C77.18 31.7267 76.8567 31.6367 76.49 31.57C76.1233 31.4967 75.69 31.46 75.19 31.46C74.43 31.46 73.7433 31.5867 73.13 31.84C72.5233 32.0867 72.0033 32.4433 71.57 32.91C71.1367 33.37 70.8033 33.93 70.57 34.59C70.3367 35.25 70.22 35.9867 70.22 36.8C70.22 37.66 70.3433 38.43 70.59 39.11C70.8367 39.7833 71.1867 40.3567 71.64 40.83C72.0933 41.2967 72.64 41.6533 73.28 41.9C73.9267 42.1467 74.6467 42.27 75.44 42.27C76.0333 42.27 76.56 42.2067 77.02 42.08C77.4867 41.9533 77.9433 41.7767 78.39 41.55V38.69H76.38C76.2267 38.69 76.1067 38.65 76.02 38.57C75.9333 38.4833 75.89 38.3733 75.89 38.24V36.91H80.5Z" fill="white"/>
    <path d="M87.1536 33.64C87.9069 33.64 88.5869 33.7633 89.1936 34.01C89.8069 34.2567 90.3269 34.6067 90.7536 35.06C91.1869 35.5133 91.5203 36.0633 91.7536 36.71C91.9869 37.3567 92.1036 38.0833 92.1036 38.89C92.1036 39.6967 91.9869 40.4233 91.7536 41.07C91.5203 41.7167 91.1869 42.27 90.7536 42.73C90.3269 43.1833 89.8069 43.5333 89.1936 43.78C88.5869 44.0267 87.9069 44.15 87.1536 44.15C86.3936 44.15 85.7069 44.0267 85.0936 43.78C84.4869 43.5333 83.9669 43.1833 83.5336 42.73C83.1003 42.27 82.7669 41.7167 82.5336 41.07C82.3003 40.4233 82.1836 39.6967 82.1836 38.89C82.1836 38.0833 82.3003 37.3567 82.5336 36.71C82.7669 36.0633 83.1003 35.5133 83.5336 35.06C83.9669 34.6067 84.4869 34.2567 85.0936 34.01C85.7069 33.7633 86.3936 33.64 87.1536 33.64ZM87.1536 42.47C88.0736 42.47 88.7569 42.1633 89.2036 41.55C89.6569 40.93 89.8836 40.0467 89.8836 38.9C89.8836 37.7533 89.6569 36.87 89.2036 36.25C88.7569 35.6233 88.0736 35.31 87.1536 35.31C86.2203 35.31 85.5269 35.6233 85.0736 36.25C84.6203 36.87 84.3936 37.7533 84.3936 38.9C84.3936 40.0467 84.6203 40.93 85.0736 41.55C85.5269 42.1633 86.2203 42.47 87.1536 42.47Z" fill="white"/>
    <path d="M98.5794 33.64C99.3327 33.64 100.013 33.7633 100.619 34.01C101.233 34.2567 101.753 34.6067 102.179 35.06C102.613 35.5133 102.946 36.0633 103.179 36.71C103.413 37.3567 103.529 38.0833 103.529 38.89C103.529 39.6967 103.413 40.4233 103.179 41.07C102.946 41.7167 102.613 42.27 102.179 42.73C101.753 43.1833 101.233 43.5333 100.619 43.78C100.013 44.0267 99.3327 44.15 98.5794 44.15C97.8194 44.15 97.1327 44.0267 96.5194 43.78C95.9127 43.5333 95.3927 43.1833 94.9594 42.73C94.526 42.27 94.1927 41.7167 93.9594 41.07C93.726 40.4233 93.6094 39.6967 93.6094 38.89C93.6094 38.0833 93.726 37.3567 93.9594 36.71C94.1927 36.0633 94.526 35.5133 94.9594 35.06C95.3927 34.6067 95.9127 34.2567 96.5194 34.01C97.1327 33.7633 97.8194 33.64 98.5794 33.64ZM98.5794 42.47C99.4994 42.47 100.183 42.1633 100.629 41.55C101.083 40.93 101.309 40.0467 101.309 38.9C101.309 37.7533 101.083 36.87 100.629 36.25C100.183 35.6233 99.4994 35.31 98.5794 35.31C97.646 35.31 96.9527 35.6233 96.4994 36.25C96.046 36.87 95.8194 37.7533 95.8194 38.9C95.8194 40.0467 96.046 40.93 96.4994 41.55C96.9527 42.1633 97.646 42.47 98.5794 42.47Z" fill="white"/>
    <path d="M109.157 38.81C109.824 38.81 110.324 38.64 110.657 38.3C110.99 37.96 111.157 37.5167 111.157 36.97C111.157 36.41 110.99 35.9667 110.657 35.64C110.324 35.3133 109.824 35.15 109.157 35.15C108.497 35.15 107.997 35.3133 107.657 35.64C107.324 35.9667 107.157 36.41 107.157 36.97C107.157 37.2367 107.2 37.4833 107.287 37.71C107.374 37.9367 107.5 38.1333 107.667 38.3C107.834 38.46 108.04 38.5867 108.287 38.68C108.54 38.7667 108.83 38.81 109.157 38.81ZM112.147 44.5C112.147 44.2733 112.08 44.0933 111.947 43.96C111.82 43.82 111.647 43.7133 111.427 43.64C111.207 43.56 110.95 43.5033 110.657 43.47C110.364 43.43 110.05 43.4033 109.717 43.39C109.39 43.37 109.054 43.3533 108.707 43.34C108.367 43.32 108.037 43.2867 107.717 43.24C107.397 43.4067 107.134 43.6067 106.927 43.84C106.727 44.0733 106.627 44.3433 106.627 44.65C106.627 44.85 106.677 45.0367 106.777 45.21C106.884 45.3833 107.044 45.5333 107.257 45.66C107.477 45.7867 107.754 45.8867 108.087 45.96C108.427 46.0333 108.834 46.07 109.307 46.07C110.254 46.07 110.964 45.9233 111.437 45.63C111.91 45.3367 112.147 44.96 112.147 44.5ZM114.307 34.17V34.97C114.307 35.2367 114.147 35.4 113.827 35.46L112.807 35.63C112.98 36.0167 113.067 36.4467 113.067 36.92C113.067 37.42 112.967 37.8733 112.767 38.28C112.574 38.6867 112.304 39.0333 111.957 39.32C111.61 39.6067 111.197 39.8267 110.717 39.98C110.237 40.1333 109.717 40.21 109.157 40.21C108.944 40.21 108.734 40.2 108.527 40.18C108.327 40.1533 108.13 40.12 107.937 40.08C107.744 40.1933 107.6 40.3133 107.507 40.44C107.414 40.5667 107.367 40.6967 107.367 40.83C107.367 41.05 107.464 41.2133 107.657 41.32C107.85 41.4267 108.104 41.5033 108.417 41.55C108.737 41.5967 109.1 41.6267 109.507 41.64C109.914 41.6533 110.327 41.6767 110.747 41.71C111.167 41.7433 111.58 41.8 111.987 41.88C112.394 41.9533 112.754 42.08 113.067 42.26C113.387 42.4333 113.644 42.67 113.837 42.97C114.03 43.27 114.127 43.66 114.127 44.14C114.127 44.58 114.017 45.01 113.797 45.43C113.577 45.85 113.257 46.2233 112.837 46.55C112.424 46.8767 111.917 47.1367 111.317 47.33C110.717 47.53 110.034 47.63 109.267 47.63C108.507 47.63 107.844 47.5567 107.277 47.41C106.717 47.2633 106.247 47.0633 105.867 46.81C105.494 46.5633 105.214 46.2767 105.027 45.95C104.847 45.6233 104.757 45.2833 104.757 44.93C104.757 44.45 104.907 44.04 105.207 43.7C105.514 43.36 105.927 43.0933 106.447 42.9C106.167 42.7667 105.94 42.5833 105.767 42.35C105.6 42.1167 105.517 41.81 105.517 41.43C105.517 41.13 105.627 40.8167 105.847 40.49C106.067 40.1633 106.397 39.8867 106.837 39.66C106.33 39.38 105.93 39.01 105.637 38.55C105.344 38.0833 105.197 37.54 105.197 36.92C105.197 36.4133 105.294 35.9567 105.487 35.55C105.687 35.1433 105.964 34.7967 106.317 34.51C106.67 34.2233 107.087 34.0033 107.567 33.85C108.054 33.6967 108.584 33.62 109.157 33.62C110.037 33.62 110.804 33.8033 111.457 34.17H114.307Z" fill="white"/>
    <path d="M118.195 29.2V44H116.045V29.2H118.195Z" fill="white"/>
    <path d="M127.539 37.75C127.539 37.39 127.486 37.0567 127.379 36.75C127.279 36.4367 127.129 36.1667 126.929 35.94C126.729 35.7067 126.479 35.5267 126.179 35.4C125.886 35.2667 125.546 35.2 125.159 35.2C124.379 35.2 123.766 35.4233 123.319 35.87C122.872 36.3167 122.589 36.9433 122.469 37.75H127.539ZM122.409 39.07C122.436 39.65 122.526 40.1533 122.679 40.58C122.832 41 123.036 41.35 123.289 41.63C123.549 41.91 123.856 42.12 124.209 42.26C124.569 42.3933 124.969 42.46 125.409 42.46C125.829 42.46 126.192 42.4133 126.499 42.32C126.806 42.22 127.072 42.1133 127.299 42C127.526 41.88 127.719 41.7733 127.879 41.68C128.039 41.58 128.186 41.53 128.319 41.53C128.492 41.53 128.626 41.5967 128.719 41.73L129.329 42.52C129.076 42.82 128.789 43.0733 128.469 43.28C128.149 43.4867 127.809 43.6567 127.449 43.79C127.089 43.9167 126.719 44.0067 126.339 44.06C125.959 44.12 125.589 44.15 125.229 44.15C124.522 44.15 123.866 44.0333 123.259 43.8C122.659 43.56 122.136 43.21 121.689 42.75C121.249 42.29 120.902 41.72 120.649 41.04C120.402 40.36 120.279 39.5767 120.279 38.69C120.279 37.9833 120.389 37.3233 120.609 36.71C120.836 36.0967 121.156 35.5633 121.569 35.11C121.989 34.6567 122.496 34.3 123.089 34.04C123.689 33.7733 124.366 33.64 125.119 33.64C125.746 33.64 126.326 33.7433 126.859 33.95C127.392 34.15 127.852 34.4467 128.239 34.84C128.626 35.2333 128.926 35.7167 129.139 36.29C129.359 36.8567 129.469 37.5033 129.469 38.23C129.469 38.5633 129.432 38.7867 129.359 38.9C129.286 39.0133 129.152 39.07 128.959 39.07H122.409Z" fill="white"/>
    <path d="M141.335 36.94C141.855 36.94 142.311 36.8733 142.705 36.74C143.105 36.6067 143.435 36.42 143.695 36.18C143.961 35.9333 144.161 35.6367 144.295 35.29C144.428 34.9433 144.495 34.5567 144.495 34.13C144.495 33.71 144.428 33.3333 144.295 33C144.168 32.6667 143.975 32.3833 143.715 32.15C143.455 31.9167 143.125 31.74 142.725 31.62C142.331 31.4933 141.868 31.43 141.335 31.43H139.195V36.94H141.335ZM141.335 29.6C142.275 29.6 143.088 29.71 143.775 29.93C144.468 30.15 145.038 30.46 145.485 30.86C145.938 31.2533 146.275 31.73 146.495 32.29C146.715 32.8433 146.825 33.4567 146.825 34.13C146.825 34.8167 146.708 35.4467 146.475 36.02C146.241 36.5867 145.895 37.0767 145.435 37.49C144.975 37.8967 144.401 38.2167 143.715 38.45C143.035 38.6767 142.241 38.79 141.335 38.79H139.195V44H136.855V29.6H141.335Z" fill="white"/>
    <path d="M150.793 29.2V44H148.643V29.2H150.793Z" fill="white"/>
    <path d="M158.897 39.54C158.13 39.5667 157.483 39.63 156.957 39.73C156.43 39.8233 156.003 39.9467 155.677 40.1C155.35 40.2467 155.113 40.4233 154.967 40.63C154.827 40.8367 154.757 41.0633 154.757 41.31C154.757 41.55 154.793 41.7567 154.867 41.93C154.947 42.0967 155.053 42.2367 155.187 42.35C155.327 42.4567 155.487 42.5367 155.667 42.59C155.853 42.6367 156.057 42.66 156.277 42.66C156.837 42.66 157.317 42.5567 157.717 42.35C158.123 42.1367 158.517 41.83 158.897 41.43V39.54ZM153.197 35.22C154.35 34.1467 155.723 33.61 157.317 33.61C157.903 33.61 158.423 33.7067 158.877 33.9C159.337 34.0867 159.72 34.3533 160.027 34.7C160.34 35.0467 160.577 35.46 160.737 35.94C160.903 36.4133 160.987 36.94 160.987 37.52V44H160.027C159.82 44 159.663 43.97 159.557 43.91C159.45 43.8433 159.36 43.7133 159.287 43.52L159.077 42.69C158.817 42.9233 158.56 43.1333 158.307 43.32C158.053 43.5 157.79 43.6533 157.517 43.78C157.25 43.9067 156.96 44 156.647 44.06C156.34 44.1267 156 44.16 155.627 44.16C155.213 44.16 154.827 44.1033 154.467 43.99C154.113 43.8767 153.807 43.7067 153.547 43.48C153.287 43.2467 153.08 42.96 152.927 42.62C152.78 42.28 152.707 41.88 152.707 41.42C152.707 41.0267 152.81 40.6433 153.017 40.27C153.23 39.8967 153.577 39.5633 154.057 39.27C154.543 38.97 155.18 38.7233 155.967 38.53C156.76 38.3367 157.737 38.2267 158.897 38.2V37.52C158.897 36.7867 158.74 36.24 158.427 35.88C158.113 35.52 157.653 35.34 157.047 35.34C156.633 35.34 156.287 35.3933 156.007 35.5C155.727 35.6 155.483 35.71 155.277 35.83C155.07 35.95 154.887 36.0633 154.727 36.17C154.567 36.27 154.397 36.32 154.217 36.32C154.07 36.32 153.943 36.2833 153.837 36.21C153.737 36.13 153.653 36.0333 153.587 35.92L153.197 35.22Z" fill="white"/>
    <path d="M172.282 33.8L166.662 46.9C166.589 47.0533 166.499 47.1733 166.392 47.26C166.292 47.3467 166.135 47.39 165.922 47.39H164.332L166.212 43.31L162.052 33.8H163.922C164.102 33.8 164.239 33.8433 164.332 33.93C164.432 34.01 164.505 34.1067 164.552 34.22L166.982 40.01C167.042 40.1767 167.095 40.3433 167.142 40.51C167.195 40.67 167.245 40.8367 167.292 41.01C167.345 40.8367 167.399 40.6667 167.452 40.5C167.505 40.3333 167.565 40.1667 167.632 40L169.962 34.22C170.009 34.1 170.085 34 170.192 33.92C170.305 33.84 170.429 33.8 170.562 33.8H172.282Z" fill="white"/>
    <path d="M76.429 16.177V20.027C75.925 20.391 75.386 20.664 74.812 20.846C74.2427 21.0233 73.6173 21.112 72.936 21.112C72.1287 21.112 71.4007 20.9883 70.752 20.741C70.1033 20.489 69.548 20.139 69.086 19.691C68.6287 19.2383 68.2763 18.697 68.029 18.067C67.7817 17.437 67.658 16.744 67.658 15.988C67.658 15.2227 67.777 14.525 68.015 13.895C68.2577 13.265 68.6007 12.726 69.044 12.278C69.4873 11.8253 70.0263 11.4753 70.661 11.228C71.2957 10.9807 72.005 10.857 72.789 10.857C73.1857 10.857 73.5543 10.8873 73.895 10.948C74.2357 11.004 74.5507 11.088 74.84 11.2C75.1293 11.3073 75.3977 11.4403 75.645 11.599C75.8923 11.753 76.1233 11.928 76.338 12.124L75.953 12.74C75.8923 12.8333 75.813 12.894 75.715 12.922C75.6217 12.9453 75.5167 12.922 75.4 12.852C75.288 12.7867 75.1597 12.7073 75.015 12.614C74.8703 12.5207 74.693 12.432 74.483 12.348C74.2777 12.2593 74.0327 12.1847 73.748 12.124C73.468 12.0633 73.1343 12.033 72.747 12.033C72.1823 12.033 71.6713 12.1263 71.214 12.313C70.7567 12.495 70.367 12.7587 70.045 13.104C69.723 13.4447 69.4757 13.86 69.303 14.35C69.1303 14.8353 69.044 15.3813 69.044 15.988C69.044 16.618 69.1327 17.1827 69.31 17.682C69.492 18.1767 69.7487 18.599 70.08 18.949C70.416 19.2943 70.822 19.558 71.298 19.74C71.774 19.922 72.3083 20.013 72.901 20.013C73.3677 20.013 73.7807 19.9617 74.14 19.859C74.504 19.7517 74.8587 19.6047 75.204 19.418V17.213H73.643C73.5543 17.213 73.482 17.1873 73.426 17.136C73.3747 17.0847 73.349 17.0217 73.349 16.947V16.177H76.429Z" fill="white"/>
    <path d="M84.6956 19.894L84.6886 21H78.5076V10.969H84.6886V12.075H79.8656V15.407H83.7716V16.471H79.8656V19.894H84.6956Z" fill="white"/>
    <path d="M93.3706 12.11H90.1226V21H88.7716V12.11H85.5166V10.969H93.3706V12.11Z" fill="white"/>
    <path d="M99.3753 21H98.0173V10.969H99.3753V21Z" fill="white"/>
    <path d="M108.724 12.11H105.476V21H104.125V12.11H100.87V10.969H108.724V12.11Z" fill="white"/>
    <path d="M122.639 15.988C122.639 16.7393 122.52 17.43 122.282 18.06C122.044 18.6853 121.708 19.2243 121.274 19.677C120.84 20.1297 120.317 20.482 119.706 20.734C119.099 20.9813 118.427 21.105 117.69 21.105C116.953 21.105 116.281 20.9813 115.674 20.734C115.067 20.482 114.547 20.1297 114.113 19.677C113.679 19.2243 113.343 18.6853 113.105 18.06C112.867 17.43 112.748 16.7393 112.748 15.988C112.748 15.2367 112.867 14.5483 113.105 13.923C113.343 13.293 113.679 12.7517 114.113 12.299C114.547 11.8417 115.067 11.487 115.674 11.235C116.281 10.983 116.953 10.857 117.69 10.857C118.427 10.857 119.099 10.983 119.706 11.235C120.317 11.487 120.84 11.8417 121.274 12.299C121.708 12.7517 122.044 13.293 122.282 13.923C122.52 14.5483 122.639 15.2367 122.639 15.988ZM121.246 15.988C121.246 15.372 121.162 14.819 120.994 14.329C120.826 13.839 120.588 13.426 120.28 13.09C119.972 12.7493 119.599 12.488 119.16 12.306C118.721 12.124 118.231 12.033 117.69 12.033C117.153 12.033 116.666 12.124 116.227 12.306C115.788 12.488 115.413 12.7493 115.1 13.09C114.792 13.426 114.554 13.839 114.386 14.329C114.218 14.819 114.134 15.372 114.134 15.988C114.134 16.604 114.218 17.157 114.386 17.647C114.554 18.1323 114.792 18.5453 115.1 18.886C115.413 19.222 115.788 19.481 116.227 19.663C116.666 19.8403 117.153 19.929 117.69 19.929C118.231 19.929 118.721 19.8403 119.16 19.663C119.599 19.481 119.972 19.222 120.28 18.886C120.588 18.5453 120.826 18.1323 120.994 17.647C121.162 17.157 121.246 16.604 121.246 15.988Z" fill="white"/>
    <path d="M132.709 10.969V21H132.03C131.922 21 131.831 20.9813 131.757 20.944C131.687 20.9067 131.617 20.8437 131.547 20.755L125.744 13.195C125.753 13.3117 125.76 13.426 125.765 13.538C125.769 13.65 125.772 13.755 125.772 13.853V21H124.582V10.969H125.282C125.342 10.969 125.394 10.9737 125.436 10.983C125.478 10.9877 125.515 10.9993 125.548 11.018C125.58 11.032 125.613 11.0553 125.646 11.088C125.678 11.116 125.713 11.1533 125.751 11.2L131.554 18.753C131.544 18.6317 131.535 18.515 131.526 18.403C131.521 18.2863 131.519 18.1767 131.519 18.074V10.969H132.709Z" fill="white"/>
    <path d="M21.2787 6.51026C20.2578 5.88994 19.0411 5.83447 17.9799 6.35088L35.7721 24.3479L41.5895 18.4487L21.2787 6.51026ZM16.3452 8.01652C16.1207 8.49621 16 9.02981 16 9.57904V42.4997C16 43.0512 16.1215 43.577 16.3483 44.0466L34.1335 26.0097L16.3452 8.01652ZM35.7745 27.6691L18.011 45.6841C18.4823 45.9044 18.9839 46.0005 19.4847 46.0005C20.1031 46.0005 20.72 45.8513 21.2788 45.5122L41.5935 33.5558L35.7745 27.6691ZM49.325 22.9956C49.3181 22.9909 49.3103 22.9862 49.3034 22.9823L43.6639 19.6674L37.4123 26.0073L43.6678 32.3347C43.6678 32.3347 49.3181 29.0097 49.325 29.0058C50.3738 28.3628 51 27.2394 51 26.0003C51 24.7612 50.3738 23.6378 49.325 22.9956Z" fill="white"/>
</svg>
