<svg width="85" height="85" viewBox="0 0 85 85" fill="none" xmlns="http://www.w3.org/2000/svg">
<path opacity="0.247347" d="M42.5 85C65.9721 85 85 65.9721 85 42.5C85 19.0279 65.9721 0 42.5 0C19.0279 0 0 19.0279 0 42.5C0 65.9721 19.0279 85 42.5 85Z" fill="#7BF4BB"/>
<path fill-rule="evenodd" clip-rule="evenodd" d="M29.8895 55.2714V55.2714C27.6075 55.2714 25.7576 53.4963 25.7576 51.3065V44.9625C25.7576 42.7726 27.6075 40.9975 29.8895 40.9975V40.9975C32.1715 40.9975 34.0215 42.7726 34.0215 44.9625V51.3065C34.0215 53.4963 32.1715 55.2714 29.8895 55.2714V55.2714ZM48.2954 51.5151V40.9975C48.2954 38.9229 46.4455 37.2411 44.1635 37.2411V37.2411C41.8815 37.2411 40.0316 38.9229 40.0316 40.9975V51.5151C40.0316 53.5897 41.8815 55.2714 44.1635 55.2714V55.2714C46.4455 55.2714 48.2954 53.5897 48.2954 51.5151ZM61.8182 51.4108V31.3354C61.8182 29.2032 59.9682 27.4747 57.6862 27.4747V27.4747C55.4042 27.4747 53.5543 29.2032 53.5543 31.3354V51.4108C53.5543 53.543 55.4042 55.2714 57.6862 55.2714V55.2714C59.9682 55.2714 61.8182 53.543 61.8182 51.4108Z" fill="#98F5D2"/>
</svg>
