<svg width="280" height="243" viewBox="0 0 280 243" fill="none" xmlns="http://www.w3.org/2000/svg">
<g opacity="0.266974">
<path fill-rule="evenodd" clip-rule="evenodd" d="M231.456 110.127C224.418 108.064 217.38 107.017 210.534 107.017C199.962 107.017 191.141 109.477 184.301 112.49C190.895 87.9072 206.736 45.4904 238.293 40.7137C241.216 40.2711 243.611 38.1193 244.408 35.2227L251.305 10.1029C251.886 7.97852 251.542 5.70461 250.352 3.86107C249.162 2.01752 247.249 0.787475 245.106 0.488356C242.777 0.16482 240.403 0 238.05 0C200.172 0 162.66 40.2589 146.83 97.9032C137.538 131.722 134.814 182.566 157.702 214.569C170.51 232.476 189.196 242.039 213.241 242.994C213.34 242.997 213.436 243 213.535 243C243.203 243 269.511 222.654 277.514 193.526C282.295 176.114 280.134 157.852 271.424 142.093C262.806 126.512 248.613 115.154 231.456 110.127Z" fill="#E8EFF6"/>
<path fill-rule="evenodd" clip-rule="evenodd" d="M131.423 142.095C122.805 126.51 108.612 115.153 91.4546 110.126C84.4166 108.063 77.3786 107.016 70.5354 107.016C59.9634 107.016 51.1389 109.476 44.2987 112.488C50.8931 87.9061 66.7346 45.4898 98.2947 40.7131C101.217 40.2706 103.609 38.1188 104.41 35.2223L111.307 10.1027C111.888 7.97842 111.543 5.70454 110.353 3.86102C109.166 2.0175 107.254 0.787465 105.108 0.48835C102.782 0.164818 100.408 0 98.052 0C60.1732 0 22.6602 40.2584 6.82764 97.902C-2.46145 131.72 -5.18613 182.564 17.7054 214.572C30.5105 232.476 49.1996 242.042 73.2421 242.994C73.341 242.997 73.4369 243 73.5388 243C103.205 243 129.516 222.654 137.519 193.527C142.294 176.114 140.13 157.85 131.423 142.095Z" fill="#E8EFF6"/>
</g>
</svg>
