<svg width="85" height="85" viewBox="0 0 85 85" fill="none" xmlns="http://www.w3.org/2000/svg">
<path opacity="0.247347" d="M42.5 85C65.9721 85 85 65.9721 85 42.5C85 19.0279 65.9721 0 42.5 0C19.0279 0 0 19.0279 0 42.5C0 65.9721 19.0279 85 42.5 85Z" fill="#FBE288"/>
<path fill-rule="evenodd" clip-rule="evenodd" d="M42.0996 57C35.8873 56.9955 30.6864 52.2896 30.062 46.1081C29.4376 39.9267 33.5922 34.2755 39.678 33.0284C40.4325 32.8745 41.1689 33.3615 41.3228 34.1161C41.4766 34.8706 40.9897 35.6071 40.2352 35.761C35.6661 36.6978 32.4925 40.8677 32.8066 45.5218C33.1208 50.1759 36.8259 53.8814 41.4795 54.1956C46.1331 54.5098 50.3026 51.3359 51.2393 46.7663C51.3932 46.0117 52.1296 45.5247 52.8841 45.6786C53.6386 45.8325 54.1255 46.5689 53.9716 47.3235C52.8045 52.9535 47.8487 56.9928 42.0996 57ZM44 33.1494V41.8932C44 42.5044 44.4951 43 45.1058 43H53.8862C54.204 43.0023 54.5074 42.8676 54.719 42.6303C54.9307 42.3931 55.0301 42.0761 54.992 41.7603C54.4115 36.6349 50.3705 32.5904 45.2496 32.0094C44.9342 31.968 44.6163 32.0645 44.3771 32.2743C44.1379 32.4841 44.0005 32.7868 44 33.1051V33.1494Z" fill="#FFE084"/>
</svg>
