<svg width="85" height="86" viewBox="0 0 85 86" fill="none" xmlns="http://www.w3.org/2000/svg">
<path opacity="0.247347" d="M42.5 85.1299C65.9721 85.1299 85 66.102 85 42.6299C85 19.1578 65.9721 0.129944 42.5 0.129944C19.0279 0.129944 0 19.1578 0 42.6299C0 66.102 19.0279 85.1299 42.5 85.1299Z" fill="#D39DF0"/>
<path opacity="0.345498" fill-rule="evenodd" clip-rule="evenodd" d="M44.1571 50.2677L47.0658 52.9205C47.7836 53.574 48.1397 54.5288 48.0228 55.4865C47.9058 56.4442 47.3301 57.2878 46.4756 57.7538V57.7538C45.3319 58.3804 43.9108 58.2125 42.9487 57.3371L38.5786 53.3649C37.6969 52.5862 36.4162 52.4363 35.3749 52.9899V52.9899C34.7227 53.3476 33.9536 53.4343 33.2367 53.2311C32.5198 53.028 31.9141 52.5515 31.5528 51.9066L29.5294 48.2955C28.9867 47.3287 28.855 46.1883 29.1633 45.1255C29.4717 44.0626 30.1948 43.1645 31.1734 42.6289L40.4334 37.5734C41.1357 37.1856 41.711 36.6073 42.0915 35.9067L46.9955 27.1984C47.3678 26.5388 48.0721 26.1299 48.8363 26.1299C49.6005 26.1299 50.3048 26.5388 50.6771 27.1984L60.738 45.1844C61.1232 45.875 61.081 46.7213 60.6289 47.371C60.1768 48.0207 59.3923 48.3624 58.6022 48.2539L48.3164 46.865C47.4103 46.7409 46.4881 46.9116 45.6887 47.3511L44.4241 48.0455C44.0353 48.2635 43.7746 48.6512 43.7219 49.0899C43.6692 49.5286 43.8308 49.9659 44.1571 50.2677V50.2677Z" fill="#C763FD"/>
</svg>
