<svg width="16" height="16" viewBox="0 0 16 16" fill="none" xmlns="http://www.w3.org/2000/svg">
    <path fill-rule="evenodd" clip-rule="evenodd" d="M13.9466 0H2.0544C0.924587 0 0 0.923947 0 2.05376V13.9459C0 15.0754 0.924587 15.9987 2.0544 15.9987H13.9466C15.0764 15.9987 16 15.0754 16 13.9459V2.05376C16 0.923947 15.0764 0 13.9466 0ZM10.9355 2.49672C10.9355 2.10024 11.2591 1.77539 11.6558 1.77539H13.464C13.86 1.77539 14.1843 2.10024 14.1843 2.49672V4.22014C14.1843 4.61678 13.86 4.94088 13.464 4.94088H11.6558C11.2591 4.94088 10.9355 4.61678 10.9355 4.22014V2.49672ZM14.1912 6.76562H12.7834C12.9169 7.20162 12.9892 7.66141 12.9892 8.13944C12.9892 10.7998 10.7617 12.9576 8.01506 12.9576C5.26909 12.9576 3.04151 10.7998 3.04151 8.13944C3.04151 7.66141 3.11458 7.20162 3.24743 6.76562H1.77869V13.5247C1.77869 13.8747 2.0645 14.1594 2.41421 14.1594H13.5559C13.9059 14.1594 14.1912 13.8747 14.1912 13.5247V6.76562ZM4.80225 7.96559C4.80225 6.24506 6.24118 4.85156 8.01505 4.85156C9.78987 4.85156 11.2289 6.245 11.2289 7.96559C11.2289 9.68436 9.78987 11.0789 8.01505 11.0789C6.24118 11.0789 4.80225 9.68436 4.80225 7.96559Z" fill="white"/>
</svg>
