<svg width="89" height="124" viewBox="0 0 89 124" fill="none" xmlns="http://www.w3.org/2000/svg">
<g clip-path="url(#clip0)">
<path d="M44.9199 0C22.2458 0 3.8645 18.5647 3.8645 41.4712C3.8645 64.3777 22.2458 82.9405 44.9199 82.9405C67.594 82.9405 85.9762 64.3767 85.9762 41.4712C85.9762 18.5657 67.5959 0 44.9199 0ZM44.5095 3.86327C62.4446 3.86327 77.4144 16.6832 80.9223 33.7475C80.9502 33.8834 80.9323 34.0248 80.8715 34.1493C80.8107 34.2738 80.7104 34.3742 80.5867 34.4345C80.463 34.4949 80.3228 34.5117 80.1885 34.4824C80.0542 34.4531 79.9334 34.3794 79.8454 34.2728C76.2372 29.8709 70.8778 24.3143 64.1881 20.2332L64.2061 20.2447C62.1656 18.9904 60.0235 17.913 57.8029 17.0242C57.7979 17.0228 57.7927 17.0228 57.7878 17.0242C56.6734 16.5799 55.5373 16.1936 54.3838 15.8666C54.3517 15.8561 54.3167 15.8485 54.2845 15.838C53.5376 15.6279 52.7783 15.4435 52.0152 15.285C51.9831 15.2793 51.9481 15.2697 51.916 15.2649C51.5462 15.1876 51.1756 15.1207 50.8031 15.0586L50.6376 15.0309C50.2594 14.9673 49.8789 14.9122 49.4963 14.8657C49.4917 14.8672 49.4868 14.8672 49.4821 14.8657C49.1086 14.8199 48.7323 14.7826 48.3522 14.7511C48.2577 14.7387 48.1631 14.7358 48.0686 14.7186C47.8034 14.6711 47.534 14.6515 47.2648 14.6604C47.1296 14.6604 46.9812 14.6604 46.8479 14.6604C46.4611 14.646 46.0772 14.6365 45.6877 14.6365H45.5061C45.3567 14.6365 45.2045 14.6365 45.0561 14.6422C44.8461 14.6422 44.6391 14.6556 44.4311 14.6642C30.5316 15.3327 19.4688 27.0649 19.4688 41.4378C19.4599 45.3343 20.2901 49.1863 21.9017 52.7265C23.5134 56.2668 25.8679 59.4107 28.8022 61.9403C28.8221 61.9595 28.8342 61.9855 28.8363 62.0132C28.8384 62.0409 28.8303 62.0684 28.8135 62.0904C28.7967 62.1124 28.7725 62.1274 28.7455 62.1325C28.7184 62.1376 28.6905 62.1324 28.667 62.118C25.5994 60.0432 22.9905 57.3493 21.0044 54.2059C19.0183 51.0626 17.6981 47.5379 17.1269 43.8538C16.5558 40.1698 16.7461 36.4061 17.6858 32.8C18.6255 29.1939 20.2944 25.8234 22.5872 22.9007C22.9777 22.4041 22.365 21.7394 21.8506 22.1042C16.4884 25.8987 12.1351 30.485 9.05363 34.2394C8.69054 34.6825 7.98612 34.3349 8.10147 33.7695C11.599 16.6928 26.5698 3.86327 44.5095 3.86327ZM58.4402 35.5526H54.0775C53.9872 35.5526 53.9006 35.5888 53.8368 35.6533C53.7729 35.7178 53.7371 35.8052 53.7371 35.8964V46.1157C53.7371 46.2069 53.7012 46.2943 53.6374 46.3588C53.5735 46.4233 53.4869 46.4595 53.3967 46.4595H52.5892C52.4989 46.4595 52.4123 46.4233 52.3485 46.3588C52.2846 46.2943 52.2488 46.2069 52.2488 46.1157V42.3097C52.2488 42.2185 52.2129 42.1311 52.1491 42.0666C52.0853 42.0021 51.9987 41.9659 51.9084 41.9659H50.9298C50.8396 41.9657 50.7531 41.9294 50.6893 41.8649C50.6256 41.8005 50.5896 41.7132 50.5894 41.6221V39.01C50.5894 38.9609 50.579 38.9125 50.5589 38.8678C50.5389 38.8232 50.5096 38.7834 50.4731 38.7511L48.1811 36.7359C48.1188 36.6819 48.0395 36.6523 47.9575 36.6523C47.8754 36.6523 47.7961 36.6819 47.7338 36.7359L45.4418 38.7511C45.4053 38.7834 45.376 38.8232 45.356 38.8678C45.3359 38.9125 45.3255 38.9609 45.3255 39.01V41.6221C45.3255 41.6672 45.3167 41.7119 45.2996 41.7537C45.2825 41.7954 45.2574 41.8333 45.2258 41.8652C45.1942 41.8971 45.1567 41.9225 45.1154 41.9397C45.0741 41.957 45.0298 41.9659 44.9851 41.9659H44.0112C43.921 41.9659 43.8344 42.0021 43.7705 42.0666C43.7067 42.1311 43.6708 42.2185 43.6708 42.3097V48.5855C43.6708 48.6767 43.635 48.7642 43.5711 48.8286C43.5073 48.8931 43.4207 48.9293 43.3304 48.9293H42.4936C42.4489 48.9293 42.4047 48.9205 42.3634 48.9032C42.3221 48.8859 42.2846 48.8606 42.2529 48.8286C42.2213 48.7967 42.1963 48.7588 42.1792 48.7171C42.162 48.6754 42.1532 48.6307 42.1532 48.5855V38.6069C42.1532 38.5155 42.1173 38.4278 42.0533 38.3631C41.9893 38.2985 41.9024 38.2621 41.8119 38.2621H39.8584C39.8137 38.2623 39.7694 38.2535 39.728 38.2362C39.6866 38.219 39.6491 38.1937 39.6174 38.1617C39.5858 38.1298 39.5607 38.0918 39.5437 38.05C39.5266 38.0083 39.5179 37.9635 39.518 37.9183V30.9138C39.518 30.8538 39.5025 30.7949 39.4729 30.7429C39.4434 30.6908 39.4009 30.6475 39.3497 30.6172C39.2985 30.5869 39.2403 30.5706 39.1809 30.57C39.1215 30.5695 39.063 30.5846 39.0112 30.6139L34.4282 33.2002C34.3752 33.23 34.3311 33.2735 34.3004 33.3262C34.2696 33.3789 34.2534 33.439 34.2533 33.5001V43.0365C34.2533 43.1277 34.2174 43.2152 34.1535 43.2797C34.0897 43.3442 34.0031 43.3804 33.9129 43.3804H32.8728C32.7826 43.3801 32.6961 43.3438 32.6323 43.2794C32.5686 43.215 32.5326 43.1277 32.5324 43.0365V39.2449C32.5324 39.1537 32.4965 39.0663 32.4327 39.0018C32.3688 38.9373 32.2822 38.9011 32.192 38.9011H31.0025C30.9122 38.9011 30.8256 38.8649 30.7618 38.8004C30.6979 38.7359 30.6621 38.6484 30.6621 38.5573V37.5067C30.6621 37.4155 30.6262 37.328 30.5624 37.2636C30.4985 37.1991 30.412 37.1628 30.3217 37.1628H27.7876C29.6702 29.6483 36.4081 24.0869 44.4292 24.0869C47.9625 24.0868 51.4098 25.1872 54.3014 27.2381C57.193 29.2891 59.3881 32.1908 60.5875 35.5478C61.3658 37.7275 61.7027 40.0428 61.5784 42.3565C61.134 50.9436 54.3753 57.9968 45.8919 58.7083C42.0698 59.0401 38.2481 58.0646 35.0409 55.9386C35.011 55.9195 34.9893 55.8897 34.9802 55.8552C34.9711 55.8207 34.9751 55.784 34.9915 55.7523C35.008 55.7207 35.0356 55.6964 35.0689 55.6844C35.1022 55.6724 35.1388 55.6735 35.1714 55.6874C37.2597 56.5711 39.5014 57.0256 41.7656 57.0246C51.2484 57.0246 58.9375 49.2569 58.9375 39.6785C58.9363 38.288 58.7693 36.9028 58.4402 35.5526ZM44.5095 78.9998C26.5253 78.9998 11.5234 66.1063 8.06743 48.9685C8.04133 48.8471 8.05621 48.7203 8.10969 48.6084C8.16316 48.4965 8.25217 48.4058 8.36254 48.3509C8.47291 48.296 8.59829 48.2799 8.71873 48.3053C8.83917 48.3307 8.94774 48.3961 9.02716 48.491C15.6081 56.4334 27.9446 68.2333 43.1716 68.2333C43.5933 68.2333 44.0122 68.2218 44.4292 68.2018C44.8471 68.2218 45.265 68.2333 45.6867 68.2333C61.1407 68.2333 73.6209 56.0762 80.1243 48.1376C80.1983 48.0484 80.2996 47.9867 80.4123 47.9622C80.5249 47.9377 80.6424 47.9518 80.7462 48.0023C80.85 48.0528 80.9342 48.1368 80.9854 48.2411C81.0367 48.3453 81.0521 48.4638 81.0292 48.5779C77.7236 65.9077 62.6318 78.9998 44.5095 78.9998Z" fill="white"/>
<path d="M19.6578 111.096C19.5955 111.207 19.5088 111.303 19.4044 111.375C19.2994 111.433 19.1808 111.462 19.0611 111.457C18.8735 111.449 18.6911 111.392 18.5316 111.292C18.3375 111.181 18.1039 111.061 17.831 110.931C17.5199 110.786 17.1985 110.665 16.8694 110.569C16.4422 110.451 16.0006 110.395 15.5579 110.404C15.1722 110.399 14.7879 110.452 14.4176 110.561C14.1033 110.652 13.808 110.8 13.5458 110.998C13.3149 111.174 13.1262 111.401 12.9936 111.66C12.8668 111.915 12.8019 112.197 12.8045 112.482C12.7929 112.83 12.9129 113.169 13.1401 113.43C13.3904 113.7 13.6887 113.92 14.0195 114.078C14.4189 114.273 14.8327 114.436 15.2572 114.567C15.7193 114.712 16.192 114.865 16.6755 115.026C17.159 115.187 17.6318 115.37 18.0938 115.575C18.5397 115.77 18.9563 116.028 19.3315 116.339C19.6943 116.646 19.9932 117.022 20.2109 117.446C20.4353 117.878 20.5472 118.405 20.5466 119.027C20.5537 119.706 20.4251 120.38 20.1684 121.008C19.9182 121.611 19.5357 122.149 19.0498 122.581C18.5118 123.05 17.8857 123.405 17.2088 123.624C16.4052 123.887 15.5639 124.014 14.7192 124C13.7311 124.01 12.75 123.831 11.8277 123.473C11.0136 123.165 10.2609 122.713 9.60571 122.136L10.2922 121.006C10.3637 120.864 10.4755 120.746 10.6135 120.668C10.7514 120.591 10.9092 120.556 11.0666 120.569C11.2775 120.577 11.4808 120.65 11.6481 120.78C11.8466 120.921 12.0852 121.073 12.3639 121.239C12.6855 121.424 13.0251 121.576 13.3775 121.691C13.8605 121.839 14.364 121.907 14.8686 121.894C15.3084 121.901 15.7465 121.837 16.1659 121.703C16.5018 121.595 16.8132 121.421 17.0821 121.191C17.3165 120.987 17.5026 120.733 17.6267 120.446C17.7458 120.165 17.8067 119.863 17.8054 119.557C17.8178 119.193 17.6984 118.837 17.4698 118.556C17.2233 118.272 16.9247 118.04 16.5904 117.871C16.1917 117.666 15.7748 117.5 15.3451 117.374C14.878 117.234 14.4012 117.083 13.9145 116.923C13.4281 116.762 12.9503 116.576 12.483 116.365C12.0318 116.163 11.6136 115.893 11.2424 115.564C10.8743 115.236 10.5753 114.837 10.3631 114.39C10.1393 113.928 10.0274 113.366 10.0274 112.703C10.026 112.116 10.1505 111.536 10.3924 111.002C10.64 110.454 11.0007 109.966 11.4505 109.57C11.9555 109.137 12.5372 108.805 13.1647 108.592C13.9159 108.335 14.7053 108.21 15.4983 108.223C16.4267 108.208 17.3496 108.37 18.2186 108.701C18.9922 108.999 19.6994 109.449 20.2988 110.026L19.6578 111.096Z" fill="white"/>
<path d="M33.5809 111.322C33.504 111.42 33.4164 111.508 33.32 111.585C33.212 111.656 33.0837 111.69 32.955 111.681C32.7725 111.671 32.5975 111.605 32.4548 111.489C32.2444 111.341 32.0256 111.205 31.7995 111.083C31.4939 110.919 31.1747 110.783 30.8455 110.677C29.7635 110.368 28.6095 110.439 27.573 110.879C27.0354 111.133 26.5673 111.516 26.2095 111.994C25.8242 112.522 25.5433 113.12 25.3821 113.756C25.1844 114.517 25.089 115.302 25.0985 116.089C25.0871 116.895 25.1873 117.699 25.3963 118.477C25.5657 119.114 25.8546 119.712 26.2473 120.239C26.6014 120.704 27.0618 121.076 27.589 121.323C28.1414 121.575 28.7418 121.7 29.3477 121.692C29.9737 121.692 30.4906 121.614 30.8984 121.459C31.2538 121.329 31.5938 121.16 31.912 120.954C32.1459 120.8 32.3701 120.631 32.5834 120.449C32.7328 120.306 32.9289 120.223 33.1346 120.216C33.2416 120.211 33.3482 120.233 33.4445 120.281C33.5408 120.328 33.6238 120.399 33.6859 120.487L34.5208 121.571C34.1846 121.992 33.7904 122.363 33.3502 122.671C32.9208 122.97 32.4581 123.218 31.9716 123.409C31.4787 123.602 30.9677 123.745 30.4465 123.835C29.9122 123.926 29.3713 123.971 28.8296 123.97C27.9208 123.978 27.0201 123.798 26.1821 123.443C25.3682 123.096 24.6405 122.572 24.0508 121.907C23.4198 121.184 22.9359 120.343 22.6268 119.431C22.2789 118.452 22.1049 117.34 22.1049 116.095C22.0954 115.026 22.255 113.962 22.5777 112.943C22.8654 112.025 23.3373 111.177 23.9638 110.451C24.5885 109.744 25.3593 109.183 26.2218 108.81C27.1163 108.414 28.14 108.216 29.2929 108.216C30.3765 108.216 31.3305 108.391 32.155 108.743C32.9779 109.093 33.727 109.598 34.3619 110.233L33.5809 111.322Z" fill="white"/>
<path d="M48.6822 121.581C48.3236 122.003 47.9067 122.37 47.4445 122.672C46.9777 122.979 46.4773 123.229 45.9533 123.418C45.4234 123.609 44.877 123.75 44.3213 123.84C43.7717 123.929 43.2158 123.974 42.6591 123.975C41.6678 123.985 40.6839 123.803 39.7601 123.44C38.8858 123.095 38.097 122.56 37.4492 121.874C36.7689 121.139 36.2507 120.267 35.9287 119.314C35.5656 118.296 35.3841 117.124 35.3841 115.799C35.3757 114.786 35.5424 113.78 35.8767 112.825C36.1852 111.939 36.6636 111.123 37.2846 110.424C37.9101 109.731 38.6752 109.181 39.5284 108.811C40.4711 108.409 41.4864 108.209 42.5097 108.225C43.3816 108.216 44.2475 108.372 45.0626 108.684C45.8243 108.975 46.5151 109.428 47.088 110.012C47.6763 110.628 48.131 111.361 48.4231 112.165C48.7452 113.019 48.9066 113.992 48.9072 115.086C48.9072 115.538 48.8574 115.842 48.7578 115.997C48.6582 116.153 48.4745 116.23 48.2066 116.23H38.2784C38.2905 117.041 38.4211 117.846 38.6661 118.618C38.8637 119.242 39.1854 119.819 39.6116 120.312C40.0058 120.758 40.4985 121.104 41.0498 121.321C41.6449 121.549 42.2771 121.661 42.9134 121.652C43.4807 121.663 44.0463 121.587 44.5908 121.426C45.0108 121.297 45.4197 121.133 45.8134 120.937C46.1557 120.761 46.4438 120.598 46.6776 120.448C46.8586 120.316 47.0729 120.237 47.296 120.222C47.4032 120.217 47.5099 120.239 47.6063 120.286C47.7028 120.334 47.786 120.405 47.8482 120.493L48.6822 121.581ZM46.2814 114.418C46.2872 113.871 46.2041 113.327 46.0356 112.807C45.8834 112.336 45.6376 111.9 45.3132 111.528C44.9916 111.164 44.5945 110.876 44.1502 110.684C43.6497 110.475 43.1118 110.372 42.5702 110.383C41.3479 110.383 40.3863 110.739 39.6854 111.451C38.9844 112.164 38.5397 113.149 38.3512 114.408L46.2814 114.418Z" fill="white"/>
<path d="M54.0481 110.584C54.369 110.24 54.7127 109.918 55.0768 109.62C55.4298 109.332 55.812 109.082 56.2171 108.875C57.0789 108.437 58.032 108.212 58.997 108.22C59.8316 108.22 60.5647 108.361 61.1963 108.641C61.8079 108.908 62.351 109.313 62.7839 109.824C63.2268 110.361 63.5566 110.983 63.7531 111.653C63.9792 112.42 64.0898 113.217 64.0812 114.017V123.758H61.1585V114.017C61.1585 112.923 60.9102 112.073 60.4134 111.465C59.9167 110.857 59.1565 110.553 58.1328 110.554C57.4011 110.55 56.6806 110.734 56.0384 111.088C55.3587 111.467 54.7464 111.958 54.2268 112.541V123.759H51.3202V108.461H53.0638C53.471 108.461 53.7231 108.657 53.8202 109.048L54.0481 110.584Z" fill="white"/>
<path d="M79.7186 121.581C79.3594 122.001 78.9423 122.367 78.4799 122.668C78.0135 122.974 77.5134 123.224 76.9898 123.414C76.4604 123.604 75.9147 123.745 75.3597 123.835C74.8093 123.924 74.2529 123.969 73.6955 123.969C72.7043 123.978 71.7204 123.796 70.7965 123.434C69.9222 123.088 69.1334 122.554 68.4856 121.867C67.806 121.132 67.2878 120.26 66.9652 119.308C66.6021 118.289 66.4208 117.117 66.4215 115.792C66.4127 114.779 66.5791 113.773 66.9132 112.818C67.222 111.932 67.7007 111.116 68.322 110.417C68.9471 109.724 69.7123 109.174 70.5658 108.805C71.5084 108.402 72.5238 108.203 73.5471 108.218C74.419 108.209 75.2848 108.365 76.1 108.678C76.86 108.971 77.5488 109.425 78.1197 110.01C78.7074 110.626 79.1617 111.36 79.4538 112.163C79.7772 113.017 79.9386 113.991 79.938 115.084C79.938 115.536 79.8885 115.84 79.7895 115.996C79.6905 116.151 79.5065 116.229 79.2373 116.229H69.3092C69.3217 117.039 69.4523 117.844 69.6968 118.616C69.8952 119.24 70.2169 119.816 70.6424 120.311C71.0367 120.757 71.5298 121.102 72.0815 121.319C72.6762 121.547 73.3082 121.659 73.9442 121.651C74.5115 121.662 75.0771 121.585 75.6216 121.424C76.0416 121.295 76.4504 121.131 76.8442 120.935C77.1871 120.759 77.4752 120.596 77.7084 120.446C77.8897 120.313 78.1043 120.235 78.3277 120.22C78.4347 120.215 78.5413 120.237 78.6376 120.284C78.7339 120.332 78.8169 120.403 78.879 120.491L79.7186 121.581ZM77.3188 114.418C77.3242 113.871 77.2409 113.327 77.072 112.808C76.9198 112.336 76.674 111.9 76.3496 111.528C76.028 111.164 75.6309 110.876 75.1866 110.684C74.6861 110.475 74.1483 110.372 73.6066 110.383C72.3837 110.383 71.4221 110.739 70.7218 111.451C70.0215 112.164 69.5767 113.153 69.3876 114.418H77.3188Z" fill="white"/>
<path d="M4.02139 95.9648V99.0908H2.86594V95.9648L0 91.1875H1.01929C1.10701 91.1829 1.1936 91.2092 1.26419 91.262C1.32798 91.3138 1.37992 91.379 1.41642 91.453L3.11839 94.409C3.1871 94.5446 3.25014 94.6719 3.3075 94.791C3.36329 94.9123 3.4134 95.0317 3.4569 95.1482C3.49756 95.0317 3.54389 94.9123 3.59589 94.791C3.6479 94.6697 3.70936 94.5417 3.77838 94.409L5.47279 91.453C5.51259 91.3837 5.56337 91.3214 5.62313 91.2687C5.69051 91.2109 5.77684 91.1806 5.86519 91.1837H6.88732L4.02139 95.9648Z" fill="white"/>
<path d="M14.5963 95.1396C14.6009 95.6937 14.5047 96.2441 14.3126 96.7632C14.1365 97.2387 13.8666 97.6731 13.5193 98.0401C13.172 98.402 12.7532 98.6861 12.2901 98.8739C11.2703 99.2699 10.1414 99.2699 9.12162 98.8739C8.65821 98.6867 8.23929 98.4026 7.89242 98.0401C7.54673 97.672 7.27734 97.2379 7.10005 96.7632C6.72251 95.7144 6.72251 94.5648 7.10005 93.516C7.27686 93.0405 7.5463 92.6056 7.89242 92.2371C8.23966 91.8744 8.65843 91.5894 9.12162 91.4005C10.1407 91.0006 11.2711 91.0006 12.2901 91.4005C12.753 91.59 13.1716 91.875 13.5193 92.2371C13.867 92.6046 14.1369 93.0397 14.3126 93.516C14.5045 94.0352 14.6006 94.5854 14.5963 95.1396ZM13.4087 95.1396C13.4152 94.7098 13.3513 94.2819 13.2196 93.8732C13.1055 93.5206 12.9207 93.1955 12.6769 92.9181C12.4408 92.6568 12.1501 92.4519 11.8259 92.3183C11.1086 92.0394 10.3144 92.0394 9.59723 92.3183C9.27334 92.4526 8.98277 92.6574 8.74624 92.9181C8.50083 93.1948 8.31504 93.5201 8.20066 93.8732C7.94728 94.6984 7.94728 95.5817 8.20066 96.4069C8.3154 96.7582 8.50119 97.0815 8.74624 97.3563C8.98183 97.6176 9.2727 97.822 9.59723 97.9541C10.3152 98.2292 11.1079 98.2292 11.8259 97.9541C12.1508 97.8227 12.4418 97.6182 12.6769 97.3563C12.9203 97.0808 13.1051 96.7576 13.2196 96.4069C13.3517 95.998 13.4156 95.5697 13.4087 95.1396Z" fill="white"/>
<path d="M18.9931 98.149C19.2808 98.1542 19.5665 98.0999 19.8327 97.9895C20.0718 97.8887 20.2859 97.7358 20.4596 97.5416C20.6344 97.3408 20.7675 97.1067 20.8511 96.853C20.9449 96.5682 20.9909 96.2696 20.9872 95.9695V91.1875H22.1427V95.9695C22.147 96.4069 22.073 96.8414 21.9242 97.2522C21.7874 97.6316 21.5743 97.9782 21.2983 98.2703C21.0177 98.561 20.6798 98.7888 20.3064 98.9389C19.4601 99.2623 18.526 99.2623 17.6797 98.9389C17.3067 98.7885 16.9692 98.5607 16.6888 98.2703C16.4128 97.978 16.1994 97.6315 16.0619 97.2522C15.9138 96.8413 15.8402 96.4068 15.8444 95.9695V91.1875H17.0046V95.9629C17.0012 96.2636 17.0463 96.563 17.1379 96.8492C17.2198 97.1037 17.3524 97.3387 17.5275 97.5397C17.7009 97.7349 17.915 97.8888 18.1544 97.9905C18.4203 98.1005 18.7057 98.1545 18.9931 98.149Z" fill="white"/>
<path d="M29.7372 99.0907H28.7028C28.6119 99.0964 28.5213 99.0763 28.4412 99.0326C28.3611 98.9888 28.2948 98.9233 28.2499 98.8433L26.3162 96.1023C26.2654 96.0218 26.1964 95.9547 26.1148 95.9065C26.0115 95.8625 25.8996 95.8429 25.7877 95.8492H25.0312V99.0907H23.8701V91.1875H26.1252C26.5652 91.1796 27.0042 91.2323 27.4301 91.3441C27.7581 91.4304 28.0658 91.5821 28.335 91.7902C28.5658 91.9741 28.7475 92.2135 28.8635 92.4864C28.9812 92.7759 29.0394 93.0865 29.0347 93.3995C29.0365 93.6635 28.9943 93.926 28.9098 94.1759C28.8275 94.4142 28.7029 94.6352 28.542 94.8282C28.3734 95.0261 28.1734 95.1942 27.9501 95.3258C27.7039 95.4707 27.4378 95.5782 27.1606 95.6448C27.3119 95.7386 27.441 95.8648 27.5388 96.0144L29.7372 99.0907ZM26.0874 94.9963C26.3537 95.0007 26.6191 94.9633 26.8741 94.8855C27.0821 94.8221 27.2751 94.7164 27.4414 94.5751C27.5915 94.4456 27.7092 94.2819 27.7846 94.0976C27.8633 93.9031 27.9025 93.6946 27.9 93.4845C27.9 93.0292 27.7519 92.686 27.4556 92.4549C27.1593 92.2238 26.7152 92.1082 26.1233 92.1082H25.0303V94.9982L26.0874 94.9963Z" fill="white"/>
<path d="M38.7387 97.3955C38.7707 97.3953 38.8022 97.4022 38.8313 97.4155C38.8603 97.4289 38.8862 97.4484 38.9071 97.4728L39.3647 97.979C39.0462 98.3593 38.6466 98.6619 38.196 98.8643C37.6714 99.0865 37.1061 99.1936 36.5375 99.1786C36.0098 99.1862 35.486 99.0851 34.9982 98.8815C34.5517 98.6923 34.1504 98.409 33.821 98.0506C33.4865 97.6806 33.2293 97.2463 33.0646 96.7737C32.8819 96.2489 32.7917 95.6958 32.7979 95.1396C32.7928 94.5816 32.8889 94.0274 33.0816 93.5045C33.2565 93.0297 33.5244 92.5954 33.8692 92.2276C34.2113 91.8699 34.6235 91.5882 35.0795 91.4005C35.5752 91.1977 36.1059 91.0967 36.6406 91.1035C37.1477 91.0942 37.6515 91.1878 38.1223 91.3785C38.5389 91.5516 38.9211 91.7994 39.2503 92.1101L38.8721 92.6555C38.8475 92.6936 38.8153 92.7261 38.7775 92.751C38.7324 92.7789 38.68 92.7925 38.6272 92.7901C38.5376 92.7815 38.4529 92.7448 38.3851 92.6851C38.268 92.6004 38.1461 92.5226 38.0201 92.452C37.5968 92.2139 37.1173 92.0967 36.633 92.113C36.2671 92.1086 35.904 92.1787 35.5655 92.3193C35.2471 92.4533 34.9617 92.6565 34.7296 92.9143C34.4847 93.1913 34.299 93.5165 34.1841 93.8693C34.0513 94.2808 33.9874 94.7117 33.995 95.1444C33.9878 95.5802 34.056 96.0139 34.1964 96.4261C34.317 96.7786 34.506 97.1033 34.7523 97.3811C34.9837 97.6382 35.2681 97.841 35.5854 97.9752C35.915 98.1131 36.2687 98.1823 36.6255 98.1786C36.8289 98.1803 37.0321 98.1666 37.2334 98.1375C37.4021 98.1126 37.568 98.0714 37.7289 98.0143C37.8785 97.9594 38.0218 97.8883 38.1563 97.8023C38.2977 97.7104 38.4309 97.6062 38.5544 97.491C38.5829 97.4657 38.6147 97.4445 38.6489 97.4279C38.6763 97.411 38.7069 97.3999 38.7387 97.3955Z" fill="white"/>
<path d="M41.5933 99.0908H40.4275V91.1875H41.5933V99.0908Z" fill="white"/>
<path d="M48.7474 92.1645H46.2625V99.0879H45.108V92.1645H42.6118V91.1875H48.7474V92.1645Z" fill="white"/>
<path d="M52.8113 95.9648V99.0908H51.6559V95.9648L48.7899 91.1894H49.8092C49.8969 91.1848 49.9835 91.2111 50.0541 91.2639C50.1184 91.3154 50.1707 91.3807 50.2073 91.4549L51.9093 94.4109C51.9773 94.5465 52.0407 94.6745 52.0984 94.7929C52.156 94.9114 52.2052 95.0336 52.2487 95.1501C52.2884 95.0336 52.3348 94.9142 52.3877 94.7929C52.4407 94.6716 52.5012 94.5436 52.5702 94.4109L54.2646 91.4549C54.3037 91.3854 54.3542 91.3231 54.414 91.2706C54.4817 91.2127 54.5683 91.1824 54.657 91.1856H55.681L52.8113 95.9648Z" fill="white"/>
<path d="M55.9004 99.0907C55.8078 99.0915 55.716 99.0727 55.631 99.0353C55.5495 98.9994 55.4763 98.947 55.4158 98.8813C55.3552 98.8156 55.3088 98.738 55.2792 98.6533C55.2464 98.5615 55.23 98.4644 55.231 98.3668C55.2305 98.281 55.2469 98.1959 55.2792 98.1166C55.3112 98.039 55.3585 97.9688 55.4182 97.9103C55.4805 97.8499 55.5537 97.8022 55.6338 97.7699C55.8228 97.6964 56.0328 97.7002 56.2191 97.7804C56.3061 97.8209 56.3828 97.881 56.4432 97.9561C56.504 98.0338 56.5493 98.1227 56.5765 98.2178C56.6058 98.3215 56.6204 98.4289 56.62 98.5368C56.6185 98.7136 56.5947 98.8895 56.5491 99.0602C56.4998 99.2487 56.4304 99.4313 56.342 99.6046C56.2476 99.7903 56.1345 99.9657 56.0044 100.128C55.8675 100.299 55.7142 100.456 55.5468 100.596L55.3672 100.425C55.3421 100.404 55.3218 100.378 55.3077 100.349C55.2935 100.319 55.2857 100.287 55.2849 100.254C55.2859 100.226 55.2944 100.198 55.3095 100.175C55.3268 100.145 55.3478 100.118 55.3719 100.095C55.4088 100.054 55.456 99.999 55.5137 99.935C55.5761 99.8629 55.6336 99.7867 55.6858 99.7068C55.7449 99.6151 55.7977 99.5193 55.8437 99.4202C55.8932 99.3146 55.9288 99.2029 55.9496 99.0879L55.9004 99.0907Z" fill="white"/>
<path d="M63.2832 95.9648V99.0907H62.1278V95.9648L59.2618 91.1894H60.2811C60.3689 91.1848 60.4554 91.2111 60.526 91.2639C60.5902 91.3156 60.6424 91.3808 60.6792 91.4549L62.3812 94.4109C62.4493 94.5465 62.5126 94.6745 62.5703 94.7929C62.628 94.9113 62.6771 95.0336 62.7206 95.1501C62.7603 95.0336 62.8067 94.9142 62.8596 94.7929C62.9126 94.6716 62.9731 94.5436 63.0421 94.4109L64.7365 91.4549C64.7757 91.3854 64.8262 91.3231 64.8859 91.2706C64.9535 91.2126 65.0402 91.1822 65.1289 91.1856H66.1529L63.2832 95.9648Z" fill="white"/>
<path d="M73.859 95.1396C73.8641 95.6938 73.7679 96.2442 73.5753 96.7632C73.3995 97.2386 73.1299 97.673 72.783 98.0401C72.4354 98.4017 72.0167 98.6858 71.5538 98.8739C70.534 99.2699 69.4051 99.2699 68.3853 98.8739C67.9217 98.6871 67.5027 98.4029 67.1561 98.0401C66.8101 97.6721 66.5404 97.2379 66.3628 96.7632C65.9865 95.7141 65.9865 94.565 66.3628 93.516C66.5399 93.0404 66.8097 92.6056 67.1561 92.2371C67.5031 91.8741 67.9219 91.589 68.3853 91.4005C69.4043 91.0006 70.5347 91.0006 71.5538 91.4005C72.0165 91.5903 72.4351 91.8752 72.783 92.2371C73.1304 92.6046 73.4 93.0397 73.5753 93.516C73.7676 94.035 73.8638 94.5854 73.859 95.1396ZM72.6714 95.1396C72.678 94.7098 72.6141 94.2819 72.4823 93.8732C72.3681 93.5208 72.1837 93.1958 71.9405 92.9181C71.7043 92.657 71.4137 92.4521 71.0895 92.3183C70.3723 92.0394 69.5781 92.0394 68.8609 92.3183C68.5371 92.4527 68.2465 92.6575 68.0099 92.9181C67.7644 93.1946 67.5789 93.5199 67.4653 93.8732C67.2106 94.6982 67.2106 95.5819 67.4653 96.4069C67.5793 96.7583 67.7648 97.0816 68.0099 97.3563C68.2456 97.6175 68.5364 97.8218 68.8609 97.9541C69.5788 98.2292 70.3716 98.2292 71.0895 97.9541C71.4143 97.8224 71.7053 97.618 71.9405 97.3563C72.1834 97.0805 72.3677 96.7574 72.4823 96.4069C72.6144 95.998 72.6783 95.5697 72.6714 95.1396Z" fill="white"/>
<path d="M78.2559 98.1491C78.5433 98.1542 78.8287 98.0999 79.0946 97.9896C79.3337 97.8888 79.5477 97.7358 79.7215 97.5416C79.8966 97.3409 80.03 97.1068 80.1139 96.853C80.2077 96.5683 80.2537 96.2697 80.25 95.9696V91.1875H81.4046V95.9696C81.4088 96.4069 81.3351 96.8413 81.1871 97.2523C81.0495 97.6315 80.8361 97.9781 80.5602 98.2704C80.2798 98.5612 79.9418 98.7891 79.5683 98.9389C78.7223 99.2624 77.7885 99.2624 76.9425 98.9389C76.5691 98.7888 76.2312 98.561 75.9506 98.2704C75.6746 97.9783 75.4615 97.6316 75.3247 97.2523C75.1759 96.8415 75.102 96.4069 75.1063 95.9696V91.1875H76.2664V95.9629C76.2634 96.2637 76.3087 96.5631 76.4007 96.8492C76.4823 97.104 76.6149 97.339 76.7903 97.5397C76.9635 97.7341 77.1773 97.8871 77.4162 97.9877C77.6823 98.0987 77.968 98.1536 78.2559 98.1491Z" fill="white"/>
<path d="M89 99.0908H87.9599C87.8692 99.0966 87.7786 99.0765 87.6987 99.0327C87.6188 98.989 87.5527 98.9234 87.5079 98.8435L85.5733 96.1024C85.523 96.0215 85.4539 95.9543 85.3719 95.9066C85.2687 95.8624 85.1567 95.8428 85.0448 95.8493H84.2884V99.0908H83.132V91.1875H85.3871C85.8274 91.1796 86.2667 91.2323 86.6929 91.3441C87.0206 91.4304 87.328 91.5821 87.5968 91.7902C87.8279 91.9739 88.0097 92.2133 88.1254 92.4864C88.2434 92.7759 88.3019 93.0865 88.2974 93.3995C88.299 93.6636 88.2565 93.9261 88.1717 94.176C88.0898 94.4144 87.9651 94.6355 87.8039 94.8283C87.6356 95.0261 87.4359 95.1943 87.2129 95.3259C86.9663 95.4708 86.7 95.5783 86.4224 95.6449C86.574 95.7384 86.7031 95.8646 86.8007 96.0145L89 99.0908ZM85.3493 94.9964C85.6159 95.0008 85.8816 94.9634 86.1369 94.8856C86.3449 94.8221 86.5379 94.7165 86.7042 94.5752C86.8538 94.4451 86.9713 94.2816 87.0474 94.0976C87.1257 93.903 87.1646 93.6945 87.1619 93.4845C87.1619 93.0292 87.0137 92.686 86.7174 92.4549C86.4212 92.2238 85.9771 92.1082 85.3852 92.1082H84.2921V94.9983L85.3493 94.9964Z" fill="white"/>
</g>
<defs>
<clipPath id="clip0">
<rect width="89" height="124" fill="white"/>
</clipPath>
</defs>
</svg>
