<svg width="40" height="40" viewBox="0 0 40 40" fill="none" xmlns="http://www.w3.org/2000/svg">
<path d="M20 40C31.0457 40 40 31.0457 40 20C40 8.9543 31.0457 0 20 0C8.9543 0 0 8.9543 0 20C0 31.0457 8.9543 40 20 40Z" fill="#55ACEE"/>
<path d="M32.2506 14.3733C31.3935 14.7534 30.4716 15.0104 29.5047 15.1252C30.4919 14.5338 31.2495 13.5979 31.6071 12.4809C30.6833 13.0289 29.6598 13.4264 28.5713 13.6407C27.6993 12.712 26.4568 12.1316 25.081 12.1316C22.4413 12.1316 20.3004 14.2724 20.3004 16.9121C20.3004 17.2868 20.3429 17.6515 20.4249 18.0016C16.4518 17.8023 12.929 15.8992 10.571 13.0061C10.1596 13.712 9.92362 14.5338 9.92362 15.4097C9.92362 17.0679 10.7682 18.5318 12.0502 19.3889C11.2669 19.3643 10.5293 19.1493 9.88512 18.7903C9.88472 18.8106 9.88472 18.8309 9.88472 18.8509C9.88472 21.1672 11.5333 23.0991 13.7198 23.538C13.3191 23.6478 12.8959 23.7059 12.4606 23.7059C12.1518 23.7059 11.8527 23.6763 11.5611 23.6207C12.1693 25.5196 13.9344 26.9018 16.0268 26.9406C14.3904 28.223 12.3294 28.9871 10.089 28.9871C9.70402 28.9871 9.32252 28.9646 8.94922 28.92C11.0637 30.2769 13.5772 31.0681 16.2768 31.0681C25.0699 31.0681 29.8787 23.7837 29.8787 17.4658C29.8787 17.2587 29.874 17.0522 29.8648 16.8476C30.7996 16.1738 31.6099 15.332 32.2506 14.3733Z" fill="#F1F2F2"/>
</svg>
